%
M48
M72
T01C0.0160
T02C0.0335
T03C0.0400
T04C0.0512
T05C0.0591
T06C0.0984
T07C0.1260
%
T01
X16802Y17885
X17775Y18736
X20800Y9161
X20406Y16248
X20013Y18216
X13713Y21759
X14107Y22547
X14501Y23334
X14895Y24122
X24479Y17689
X24981Y21366
X25981Y20972
X31824Y23334
X26981Y24511
X27981Y23732
X28810Y17689
X25131Y16641
X12078Y8633
X11684Y8633
X11290Y8633
X11290Y9027
X11290Y9421
X11684Y9421
X12078Y9421
X12078Y9027
X11684Y9027
X5446Y8767
X31036Y16641
X32944Y17689
X38062Y22019
X38849Y22019
X38456Y21626
X38849Y21232
X38456Y20838
X38849Y20444
X38062Y20444
X38062Y21232
X43635Y25696
X41273Y29240
X38849Y15720
X38062Y15720
X38456Y15326
X38849Y14933
X38456Y14539
X38849Y14145
X38062Y14145
X38062Y14933
X41273Y6011
X10564Y23728
X9322Y29240
T02
X15981Y7393
X14981Y7393
X13981Y7393
X16981Y7393
X17981Y7393
X18981Y7393
X19981Y7393
X20981Y7393
X22981Y7393
X19381Y26393
X17381Y26393
X16381Y26393
X15381Y26393
X14381Y26393
X13381Y26393
X12381Y26393
X11381Y26393
X10381Y26393
X20981Y26393
X18381Y26393
X21981Y26393
X22981Y26393
X23981Y26393
X24981Y26393
X25981Y26393
X27981Y26393
X26981Y26393
X25981Y7393
X24981Y7393
X23981Y7393
X26981Y7393
X27981Y7393
T03
X7808Y26590
X7808Y25590
X7808Y24590
X7808Y23590
X7808Y22590
X7808Y21590
X7808Y20590
X7808Y19590
X7808Y18590
X7808Y17590
X7808Y16590
X7808Y15590
X7808Y14590
X7808Y13590
X7808Y12590
X7808Y11590
X7808Y10590
X7808Y9590
X7808Y8590
X7808Y7590
T04
X4689Y31280
X4689Y29280
X4689Y29280
X4697Y26598
X4696Y26597
X4697Y24598
X4697Y24597
X36941Y27655
X36941Y27655
X38941Y27655
X4715Y13179
X4714Y13180
X4714Y15180
T05
X36426Y26484
X39426Y26484
T06
X37926Y30484
T07
X4659Y4830
X4658Y4830
X7808Y4437
X7808Y4437
X10958Y31208
X10957Y31209
X7812Y31200
X7812Y31201
X33402Y31201
X33402Y31200
X42454Y31208
X42454Y31208
X39698Y4830
X39698Y4831
X33402Y4437
X33402Y4436
M30
