G75*
G70*
%OFA0B0*%
%FSLAX24Y24*%
%IPPOS*%
%LPD*%
%AMOC8*
5,1,8,0,0,1.08239X$1,22.5*
%
%ADD10C,0.0000*%
%ADD11C,0.0160*%
%ADD12C,0.0090*%
%ADD13C,0.0060*%
%ADD14C,0.0110*%
%ADD15C,0.0070*%
%ADD16C,0.0030*%
%ADD17R,0.0120X0.0020*%
%ADD18R,0.0080X0.0020*%
%ADD19R,0.0140X0.0020*%
%ADD20R,0.0280X0.0020*%
%ADD21R,0.0160X0.0020*%
%ADD22R,0.0240X0.0020*%
%ADD23R,0.0260X0.0020*%
%ADD24R,0.0340X0.0020*%
%ADD25R,0.0380X0.0020*%
%ADD26R,0.0360X0.0020*%
%ADD27R,0.0180X0.0020*%
%ADD28R,0.0400X0.0020*%
%ADD29R,0.0440X0.0020*%
%ADD30R,0.0580X0.0020*%
%ADD31R,0.0560X0.0020*%
%ADD32R,0.0480X0.0020*%
%ADD33R,0.0600X0.0020*%
%ADD34R,0.0200X0.0020*%
%ADD35R,0.0520X0.0020*%
%ADD36R,0.0220X0.0020*%
%ADD37R,0.0040X0.0020*%
%ADD38R,0.0640X0.0020*%
%ADD39R,0.0660X0.0020*%
%ADD40R,0.0540X0.0020*%
%ADD41R,0.0500X0.0020*%
%ADD42R,0.0420X0.0020*%
%ADD43R,0.0020X0.0020*%
%ADD44R,0.0060X0.0020*%
%ADD45R,0.0100X0.0020*%
%ADD46R,0.0460X0.0020*%
%ADD47R,0.0320X0.0020*%
%ADD48R,0.0300X0.0020*%
%ADD49R,0.0700X0.0020*%
%ADD50R,0.0740X0.0020*%
%ADD51R,0.0800X0.0020*%
%ADD52R,0.0840X0.0020*%
%ADD53R,0.0900X0.0020*%
%ADD54R,0.0940X0.0020*%
%ADD55R,0.1000X0.0020*%
%ADD56R,0.1420X0.0020*%
%ADD57R,0.1460X0.0020*%
%ADD58R,0.1480X0.0020*%
%ADD59R,0.1520X0.0020*%
%ADD60R,0.1540X0.0020*%
%ADD61R,0.1580X0.0020*%
%ADD62R,0.1600X0.0020*%
%ADD63R,0.1620X0.0020*%
%ADD64R,0.1640X0.0020*%
%ADD65R,0.1560X0.0020*%
%ADD66R,0.1500X0.0020*%
%ADD67R,0.1660X0.0020*%
%ADD68R,0.1680X0.0020*%
%ADD69R,0.1700X0.0020*%
%ADD70R,0.1720X0.0020*%
%ADD71R,0.1740X0.0020*%
%ADD72R,0.1760X0.0020*%
%ADD73R,0.1820X0.0020*%
%ADD74R,0.1900X0.0020*%
%ADD75R,0.2000X0.0020*%
%ADD76R,0.2100X0.0020*%
%ADD77R,0.2180X0.0020*%
%ADD78R,0.2220X0.0020*%
%ADD79R,0.2200X0.0020*%
%ADD80R,0.2160X0.0020*%
%ADD81R,0.2140X0.0020*%
%ADD82R,0.2120X0.0020*%
%ADD83R,0.2020X0.0020*%
%ADD84R,0.1920X0.0020*%
%ADD85R,0.1840X0.0020*%
%ADD86R,0.1880X0.0020*%
%ADD87R,0.4100X0.0020*%
%ADD88R,0.4060X0.0020*%
%ADD89R,0.4020X0.0020*%
%ADD90R,0.3980X0.0020*%
%ADD91R,0.3940X0.0020*%
%ADD92R,0.3900X0.0020*%
%ADD93R,0.3860X0.0020*%
%ADD94R,0.3880X0.0020*%
%ADD95R,0.4140X0.0020*%
%ADD96R,0.4180X0.0020*%
%ADD97R,0.4220X0.0020*%
%ADD98R,0.4260X0.0020*%
%ADD99R,0.4300X0.0020*%
%ADD100R,0.4340X0.0020*%
%ADD101R,0.4380X0.0020*%
%ADD102R,0.4420X0.0020*%
%ADD103R,0.4460X0.0020*%
%ADD104R,0.4500X0.0020*%
%ADD105R,0.4540X0.0020*%
%ADD106R,0.4580X0.0020*%
%ADD107R,0.4620X0.0020*%
%ADD108R,0.4660X0.0020*%
%ADD109R,0.4700X0.0020*%
%ADD110R,0.4740X0.0020*%
%ADD111R,0.1100X0.0020*%
%ADD112R,0.1040X0.0020*%
%ADD113R,0.2060X0.0020*%
%ADD114R,0.1940X0.0020*%
%ADD115R,0.1860X0.0020*%
%ADD116R,0.1780X0.0020*%
%ADD117R,0.0760X0.0020*%
%ADD118R,0.1380X0.0020*%
%ADD119R,0.1260X0.0020*%
%ADD120R,0.1180X0.0020*%
%ADD121R,0.1140X0.0020*%
%ADD122R,0.1060X0.0020*%
%ADD123R,0.1020X0.0020*%
%ADD124R,0.0980X0.0020*%
%ADD125R,0.0860X0.0020*%
%ADD126R,0.0820X0.0020*%
%ADD127R,0.0780X0.0020*%
%ADD128R,0.0030X0.0030*%
%ADD129R,0.0060X0.0030*%
%ADD130R,0.0090X0.0030*%
%ADD131R,0.0120X0.0030*%
%ADD132R,0.0150X0.0030*%
%ADD133R,0.0180X0.0030*%
%ADD134R,0.0210X0.0030*%
%ADD135R,0.0240X0.0030*%
%ADD136R,0.0270X0.0030*%
%ADD137R,0.0300X0.0030*%
%ADD138R,0.0330X0.0030*%
%ADD139R,0.0360X0.0030*%
%ADD140R,0.0390X0.0030*%
%ADD141R,0.0420X0.0030*%
%ADD142R,0.0450X0.0030*%
%ADD143R,0.0480X0.0030*%
%ADD144R,0.0510X0.0030*%
%ADD145R,0.0540X0.0030*%
%ADD146R,0.0600X0.0030*%
%ADD147R,0.0630X0.0030*%
%ADD148R,0.0660X0.0030*%
%ADD149R,0.0570X0.0030*%
%ADD150R,0.0690X0.0030*%
%ADD151R,0.0720X0.0030*%
%ADD152R,0.0750X0.0030*%
%ADD153R,0.0810X0.0030*%
%ADD154R,0.0840X0.0030*%
%ADD155R,0.0870X0.0030*%
%ADD156R,0.0900X0.0030*%
%ADD157R,0.0930X0.0030*%
%ADD158R,0.0960X0.0030*%
%ADD159R,0.0780X0.0030*%
%ADD160R,0.0990X0.0030*%
%ADD161R,0.1020X0.0030*%
%ADD162R,0.1050X0.0030*%
%ADD163R,0.1080X0.0030*%
%ADD164R,0.1110X0.0030*%
%ADD165R,0.1140X0.0030*%
%ADD166R,0.1200X0.0030*%
%ADD167R,0.1230X0.0030*%
%ADD168R,0.1260X0.0030*%
%ADD169R,0.1290X0.0030*%
%ADD170R,0.1320X0.0030*%
%ADD171R,0.1350X0.0030*%
%ADD172R,0.1410X0.0030*%
%ADD173R,0.1440X0.0030*%
%ADD174R,0.1470X0.0030*%
%ADD175R,0.1500X0.0030*%
%ADD176R,0.1170X0.0030*%
%ADD177R,0.1530X0.0030*%
%ADD178R,0.1560X0.0030*%
%ADD179R,0.1590X0.0030*%
%ADD180R,0.1620X0.0030*%
%ADD181R,0.1650X0.0030*%
%ADD182R,0.1680X0.0030*%
%ADD183R,0.1710X0.0030*%
%ADD184R,0.1740X0.0030*%
%ADD185R,0.1380X0.0030*%
%ADD186R,0.1770X0.0030*%
%ADD187R,0.1800X0.0030*%
%ADD188R,0.1830X0.0030*%
%ADD189R,0.1860X0.0030*%
%ADD190R,0.1890X0.0030*%
%ADD191R,0.1920X0.0030*%
%ADD192R,0.1950X0.0030*%
%ADD193R,0.2010X0.0030*%
%ADD194R,0.2040X0.0030*%
%ADD195R,0.2070X0.0030*%
%ADD196R,0.2100X0.0030*%
%ADD197R,0.2130X0.0030*%
%ADD198R,0.2160X0.0030*%
%ADD199R,0.2220X0.0030*%
%ADD200R,0.2250X0.0030*%
%ADD201R,0.2280X0.0030*%
%ADD202R,0.2310X0.0030*%
%ADD203R,0.2340X0.0030*%
%ADD204R,0.2370X0.0030*%
%ADD205R,0.2400X0.0030*%
%ADD206R,0.2430X0.0030*%
%ADD207R,0.2460X0.0030*%
%ADD208R,0.2490X0.0030*%
%ADD209R,0.2520X0.0030*%
%ADD210R,0.2550X0.0030*%
%ADD211R,0.2580X0.0030*%
%ADD212R,0.1980X0.0030*%
%ADD213R,0.2610X0.0030*%
%ADD214R,0.2640X0.0030*%
%ADD215R,0.2670X0.0030*%
%ADD216R,0.2700X0.0030*%
%ADD217R,0.2730X0.0030*%
%ADD218R,0.2790X0.0030*%
%ADD219R,0.2820X0.0030*%
%ADD220R,0.2850X0.0030*%
%ADD221R,0.2190X0.0030*%
%ADD222R,0.2880X0.0030*%
%ADD223R,0.2910X0.0030*%
%ADD224R,0.2940X0.0030*%
%ADD225R,0.3000X0.0030*%
%ADD226R,0.3030X0.0030*%
%ADD227R,0.3060X0.0030*%
%ADD228R,0.3090X0.0030*%
%ADD229R,0.3120X0.0030*%
%ADD230R,0.3150X0.0030*%
%ADD231R,0.3210X0.0030*%
%ADD232R,0.3240X0.0030*%
%ADD233R,0.3270X0.0030*%
%ADD234R,0.3300X0.0030*%
%ADD235R,0.3330X0.0030*%
%ADD236R,0.3360X0.0030*%
%ADD237R,0.3390X0.0030*%
%ADD238R,0.3420X0.0030*%
%ADD239R,0.3450X0.0030*%
%ADD240R,0.3480X0.0030*%
%ADD241R,0.3510X0.0030*%
%ADD242R,0.3540X0.0030*%
%ADD243R,0.3600X0.0030*%
%ADD244R,0.3630X0.0030*%
%ADD245R,0.3660X0.0030*%
%ADD246R,0.2760X0.0030*%
%ADD247R,0.3720X0.0030*%
%ADD248R,0.3750X0.0030*%
%ADD249R,0.3810X0.0030*%
%ADD250R,0.3870X0.0030*%
%ADD251R,0.3930X0.0030*%
%ADD252R,0.3990X0.0030*%
%ADD253R,0.4050X0.0030*%
%ADD254R,0.4080X0.0030*%
%ADD255R,0.4140X0.0030*%
%ADD256R,0.4200X0.0030*%
%ADD257R,0.4230X0.0030*%
%ADD258R,0.4290X0.0030*%
%ADD259R,0.4320X0.0030*%
%ADD260R,0.4380X0.0030*%
%ADD261R,0.4440X0.0030*%
%ADD262R,0.4470X0.0030*%
%ADD263R,0.4560X0.0030*%
%ADD264R,0.4620X0.0030*%
%ADD265R,0.4650X0.0030*%
%ADD266R,0.4710X0.0030*%
%ADD267R,0.4770X0.0030*%
%ADD268R,0.4800X0.0030*%
%ADD269R,0.4860X0.0030*%
%ADD270R,0.4890X0.0030*%
%ADD271R,0.4950X0.0030*%
%ADD272R,0.5010X0.0030*%
%ADD273R,0.5040X0.0030*%
%ADD274R,0.5100X0.0030*%
%ADD275R,0.5190X0.0030*%
%ADD276R,0.5220X0.0030*%
%ADD277R,0.5280X0.0030*%
%ADD278R,0.5310X0.0030*%
%ADD279R,0.5370X0.0030*%
%ADD280R,0.5430X0.0030*%
%ADD281R,0.5460X0.0030*%
%ADD282R,0.5520X0.0030*%
%ADD283R,0.5580X0.0030*%
%ADD284R,0.5610X0.0030*%
%ADD285R,0.5670X0.0030*%
%ADD286R,0.5730X0.0030*%
%ADD287R,0.5790X0.0030*%
%ADD288R,0.5850X0.0030*%
%ADD289R,0.5880X0.0030*%
%ADD290R,0.5940X0.0030*%
%ADD291R,0.6000X0.0030*%
%ADD292R,0.6030X0.0030*%
%ADD293R,0.6090X0.0030*%
%ADD294R,0.6150X0.0030*%
%ADD295R,0.6180X0.0030*%
%ADD296R,0.6240X0.0030*%
%ADD297R,0.6300X0.0030*%
%ADD298R,0.6330X0.0030*%
%ADD299R,0.6420X0.0030*%
%ADD300R,0.6450X0.0030*%
%ADD301R,0.6510X0.0030*%
%ADD302R,0.6540X0.0030*%
%ADD303R,0.6480X0.0030*%
%ADD304R,0.6390X0.0030*%
%ADD305R,0.6360X0.0030*%
%ADD306R,0.6270X0.0030*%
%ADD307R,0.6210X0.0030*%
%ADD308R,0.6120X0.0030*%
%ADD309R,0.6060X0.0030*%
%ADD310R,0.5970X0.0030*%
%ADD311R,0.3570X0.0030*%
%ADD312R,0.4020X0.0030*%
%ADD313R,0.4110X0.0030*%
%ADD314R,0.5820X0.0030*%
%ADD315R,0.5700X0.0030*%
%ADD316R,0.5340X0.0030*%
%ADD317R,0.5070X0.0030*%
%ADD318R,0.3960X0.0030*%
%ADD319R,0.3900X0.0030*%
%ADD320R,0.4830X0.0030*%
%ADD321R,0.3780X0.0030*%
%ADD322R,0.3690X0.0030*%
%ADD323R,0.4590X0.0030*%
%ADD324R,0.4500X0.0030*%
%ADD325R,0.4260X0.0030*%
%ADD326R,0.3180X0.0030*%
%ADD327R,0.2970X0.0030*%
%ADD328C,0.0050*%
%ADD329C,0.0040*%
%ADD330C,0.0080*%
%ADD331R,0.0059X0.0118*%
%ADD332R,0.0118X0.0118*%
D10*
X004028Y004830D02*
X004030Y004880D01*
X004036Y004930D01*
X004046Y004979D01*
X004060Y005027D01*
X004077Y005074D01*
X004098Y005119D01*
X004123Y005163D01*
X004151Y005204D01*
X004183Y005243D01*
X004217Y005280D01*
X004254Y005314D01*
X004294Y005344D01*
X004336Y005371D01*
X004380Y005395D01*
X004426Y005416D01*
X004473Y005432D01*
X004521Y005445D01*
X004571Y005454D01*
X004620Y005459D01*
X004671Y005460D01*
X004721Y005457D01*
X004770Y005450D01*
X004819Y005439D01*
X004867Y005424D01*
X004913Y005406D01*
X004958Y005384D01*
X005001Y005358D01*
X005042Y005329D01*
X005081Y005297D01*
X005117Y005262D01*
X005149Y005224D01*
X005179Y005184D01*
X005206Y005141D01*
X005229Y005097D01*
X005248Y005051D01*
X005264Y005003D01*
X005276Y004954D01*
X005284Y004905D01*
X005288Y004855D01*
X005288Y004805D01*
X005284Y004755D01*
X005276Y004706D01*
X005264Y004657D01*
X005248Y004609D01*
X005229Y004563D01*
X005206Y004519D01*
X005179Y004476D01*
X005149Y004436D01*
X005117Y004398D01*
X005081Y004363D01*
X005042Y004331D01*
X005001Y004302D01*
X004958Y004276D01*
X004913Y004254D01*
X004867Y004236D01*
X004819Y004221D01*
X004770Y004210D01*
X004721Y004203D01*
X004671Y004200D01*
X004620Y004201D01*
X004571Y004206D01*
X004521Y004215D01*
X004473Y004228D01*
X004426Y004244D01*
X004380Y004265D01*
X004336Y004289D01*
X004294Y004316D01*
X004254Y004346D01*
X004217Y004380D01*
X004183Y004417D01*
X004151Y004456D01*
X004123Y004497D01*
X004098Y004541D01*
X004077Y004586D01*
X004060Y004633D01*
X004046Y004681D01*
X004036Y004730D01*
X004030Y004780D01*
X004028Y004830D01*
X007178Y004437D02*
X007180Y004487D01*
X007186Y004537D01*
X007196Y004586D01*
X007210Y004634D01*
X007227Y004681D01*
X007248Y004726D01*
X007273Y004770D01*
X007301Y004811D01*
X007333Y004850D01*
X007367Y004887D01*
X007404Y004921D01*
X007444Y004951D01*
X007486Y004978D01*
X007530Y005002D01*
X007576Y005023D01*
X007623Y005039D01*
X007671Y005052D01*
X007721Y005061D01*
X007770Y005066D01*
X007821Y005067D01*
X007871Y005064D01*
X007920Y005057D01*
X007969Y005046D01*
X008017Y005031D01*
X008063Y005013D01*
X008108Y004991D01*
X008151Y004965D01*
X008192Y004936D01*
X008231Y004904D01*
X008267Y004869D01*
X008299Y004831D01*
X008329Y004791D01*
X008356Y004748D01*
X008379Y004704D01*
X008398Y004658D01*
X008414Y004610D01*
X008426Y004561D01*
X008434Y004512D01*
X008438Y004462D01*
X008438Y004412D01*
X008434Y004362D01*
X008426Y004313D01*
X008414Y004264D01*
X008398Y004216D01*
X008379Y004170D01*
X008356Y004126D01*
X008329Y004083D01*
X008299Y004043D01*
X008267Y004005D01*
X008231Y003970D01*
X008192Y003938D01*
X008151Y003909D01*
X008108Y003883D01*
X008063Y003861D01*
X008017Y003843D01*
X007969Y003828D01*
X007920Y003817D01*
X007871Y003810D01*
X007821Y003807D01*
X007770Y003808D01*
X007721Y003813D01*
X007671Y003822D01*
X007623Y003835D01*
X007576Y003851D01*
X007530Y003872D01*
X007486Y003896D01*
X007444Y003923D01*
X007404Y003953D01*
X007367Y003987D01*
X007333Y004024D01*
X007301Y004063D01*
X007273Y004104D01*
X007248Y004148D01*
X007227Y004193D01*
X007210Y004240D01*
X007196Y004288D01*
X007186Y004337D01*
X007180Y004387D01*
X007178Y004437D01*
X032772Y004437D02*
X032774Y004487D01*
X032780Y004537D01*
X032790Y004586D01*
X032804Y004634D01*
X032821Y004681D01*
X032842Y004726D01*
X032867Y004770D01*
X032895Y004811D01*
X032927Y004850D01*
X032961Y004887D01*
X032998Y004921D01*
X033038Y004951D01*
X033080Y004978D01*
X033124Y005002D01*
X033170Y005023D01*
X033217Y005039D01*
X033265Y005052D01*
X033315Y005061D01*
X033364Y005066D01*
X033415Y005067D01*
X033465Y005064D01*
X033514Y005057D01*
X033563Y005046D01*
X033611Y005031D01*
X033657Y005013D01*
X033702Y004991D01*
X033745Y004965D01*
X033786Y004936D01*
X033825Y004904D01*
X033861Y004869D01*
X033893Y004831D01*
X033923Y004791D01*
X033950Y004748D01*
X033973Y004704D01*
X033992Y004658D01*
X034008Y004610D01*
X034020Y004561D01*
X034028Y004512D01*
X034032Y004462D01*
X034032Y004412D01*
X034028Y004362D01*
X034020Y004313D01*
X034008Y004264D01*
X033992Y004216D01*
X033973Y004170D01*
X033950Y004126D01*
X033923Y004083D01*
X033893Y004043D01*
X033861Y004005D01*
X033825Y003970D01*
X033786Y003938D01*
X033745Y003909D01*
X033702Y003883D01*
X033657Y003861D01*
X033611Y003843D01*
X033563Y003828D01*
X033514Y003817D01*
X033465Y003810D01*
X033415Y003807D01*
X033364Y003808D01*
X033315Y003813D01*
X033265Y003822D01*
X033217Y003835D01*
X033170Y003851D01*
X033124Y003872D01*
X033080Y003896D01*
X033038Y003923D01*
X032998Y003953D01*
X032961Y003987D01*
X032927Y004024D01*
X032895Y004063D01*
X032867Y004104D01*
X032842Y004148D01*
X032821Y004193D01*
X032804Y004240D01*
X032790Y004288D01*
X032780Y004337D01*
X032774Y004387D01*
X032772Y004437D01*
X039068Y004830D02*
X039070Y004880D01*
X039076Y004930D01*
X039086Y004979D01*
X039100Y005027D01*
X039117Y005074D01*
X039138Y005119D01*
X039163Y005163D01*
X039191Y005204D01*
X039223Y005243D01*
X039257Y005280D01*
X039294Y005314D01*
X039334Y005344D01*
X039376Y005371D01*
X039420Y005395D01*
X039466Y005416D01*
X039513Y005432D01*
X039561Y005445D01*
X039611Y005454D01*
X039660Y005459D01*
X039711Y005460D01*
X039761Y005457D01*
X039810Y005450D01*
X039859Y005439D01*
X039907Y005424D01*
X039953Y005406D01*
X039998Y005384D01*
X040041Y005358D01*
X040082Y005329D01*
X040121Y005297D01*
X040157Y005262D01*
X040189Y005224D01*
X040219Y005184D01*
X040246Y005141D01*
X040269Y005097D01*
X040288Y005051D01*
X040304Y005003D01*
X040316Y004954D01*
X040324Y004905D01*
X040328Y004855D01*
X040328Y004805D01*
X040324Y004755D01*
X040316Y004706D01*
X040304Y004657D01*
X040288Y004609D01*
X040269Y004563D01*
X040246Y004519D01*
X040219Y004476D01*
X040189Y004436D01*
X040157Y004398D01*
X040121Y004363D01*
X040082Y004331D01*
X040041Y004302D01*
X039998Y004276D01*
X039953Y004254D01*
X039907Y004236D01*
X039859Y004221D01*
X039810Y004210D01*
X039761Y004203D01*
X039711Y004200D01*
X039660Y004201D01*
X039611Y004206D01*
X039561Y004215D01*
X039513Y004228D01*
X039466Y004244D01*
X039420Y004265D01*
X039376Y004289D01*
X039334Y004316D01*
X039294Y004346D01*
X039257Y004380D01*
X039223Y004417D01*
X039191Y004456D01*
X039163Y004497D01*
X039138Y004541D01*
X039117Y004586D01*
X039100Y004633D01*
X039086Y004681D01*
X039076Y004730D01*
X039070Y004780D01*
X039068Y004830D01*
X037434Y030484D02*
X037436Y030528D01*
X037442Y030572D01*
X037452Y030615D01*
X037465Y030657D01*
X037483Y030697D01*
X037504Y030736D01*
X037528Y030773D01*
X037555Y030808D01*
X037586Y030840D01*
X037619Y030869D01*
X037655Y030895D01*
X037693Y030917D01*
X037733Y030936D01*
X037774Y030952D01*
X037817Y030964D01*
X037860Y030972D01*
X037904Y030976D01*
X037948Y030976D01*
X037992Y030972D01*
X038035Y030964D01*
X038078Y030952D01*
X038119Y030936D01*
X038159Y030917D01*
X038197Y030895D01*
X038233Y030869D01*
X038266Y030840D01*
X038297Y030808D01*
X038324Y030773D01*
X038348Y030736D01*
X038369Y030697D01*
X038387Y030657D01*
X038400Y030615D01*
X038410Y030572D01*
X038416Y030528D01*
X038418Y030484D01*
X038416Y030440D01*
X038410Y030396D01*
X038400Y030353D01*
X038387Y030311D01*
X038369Y030271D01*
X038348Y030232D01*
X038324Y030195D01*
X038297Y030160D01*
X038266Y030128D01*
X038233Y030099D01*
X038197Y030073D01*
X038159Y030051D01*
X038119Y030032D01*
X038078Y030016D01*
X038035Y030004D01*
X037992Y029996D01*
X037948Y029992D01*
X037904Y029992D01*
X037860Y029996D01*
X037817Y030004D01*
X037774Y030016D01*
X037733Y030032D01*
X037693Y030051D01*
X037655Y030073D01*
X037619Y030099D01*
X037586Y030128D01*
X037555Y030160D01*
X037528Y030195D01*
X037504Y030232D01*
X037483Y030271D01*
X037465Y030311D01*
X037452Y030353D01*
X037442Y030396D01*
X037436Y030440D01*
X037434Y030484D01*
X032772Y031200D02*
X032774Y031250D01*
X032780Y031300D01*
X032790Y031349D01*
X032804Y031397D01*
X032821Y031444D01*
X032842Y031489D01*
X032867Y031533D01*
X032895Y031574D01*
X032927Y031613D01*
X032961Y031650D01*
X032998Y031684D01*
X033038Y031714D01*
X033080Y031741D01*
X033124Y031765D01*
X033170Y031786D01*
X033217Y031802D01*
X033265Y031815D01*
X033315Y031824D01*
X033364Y031829D01*
X033415Y031830D01*
X033465Y031827D01*
X033514Y031820D01*
X033563Y031809D01*
X033611Y031794D01*
X033657Y031776D01*
X033702Y031754D01*
X033745Y031728D01*
X033786Y031699D01*
X033825Y031667D01*
X033861Y031632D01*
X033893Y031594D01*
X033923Y031554D01*
X033950Y031511D01*
X033973Y031467D01*
X033992Y031421D01*
X034008Y031373D01*
X034020Y031324D01*
X034028Y031275D01*
X034032Y031225D01*
X034032Y031175D01*
X034028Y031125D01*
X034020Y031076D01*
X034008Y031027D01*
X033992Y030979D01*
X033973Y030933D01*
X033950Y030889D01*
X033923Y030846D01*
X033893Y030806D01*
X033861Y030768D01*
X033825Y030733D01*
X033786Y030701D01*
X033745Y030672D01*
X033702Y030646D01*
X033657Y030624D01*
X033611Y030606D01*
X033563Y030591D01*
X033514Y030580D01*
X033465Y030573D01*
X033415Y030570D01*
X033364Y030571D01*
X033315Y030576D01*
X033265Y030585D01*
X033217Y030598D01*
X033170Y030614D01*
X033124Y030635D01*
X033080Y030659D01*
X033038Y030686D01*
X032998Y030716D01*
X032961Y030750D01*
X032927Y030787D01*
X032895Y030826D01*
X032867Y030867D01*
X032842Y030911D01*
X032821Y030956D01*
X032804Y031003D01*
X032790Y031051D01*
X032780Y031100D01*
X032774Y031150D01*
X032772Y031200D01*
X041824Y031208D02*
X041826Y031258D01*
X041832Y031308D01*
X041842Y031357D01*
X041856Y031405D01*
X041873Y031452D01*
X041894Y031497D01*
X041919Y031541D01*
X041947Y031582D01*
X041979Y031621D01*
X042013Y031658D01*
X042050Y031692D01*
X042090Y031722D01*
X042132Y031749D01*
X042176Y031773D01*
X042222Y031794D01*
X042269Y031810D01*
X042317Y031823D01*
X042367Y031832D01*
X042416Y031837D01*
X042467Y031838D01*
X042517Y031835D01*
X042566Y031828D01*
X042615Y031817D01*
X042663Y031802D01*
X042709Y031784D01*
X042754Y031762D01*
X042797Y031736D01*
X042838Y031707D01*
X042877Y031675D01*
X042913Y031640D01*
X042945Y031602D01*
X042975Y031562D01*
X043002Y031519D01*
X043025Y031475D01*
X043044Y031429D01*
X043060Y031381D01*
X043072Y031332D01*
X043080Y031283D01*
X043084Y031233D01*
X043084Y031183D01*
X043080Y031133D01*
X043072Y031084D01*
X043060Y031035D01*
X043044Y030987D01*
X043025Y030941D01*
X043002Y030897D01*
X042975Y030854D01*
X042945Y030814D01*
X042913Y030776D01*
X042877Y030741D01*
X042838Y030709D01*
X042797Y030680D01*
X042754Y030654D01*
X042709Y030632D01*
X042663Y030614D01*
X042615Y030599D01*
X042566Y030588D01*
X042517Y030581D01*
X042467Y030578D01*
X042416Y030579D01*
X042367Y030584D01*
X042317Y030593D01*
X042269Y030606D01*
X042222Y030622D01*
X042176Y030643D01*
X042132Y030667D01*
X042090Y030694D01*
X042050Y030724D01*
X042013Y030758D01*
X041979Y030795D01*
X041947Y030834D01*
X041919Y030875D01*
X041894Y030919D01*
X041873Y030964D01*
X041856Y031011D01*
X041842Y031059D01*
X041832Y031108D01*
X041826Y031158D01*
X041824Y031208D01*
X010328Y031208D02*
X010330Y031258D01*
X010336Y031308D01*
X010346Y031357D01*
X010360Y031405D01*
X010377Y031452D01*
X010398Y031497D01*
X010423Y031541D01*
X010451Y031582D01*
X010483Y031621D01*
X010517Y031658D01*
X010554Y031692D01*
X010594Y031722D01*
X010636Y031749D01*
X010680Y031773D01*
X010726Y031794D01*
X010773Y031810D01*
X010821Y031823D01*
X010871Y031832D01*
X010920Y031837D01*
X010971Y031838D01*
X011021Y031835D01*
X011070Y031828D01*
X011119Y031817D01*
X011167Y031802D01*
X011213Y031784D01*
X011258Y031762D01*
X011301Y031736D01*
X011342Y031707D01*
X011381Y031675D01*
X011417Y031640D01*
X011449Y031602D01*
X011479Y031562D01*
X011506Y031519D01*
X011529Y031475D01*
X011548Y031429D01*
X011564Y031381D01*
X011576Y031332D01*
X011584Y031283D01*
X011588Y031233D01*
X011588Y031183D01*
X011584Y031133D01*
X011576Y031084D01*
X011564Y031035D01*
X011548Y030987D01*
X011529Y030941D01*
X011506Y030897D01*
X011479Y030854D01*
X011449Y030814D01*
X011417Y030776D01*
X011381Y030741D01*
X011342Y030709D01*
X011301Y030680D01*
X011258Y030654D01*
X011213Y030632D01*
X011167Y030614D01*
X011119Y030599D01*
X011070Y030588D01*
X011021Y030581D01*
X010971Y030578D01*
X010920Y030579D01*
X010871Y030584D01*
X010821Y030593D01*
X010773Y030606D01*
X010726Y030622D01*
X010680Y030643D01*
X010636Y030667D01*
X010594Y030694D01*
X010554Y030724D01*
X010517Y030758D01*
X010483Y030795D01*
X010451Y030834D01*
X010423Y030875D01*
X010398Y030919D01*
X010377Y030964D01*
X010360Y031011D01*
X010346Y031059D01*
X010336Y031108D01*
X010330Y031158D01*
X010328Y031208D01*
X007182Y031200D02*
X007184Y031250D01*
X007190Y031300D01*
X007200Y031349D01*
X007214Y031397D01*
X007231Y031444D01*
X007252Y031489D01*
X007277Y031533D01*
X007305Y031574D01*
X007337Y031613D01*
X007371Y031650D01*
X007408Y031684D01*
X007448Y031714D01*
X007490Y031741D01*
X007534Y031765D01*
X007580Y031786D01*
X007627Y031802D01*
X007675Y031815D01*
X007725Y031824D01*
X007774Y031829D01*
X007825Y031830D01*
X007875Y031827D01*
X007924Y031820D01*
X007973Y031809D01*
X008021Y031794D01*
X008067Y031776D01*
X008112Y031754D01*
X008155Y031728D01*
X008196Y031699D01*
X008235Y031667D01*
X008271Y031632D01*
X008303Y031594D01*
X008333Y031554D01*
X008360Y031511D01*
X008383Y031467D01*
X008402Y031421D01*
X008418Y031373D01*
X008430Y031324D01*
X008438Y031275D01*
X008442Y031225D01*
X008442Y031175D01*
X008438Y031125D01*
X008430Y031076D01*
X008418Y031027D01*
X008402Y030979D01*
X008383Y030933D01*
X008360Y030889D01*
X008333Y030846D01*
X008303Y030806D01*
X008271Y030768D01*
X008235Y030733D01*
X008196Y030701D01*
X008155Y030672D01*
X008112Y030646D01*
X008067Y030624D01*
X008021Y030606D01*
X007973Y030591D01*
X007924Y030580D01*
X007875Y030573D01*
X007825Y030570D01*
X007774Y030571D01*
X007725Y030576D01*
X007675Y030585D01*
X007627Y030598D01*
X007580Y030614D01*
X007534Y030635D01*
X007490Y030659D01*
X007448Y030686D01*
X007408Y030716D01*
X007371Y030750D01*
X007337Y030787D01*
X007305Y030826D01*
X007277Y030867D01*
X007252Y030911D01*
X007231Y030956D01*
X007214Y031003D01*
X007200Y031051D01*
X007190Y031100D01*
X007184Y031150D01*
X007182Y031200D01*
D11*
X003084Y032783D02*
X003084Y002862D01*
X048359Y002862D01*
X048359Y032783D01*
X003084Y032783D01*
X033132Y025804D02*
X033134Y025816D01*
X033139Y025826D01*
X033148Y025835D01*
X033158Y025840D01*
X033170Y025842D01*
X033182Y025840D01*
X033192Y025835D01*
X033201Y025826D01*
X033206Y025816D01*
X033208Y025804D01*
X033206Y025792D01*
X033201Y025782D01*
X033192Y025773D01*
X033182Y025768D01*
X033170Y025766D01*
X033158Y025768D01*
X033148Y025773D01*
X033139Y025782D01*
X033134Y025792D01*
X033132Y025804D01*
D12*
X038926Y030983D02*
X038926Y032075D01*
X038562Y032075D02*
X039290Y032075D01*
X039649Y031893D02*
X039649Y031165D01*
X039831Y030983D01*
X040195Y030983D01*
X040377Y031165D01*
X040377Y031893D02*
X040195Y032075D01*
X039831Y032075D01*
X039649Y031893D01*
D13*
X039692Y025186D02*
X039585Y025079D01*
X039585Y024652D01*
X039692Y024545D01*
X039905Y024545D01*
X040012Y024652D01*
X040229Y024866D02*
X040656Y024866D01*
X040012Y025079D02*
X039905Y025186D01*
X039692Y025186D01*
X039367Y025186D02*
X038940Y025186D01*
X039154Y025186D02*
X039154Y024545D01*
X038097Y024866D02*
X037670Y024866D01*
X037884Y025079D02*
X037884Y024652D01*
X037453Y024652D02*
X037346Y024545D01*
X037133Y024545D01*
X037026Y024652D01*
X037026Y025079D01*
X037133Y025186D01*
X037346Y025186D01*
X037453Y025079D01*
X036808Y025186D02*
X036381Y025186D01*
X036595Y025186D02*
X036595Y024545D01*
X028481Y026143D02*
X028231Y025893D01*
X027731Y025893D01*
X027481Y026143D01*
X027231Y025893D01*
X026731Y025893D01*
X026481Y026143D01*
X026481Y026643D01*
X026731Y026893D01*
X027231Y026893D01*
X027481Y026643D01*
X027731Y026893D01*
X028231Y026893D01*
X028481Y026643D01*
X028481Y026143D01*
X027481Y026143D02*
X027481Y026643D01*
X026481Y026643D02*
X026231Y026893D01*
X025731Y026893D01*
X025481Y026643D01*
X025231Y026893D01*
X024731Y026893D01*
X024481Y026643D01*
X024231Y026893D01*
X023731Y026893D01*
X023481Y026643D01*
X023481Y026143D01*
X023731Y025893D01*
X024231Y025893D01*
X024481Y026143D01*
X024481Y026643D01*
X024481Y026143D02*
X024731Y025893D01*
X025231Y025893D01*
X025481Y026143D01*
X025481Y026643D01*
X025481Y026143D02*
X025731Y025893D01*
X026231Y025893D01*
X026481Y026143D01*
X023481Y026143D02*
X023231Y025893D01*
X022731Y025893D01*
X022481Y026143D01*
X022231Y025893D01*
X021731Y025893D01*
X021481Y026143D01*
X021231Y025893D01*
X020731Y025893D01*
X020481Y026143D01*
X020481Y026643D01*
X020731Y026893D01*
X021231Y026893D01*
X021481Y026643D01*
X021731Y026893D01*
X022231Y026893D01*
X022481Y026643D01*
X022731Y026893D01*
X023231Y026893D01*
X023481Y026643D01*
X022481Y026643D02*
X022481Y026143D01*
X021481Y026143D02*
X021481Y026643D01*
X019881Y026643D02*
X019881Y026143D01*
X019631Y025893D01*
X019131Y025893D01*
X018881Y026143D01*
X018631Y025893D01*
X018131Y025893D01*
X017881Y026143D01*
X017881Y026643D01*
X018131Y026893D01*
X018631Y026893D01*
X018881Y026643D01*
X019131Y026893D01*
X019631Y026893D01*
X019881Y026643D01*
X018881Y026643D02*
X018881Y026143D01*
X017881Y026143D02*
X017631Y025893D01*
X017131Y025893D01*
X016881Y026143D01*
X016631Y025893D01*
X016131Y025893D01*
X015881Y026143D01*
X015631Y025893D01*
X015131Y025893D01*
X014881Y026143D01*
X014881Y026643D01*
X015131Y026893D01*
X015631Y026893D01*
X015881Y026643D01*
X016131Y026893D01*
X016631Y026893D01*
X016881Y026643D01*
X017131Y026893D01*
X017631Y026893D01*
X017881Y026643D01*
X016881Y026643D02*
X016881Y026143D01*
X015881Y026143D02*
X015881Y026643D01*
X014881Y026643D02*
X014631Y026893D01*
X014131Y026893D01*
X013881Y026643D01*
X013631Y026893D01*
X013131Y026893D01*
X012881Y026643D01*
X012631Y026893D01*
X012131Y026893D01*
X011881Y026643D01*
X011881Y026143D01*
X012131Y025893D01*
X012631Y025893D01*
X012881Y026143D01*
X012881Y026643D01*
X012881Y026143D02*
X013131Y025893D01*
X013631Y025893D01*
X013881Y026143D01*
X013881Y026643D01*
X013881Y026143D02*
X014131Y025893D01*
X014631Y025893D01*
X014881Y026143D01*
X011881Y026143D02*
X011631Y025893D01*
X011131Y025893D01*
X010881Y026143D01*
X010631Y025893D01*
X010131Y025893D01*
X009881Y026143D01*
X009881Y026643D01*
X010131Y026893D01*
X010631Y026893D01*
X010881Y026643D01*
X011131Y026893D01*
X011631Y026893D01*
X011881Y026643D01*
X010881Y026643D02*
X010881Y026143D01*
X008308Y026340D02*
X008058Y026090D01*
X008308Y025840D01*
X008308Y025340D01*
X008058Y025090D01*
X008308Y024840D01*
X008308Y024340D01*
X008058Y024090D01*
X008308Y023840D01*
X008308Y023340D01*
X008058Y023090D01*
X008308Y022840D01*
X008308Y022340D01*
X008058Y022090D01*
X008308Y021840D01*
X008308Y021340D01*
X008058Y021090D01*
X008308Y020840D01*
X008308Y020340D01*
X008058Y020090D01*
X008308Y019840D01*
X008308Y019340D01*
X008058Y019090D01*
X008308Y018840D01*
X008308Y018340D01*
X008058Y018090D01*
X008308Y017840D01*
X008308Y017340D01*
X008058Y017090D01*
X008308Y016840D01*
X008308Y016340D01*
X008058Y016090D01*
X008308Y015840D01*
X008308Y015340D01*
X008058Y015090D01*
X008308Y014840D01*
X008308Y014340D01*
X008058Y014090D01*
X008308Y013840D01*
X008308Y013340D01*
X008058Y013090D01*
X008308Y012840D01*
X008308Y012340D01*
X008058Y012090D01*
X008308Y011840D01*
X008308Y011340D01*
X008058Y011090D01*
X008308Y010840D01*
X008308Y010340D01*
X008058Y010090D01*
X008308Y009840D01*
X008308Y009340D01*
X008058Y009090D01*
X008308Y008840D01*
X008308Y008340D01*
X008058Y008090D01*
X008308Y007840D01*
X008308Y007340D01*
X008058Y007090D01*
X007558Y007090D01*
X007308Y007340D01*
X007308Y007840D01*
X007558Y008090D01*
X007308Y008340D01*
X007308Y008840D01*
X007558Y009090D01*
X008058Y009090D01*
X007558Y009090D02*
X007308Y009340D01*
X007308Y009840D01*
X007558Y010090D01*
X007308Y010340D01*
X007308Y010840D01*
X007558Y011090D01*
X007308Y011340D01*
X007308Y011840D01*
X007558Y012090D01*
X008058Y012090D01*
X007558Y012090D02*
X007308Y012340D01*
X007308Y012840D01*
X007558Y013090D01*
X007308Y013340D01*
X007308Y013840D01*
X007558Y014090D01*
X007308Y014340D01*
X007308Y014840D01*
X007558Y015090D01*
X008058Y015090D01*
X007558Y015090D02*
X007308Y015340D01*
X007308Y015840D01*
X007558Y016090D01*
X007308Y016340D01*
X007308Y016840D01*
X007558Y017090D01*
X007308Y017340D01*
X007308Y017840D01*
X007558Y018090D01*
X008058Y018090D01*
X007558Y018090D02*
X007308Y018340D01*
X007308Y018840D01*
X007558Y019090D01*
X007308Y019340D01*
X007308Y019840D01*
X007558Y020090D01*
X007308Y020340D01*
X007308Y020840D01*
X007558Y021090D01*
X008058Y021090D01*
X007558Y021090D02*
X007308Y021340D01*
X007308Y021840D01*
X007558Y022090D01*
X007308Y022340D01*
X007308Y022840D01*
X007558Y023090D01*
X007308Y023340D01*
X007308Y023840D01*
X007558Y024090D01*
X008058Y024090D01*
X007558Y024090D02*
X007308Y024340D01*
X007308Y024840D01*
X007558Y025090D01*
X007308Y025340D01*
X007308Y025840D01*
X007558Y026090D01*
X007308Y026340D01*
X007308Y026840D01*
X007558Y027090D01*
X008058Y027090D01*
X008308Y026840D01*
X008308Y026340D01*
X008058Y026090D02*
X007558Y026090D01*
X007558Y025090D02*
X008058Y025090D01*
X008058Y023090D02*
X007558Y023090D01*
X006433Y022476D02*
X006433Y021942D01*
X006327Y021836D01*
X006220Y021836D01*
X006113Y022049D02*
X006433Y022049D01*
X006113Y022049D02*
X006006Y022156D01*
X006006Y022476D01*
X005789Y022369D02*
X005789Y022049D01*
X005469Y022049D01*
X005362Y022156D01*
X005469Y022263D01*
X005789Y022263D01*
X005789Y022369D02*
X005682Y022476D01*
X005469Y022476D01*
X005039Y022690D02*
X005039Y022049D01*
X004932Y022049D02*
X005146Y022049D01*
X005128Y021812D02*
X005128Y021706D01*
X005128Y021492D02*
X005128Y021065D01*
X005022Y021065D02*
X005235Y021065D01*
X005451Y021172D02*
X005558Y021065D01*
X005878Y021065D01*
X005878Y020958D02*
X005878Y021492D01*
X005558Y021492D01*
X005451Y021385D01*
X005451Y021172D01*
X005665Y020851D02*
X005771Y020851D01*
X005878Y020958D01*
X005128Y021492D02*
X005022Y021492D01*
X004805Y021492D02*
X004698Y021492D01*
X004484Y021278D01*
X004484Y021065D02*
X004484Y021492D01*
X004267Y021706D02*
X003840Y021706D01*
X004053Y021706D02*
X004053Y021065D01*
X004070Y022049D02*
X003857Y022263D01*
X003963Y022263D02*
X003643Y022263D01*
X003643Y022049D02*
X003643Y022690D01*
X003963Y022690D01*
X004070Y022583D01*
X004070Y022369D01*
X003963Y022263D01*
X004288Y022263D02*
X004715Y022263D01*
X004715Y022369D01*
X004608Y022476D01*
X004394Y022476D01*
X004288Y022369D01*
X004288Y022156D01*
X004394Y022049D01*
X004608Y022049D01*
X004932Y022690D02*
X005039Y022690D01*
X007558Y022090D02*
X008058Y022090D01*
X008058Y020090D02*
X007558Y020090D01*
X007558Y019090D02*
X008058Y019090D01*
X008058Y017090D02*
X007558Y017090D01*
X007558Y016090D02*
X008058Y016090D01*
X005332Y016747D02*
X004905Y016747D01*
X004687Y016640D02*
X004474Y016427D01*
X004260Y016640D01*
X004260Y017067D01*
X004687Y017067D02*
X004687Y016640D01*
X007558Y014090D02*
X008058Y014090D01*
X008058Y013090D02*
X007558Y013090D01*
X005362Y011814D02*
X004935Y011814D01*
X004717Y011707D02*
X004717Y012134D01*
X004717Y011707D02*
X004504Y011494D01*
X004290Y011707D01*
X004290Y012134D01*
X005148Y012028D02*
X005148Y011601D01*
X007558Y011090D02*
X008058Y011090D01*
X008058Y010090D02*
X007558Y010090D01*
X007558Y008090D02*
X008058Y008090D01*
X013481Y007643D02*
X013481Y007143D01*
X013731Y006893D01*
X014231Y006893D01*
X014481Y007143D01*
X014731Y006893D01*
X015231Y006893D01*
X015481Y007143D01*
X015481Y007643D01*
X015231Y007893D01*
X014731Y007893D01*
X014481Y007643D01*
X014481Y007143D01*
X014481Y007643D02*
X014231Y007893D01*
X013731Y007893D01*
X013481Y007643D01*
X015481Y007643D02*
X015731Y007893D01*
X016231Y007893D01*
X016481Y007643D01*
X016731Y007893D01*
X017231Y007893D01*
X017481Y007643D01*
X017731Y007893D01*
X018231Y007893D01*
X018481Y007643D01*
X018481Y007143D01*
X018231Y006893D01*
X017731Y006893D01*
X017481Y007143D01*
X017231Y006893D01*
X016731Y006893D01*
X016481Y007143D01*
X016231Y006893D01*
X015731Y006893D01*
X015481Y007143D01*
X016481Y007143D02*
X016481Y007643D01*
X017481Y007643D02*
X017481Y007143D01*
X018481Y007143D02*
X018731Y006893D01*
X019231Y006893D01*
X019481Y007143D01*
X019731Y006893D01*
X020231Y006893D01*
X020481Y007143D01*
X020731Y006893D01*
X021231Y006893D01*
X021481Y007143D01*
X021481Y007643D01*
X021231Y007893D01*
X020731Y007893D01*
X020481Y007643D01*
X020481Y007143D01*
X020481Y007643D02*
X020231Y007893D01*
X019731Y007893D01*
X019481Y007643D01*
X019481Y007143D01*
X019481Y007643D02*
X019231Y007893D01*
X018731Y007893D01*
X018481Y007643D01*
X022481Y007643D02*
X022481Y007143D01*
X022731Y006893D01*
X023231Y006893D01*
X023481Y007143D01*
X023731Y006893D01*
X024231Y006893D01*
X024481Y007143D01*
X024481Y007643D01*
X024231Y007893D01*
X023731Y007893D01*
X023481Y007643D01*
X023481Y007143D01*
X023481Y007643D02*
X023231Y007893D01*
X022731Y007893D01*
X022481Y007643D01*
X024481Y007643D02*
X024731Y007893D01*
X025231Y007893D01*
X025481Y007643D01*
X025731Y007893D01*
X026231Y007893D01*
X026481Y007643D01*
X026731Y007893D01*
X027231Y007893D01*
X027481Y007643D01*
X027731Y007893D01*
X028231Y007893D01*
X028481Y007643D01*
X028481Y007143D01*
X028231Y006893D01*
X027731Y006893D01*
X027481Y007143D01*
X027231Y006893D01*
X026731Y006893D01*
X026481Y007143D01*
X026231Y006893D01*
X025731Y006893D01*
X025481Y007143D01*
X025231Y006893D01*
X024731Y006893D01*
X024481Y007143D01*
X025481Y007143D02*
X025481Y007643D01*
X026481Y007643D02*
X026481Y007143D01*
X027481Y007143D02*
X027481Y007643D01*
X027143Y004383D02*
X027143Y003742D01*
X026822Y003742D01*
X026716Y003849D01*
X026716Y004062D01*
X026822Y004169D01*
X027143Y004169D01*
X026499Y003742D02*
X026286Y003742D01*
X026393Y003742D02*
X026393Y004383D01*
X026286Y004383D01*
X025962Y004169D02*
X026068Y004062D01*
X026068Y003956D01*
X025641Y003956D01*
X025641Y004062D02*
X025641Y003849D01*
X025748Y003742D01*
X025962Y003742D01*
X025962Y004169D02*
X025748Y004169D01*
X025641Y004062D01*
X025318Y004169D02*
X025318Y003742D01*
X025212Y003742D02*
X025425Y003742D01*
X024994Y003742D02*
X024994Y004062D01*
X024887Y004169D01*
X024674Y004169D01*
X024567Y004062D01*
X024350Y003956D02*
X024350Y003849D01*
X024243Y003742D01*
X024029Y003742D01*
X023923Y003849D01*
X024029Y004062D02*
X024243Y004062D01*
X024350Y003956D01*
X024567Y003742D02*
X024567Y004383D01*
X024350Y004276D02*
X024243Y004383D01*
X024029Y004383D01*
X023923Y004276D01*
X023923Y004169D01*
X024029Y004062D01*
X023061Y004169D02*
X022954Y004169D01*
X022741Y003956D01*
X022741Y004169D02*
X022741Y003742D01*
X022523Y003956D02*
X022096Y003956D01*
X022096Y004062D02*
X022096Y003849D01*
X022203Y003742D01*
X022417Y003742D01*
X022523Y003956D02*
X022523Y004062D01*
X022417Y004169D01*
X022203Y004169D01*
X022096Y004062D01*
X021880Y004169D02*
X021667Y004169D01*
X021773Y004276D02*
X021773Y003849D01*
X021880Y003742D01*
X021449Y003849D02*
X021342Y003956D01*
X021129Y003956D01*
X021022Y004062D01*
X021129Y004169D01*
X021449Y004169D01*
X021449Y003849D02*
X021342Y003742D01*
X021022Y003742D01*
X020805Y003742D02*
X020484Y003742D01*
X020378Y003849D01*
X020484Y003956D01*
X020805Y003956D01*
X020805Y004062D02*
X020805Y003742D01*
X020805Y004062D02*
X020698Y004169D01*
X020484Y004169D01*
X020160Y004383D02*
X020160Y003742D01*
X019733Y003742D02*
X019733Y004383D01*
X019947Y004169D01*
X020160Y004383D01*
X018871Y004169D02*
X018871Y003849D01*
X018764Y003742D01*
X018657Y003849D01*
X018551Y003742D01*
X018444Y003849D01*
X018444Y004169D01*
X018226Y004062D02*
X018120Y004169D01*
X017906Y004169D01*
X017799Y004062D01*
X017799Y003849D01*
X017906Y003742D01*
X018120Y003742D01*
X018226Y003849D01*
X018226Y004062D01*
X017583Y003742D02*
X017370Y003742D01*
X017476Y003742D02*
X017476Y004383D01*
X017370Y004383D01*
X017153Y004383D02*
X017047Y004276D01*
X017047Y003742D01*
X016940Y004062D02*
X017153Y004062D01*
X016722Y004062D02*
X016722Y003956D01*
X016295Y003956D01*
X016295Y004062D02*
X016295Y003849D01*
X016402Y003742D01*
X016616Y003742D01*
X016722Y004062D02*
X016616Y004169D01*
X016402Y004169D01*
X016295Y004062D01*
X016078Y004062D02*
X015971Y003956D01*
X015651Y003956D01*
X015864Y003956D02*
X016078Y003742D01*
X016078Y004062D02*
X016078Y004276D01*
X015971Y004383D01*
X015651Y004383D01*
X015651Y003742D01*
X025212Y004169D02*
X025318Y004169D01*
X025318Y004383D02*
X025318Y004489D01*
D14*
X025360Y028586D02*
X025572Y028798D01*
X025572Y029221D01*
X025149Y029221D01*
X025572Y029644D02*
X025360Y029855D01*
X024937Y029855D01*
X024726Y029644D01*
X024726Y028798D01*
X024937Y028586D01*
X025360Y028586D01*
X025995Y028586D02*
X026418Y028586D01*
X026206Y028586D02*
X026206Y029855D01*
X025995Y029855D02*
X026418Y029855D01*
X026841Y029855D02*
X026841Y028586D01*
X027687Y028586D01*
X028109Y028798D02*
X028321Y028586D01*
X028744Y028586D01*
X028955Y028798D01*
X028955Y029009D01*
X028744Y029221D01*
X028321Y029221D01*
X028109Y029432D01*
X028109Y029644D01*
X028321Y029855D01*
X028744Y029855D01*
X028955Y029644D01*
X027687Y029855D02*
X026841Y029855D01*
X026862Y030476D02*
X026228Y030476D01*
X026228Y031745D01*
X026862Y031745D01*
X027074Y031533D01*
X027074Y031322D01*
X026862Y031110D01*
X026228Y031110D01*
X025805Y031110D02*
X024959Y031110D01*
X024959Y031322D02*
X025382Y031745D01*
X025805Y031322D01*
X025805Y030476D01*
X024959Y030476D02*
X024959Y031322D01*
X024536Y031745D02*
X024536Y030476D01*
X023690Y031745D01*
X023690Y030476D01*
X023267Y030476D02*
X022421Y030476D01*
X022421Y031745D01*
X023267Y031745D01*
X022844Y031110D02*
X022421Y031110D01*
X022188Y029855D02*
X022188Y028586D01*
X023034Y028586D01*
X023457Y028798D02*
X023669Y028586D01*
X024092Y028586D01*
X024303Y028798D01*
X024303Y029644D01*
X024092Y029855D01*
X023669Y029855D01*
X023457Y029644D01*
X023457Y028798D01*
X021766Y028798D02*
X021554Y028586D01*
X021131Y028586D01*
X020920Y028798D01*
X020920Y029644D01*
X021131Y029855D01*
X021554Y029855D01*
X021766Y029644D01*
X021766Y028798D01*
X020497Y028586D02*
X020497Y029855D01*
X020730Y030476D02*
X020730Y031745D01*
X019884Y031745D02*
X020730Y030476D01*
X019884Y030476D02*
X019884Y031745D01*
X019461Y031745D02*
X019038Y031745D01*
X019249Y031745D02*
X019249Y030476D01*
X019038Y030476D02*
X019461Y030476D01*
X019651Y029855D02*
X020497Y028586D01*
X019651Y028586D02*
X019651Y029855D01*
X019228Y029855D02*
X019228Y028586D01*
X019228Y029221D02*
X018382Y029221D01*
X017959Y029644D02*
X017748Y029855D01*
X017325Y029855D01*
X017113Y029644D01*
X017113Y028798D01*
X017325Y028586D01*
X017748Y028586D01*
X017959Y028798D01*
X018382Y028586D02*
X018382Y029855D01*
X018403Y030476D02*
X017769Y030476D01*
X017769Y031745D01*
X018403Y031745D01*
X018615Y031533D01*
X018615Y030687D01*
X018403Y030476D01*
X017346Y030476D02*
X017346Y031322D01*
X016923Y031745D01*
X016500Y031322D01*
X016500Y030476D01*
X016077Y030476D02*
X015231Y030476D01*
X015231Y031745D01*
X014808Y031322D02*
X014808Y030476D01*
X014808Y031110D02*
X013962Y031110D01*
X013962Y031322D02*
X014385Y031745D01*
X014808Y031322D01*
X013962Y031322D02*
X013962Y030476D01*
X013328Y030899D02*
X012694Y030899D01*
X012694Y030476D02*
X012694Y031745D01*
X013328Y031745D01*
X013540Y031533D01*
X013540Y031110D01*
X013328Y030899D01*
X014576Y029855D02*
X015422Y029855D01*
X015844Y029855D02*
X015844Y028586D01*
X016690Y028586D01*
X016267Y029221D02*
X015844Y029221D01*
X015844Y029855D02*
X016690Y029855D01*
X016500Y031110D02*
X017346Y031110D01*
X014999Y029855D02*
X014999Y028586D01*
X026841Y029221D02*
X027264Y029221D01*
X027496Y030476D02*
X028342Y030476D01*
X028765Y030476D02*
X029188Y030476D01*
X028977Y030476D02*
X028977Y031745D01*
X029188Y031745D02*
X028765Y031745D01*
X029611Y031745D02*
X030457Y030476D01*
X030457Y031745D01*
X030880Y031533D02*
X030880Y030687D01*
X031091Y030476D01*
X031514Y030476D01*
X031726Y030687D01*
X031726Y031110D01*
X031303Y031110D01*
X031726Y031533D02*
X031514Y031745D01*
X031091Y031745D01*
X030880Y031533D01*
X029611Y031745D02*
X029611Y030476D01*
X027496Y030476D02*
X027496Y031745D01*
X026862Y031110D02*
X027074Y030899D01*
X027074Y030687D01*
X026862Y030476D01*
D15*
X042178Y029151D02*
X042178Y028730D01*
X042178Y028941D02*
X042809Y028941D01*
X042809Y028506D02*
X042178Y028506D01*
X042178Y028086D02*
X042809Y028506D01*
X042809Y028086D02*
X042178Y028086D01*
X042178Y027862D02*
X042178Y027441D01*
X042809Y027441D01*
X042809Y027862D01*
X042493Y027652D02*
X042493Y027441D01*
X042185Y023450D02*
X042815Y023450D01*
X042185Y023029D01*
X042815Y023029D01*
X042815Y022805D02*
X042185Y022805D01*
X042185Y022385D02*
X042815Y022385D01*
X042605Y022595D01*
X042815Y022805D01*
X042710Y022160D02*
X042290Y022160D01*
X042185Y022055D01*
X042185Y021740D01*
X042815Y021740D01*
X042815Y022055D01*
X042710Y022160D01*
X042508Y017716D02*
X042613Y017611D01*
X042613Y017295D01*
X042824Y017295D02*
X042193Y017295D01*
X042193Y017611D01*
X042298Y017716D01*
X042508Y017716D01*
X042718Y017071D02*
X042193Y017071D01*
X042718Y017071D02*
X042824Y016966D01*
X042824Y016756D01*
X042718Y016651D01*
X042193Y016651D01*
X042307Y012504D02*
X042202Y012398D01*
X042202Y012188D01*
X042307Y012083D01*
X042728Y012083D01*
X042833Y012188D01*
X042833Y012398D01*
X042728Y012504D01*
X042728Y011859D02*
X042833Y011754D01*
X042833Y011544D01*
X042728Y011439D01*
X042518Y011544D02*
X042518Y011754D01*
X042623Y011859D01*
X042728Y011859D01*
X042518Y011544D02*
X042413Y011439D01*
X042307Y011439D01*
X042202Y011544D01*
X042202Y011754D01*
X042307Y011859D01*
X042202Y011214D02*
X042202Y010794D01*
X042833Y010794D01*
X042833Y011214D01*
X042518Y011004D02*
X042518Y010794D01*
X042199Y007694D02*
X042199Y007274D01*
X042199Y007484D02*
X042829Y007484D01*
X042829Y007050D02*
X042829Y006629D01*
X042199Y006629D01*
X042199Y007050D01*
X042514Y006839D02*
X042514Y006629D01*
X042619Y006405D02*
X042514Y006300D01*
X042514Y006090D01*
X042409Y005985D01*
X042304Y005985D01*
X042199Y006090D01*
X042199Y006300D01*
X042304Y006405D01*
X042619Y006405D02*
X042724Y006405D01*
X042829Y006300D01*
X042829Y006090D01*
X042724Y005985D01*
X042829Y005761D02*
X042829Y005340D01*
X042199Y005340D01*
X042199Y005761D01*
X042514Y005550D02*
X042514Y005340D01*
X042514Y005116D02*
X042619Y005011D01*
X042619Y004696D01*
X042619Y004906D02*
X042829Y005116D01*
X042514Y005116D02*
X042304Y005116D01*
X042199Y005011D01*
X042199Y004696D01*
X042829Y004696D01*
X031390Y005212D02*
X031390Y005630D01*
X031251Y005770D01*
X031112Y005630D01*
X031112Y005212D01*
X030833Y005212D02*
X030833Y005770D01*
X030972Y005770D01*
X031112Y005630D01*
X030556Y005630D02*
X030417Y005770D01*
X030138Y005770D01*
X029999Y005630D01*
X029999Y005352D01*
X030138Y005212D01*
X030417Y005212D01*
X030556Y005352D01*
X030556Y005630D01*
X029723Y005770D02*
X029305Y005770D01*
X029165Y005630D01*
X029165Y005352D01*
X029305Y005212D01*
X029723Y005212D01*
X028888Y005212D02*
X028748Y005212D01*
X028748Y005352D01*
X028888Y005352D01*
X028888Y005212D01*
X028472Y005352D02*
X028333Y005491D01*
X028054Y005491D01*
X027915Y005630D01*
X028054Y005770D01*
X028472Y005770D01*
X028472Y005352D02*
X028333Y005212D01*
X027915Y005212D01*
X027638Y005352D02*
X027499Y005491D01*
X027220Y005491D01*
X027081Y005630D01*
X027220Y005770D01*
X027638Y005770D01*
X027638Y005352D02*
X027499Y005212D01*
X027081Y005212D01*
X026804Y005491D02*
X026247Y005491D01*
X026247Y005630D02*
X026386Y005770D01*
X026665Y005770D01*
X026804Y005630D01*
X026804Y005491D01*
X026665Y005212D02*
X026386Y005212D01*
X026247Y005352D01*
X026247Y005630D01*
X025970Y005770D02*
X025831Y005770D01*
X025552Y005491D01*
X025552Y005212D02*
X025552Y005770D01*
X025276Y005630D02*
X025276Y005352D01*
X025136Y005212D01*
X024718Y005212D01*
X024442Y005212D02*
X024024Y005212D01*
X023885Y005352D01*
X023885Y005630D01*
X024024Y005770D01*
X024442Y005770D01*
X024718Y005770D02*
X025136Y005770D01*
X025276Y005630D01*
X024718Y005770D02*
X024718Y004933D01*
X024442Y005212D02*
X024442Y006048D01*
X023608Y005770D02*
X023469Y005770D01*
X023190Y005491D01*
X023190Y005212D02*
X023190Y005770D01*
X022913Y005630D02*
X022774Y005770D01*
X022495Y005770D01*
X022356Y005630D01*
X022356Y005352D01*
X022495Y005212D01*
X022774Y005212D01*
X022913Y005352D01*
X022913Y005630D01*
X022080Y005770D02*
X022080Y005352D01*
X021940Y005212D01*
X021801Y005352D01*
X021662Y005212D01*
X021522Y005352D01*
X021522Y005770D01*
X021245Y005352D02*
X021245Y005212D01*
X021105Y005212D01*
X021105Y005352D01*
X021245Y005352D01*
X020829Y005212D02*
X020829Y005630D01*
X020690Y005770D01*
X020411Y005770D01*
X020272Y005630D01*
X019995Y005770D02*
X019577Y005770D01*
X019438Y005630D01*
X019438Y005352D01*
X019577Y005212D01*
X019995Y005212D01*
X020272Y005212D02*
X020272Y006048D01*
X019161Y005630D02*
X019161Y005491D01*
X018604Y005491D01*
X018604Y005630D02*
X018743Y005770D01*
X019022Y005770D01*
X019161Y005630D01*
X019022Y005212D02*
X018743Y005212D01*
X018604Y005352D01*
X018604Y005630D01*
X018327Y005770D02*
X018048Y005770D01*
X018187Y005909D02*
X018187Y005352D01*
X018327Y005212D01*
X017772Y005212D02*
X017772Y005630D01*
X017632Y005770D01*
X017214Y005770D01*
X017214Y005212D01*
X016937Y005212D02*
X016658Y005212D01*
X016798Y005212D02*
X016798Y005770D01*
X016658Y005770D01*
X016382Y005770D02*
X015964Y005770D01*
X015825Y005630D01*
X015825Y005352D01*
X015964Y005212D01*
X016382Y005212D01*
X016382Y006048D01*
X016798Y006048D02*
X016798Y006188D01*
X015548Y005630D02*
X015548Y005212D01*
X015130Y005212D01*
X014991Y005352D01*
X015130Y005491D01*
X015548Y005491D01*
X015548Y005630D02*
X015409Y005770D01*
X015130Y005770D01*
X014574Y006048D02*
X014574Y005212D01*
X014435Y005212D02*
X014714Y005212D01*
X014159Y005212D02*
X014159Y005630D01*
X014019Y005770D01*
X013741Y005770D01*
X013741Y005491D02*
X014159Y005491D01*
X014159Y005212D02*
X013741Y005212D01*
X013601Y005352D01*
X013741Y005491D01*
X013325Y005630D02*
X013186Y005770D01*
X012767Y005770D01*
X012767Y004933D01*
X012767Y005212D02*
X013186Y005212D01*
X013325Y005352D01*
X013325Y005630D01*
X012490Y005352D02*
X012490Y005212D01*
X012351Y005212D01*
X012351Y005352D01*
X012490Y005352D01*
X012074Y005352D02*
X012074Y005770D01*
X012074Y005352D02*
X011935Y005212D01*
X011796Y005352D01*
X011656Y005212D01*
X011517Y005352D01*
X011517Y005770D01*
X011241Y005770D02*
X011241Y005352D01*
X011101Y005212D01*
X010962Y005352D01*
X010822Y005212D01*
X010683Y005352D01*
X010683Y005770D01*
X010407Y005770D02*
X010407Y005352D01*
X010267Y005212D01*
X010128Y005352D01*
X009989Y005212D01*
X009849Y005352D01*
X009849Y005770D01*
X014435Y006048D02*
X014574Y006048D01*
D16*
X006897Y012730D02*
X006773Y012607D01*
X006526Y012607D01*
X006526Y012854D02*
X006773Y012854D01*
X006897Y012730D01*
X006897Y012975D02*
X006897Y013099D01*
X006897Y013037D02*
X006650Y013037D01*
X006650Y012975D01*
X006526Y013037D02*
X006465Y013037D01*
X006650Y013221D02*
X006650Y013406D01*
X006712Y013468D01*
X006897Y013468D01*
X006897Y013221D02*
X006650Y013221D01*
X006607Y014599D02*
X006854Y014599D01*
X006915Y014661D01*
X006915Y014784D01*
X006854Y014846D01*
X006730Y014846D01*
X006730Y014723D01*
X006607Y014846D02*
X006545Y014784D01*
X006545Y014661D01*
X006607Y014599D01*
X006545Y014967D02*
X006915Y015214D01*
X006545Y015214D01*
X006545Y015336D02*
X006545Y015521D01*
X006607Y015583D01*
X006854Y015583D01*
X006915Y015521D01*
X006915Y015336D01*
X006545Y015336D01*
X006545Y014967D02*
X006915Y014967D01*
X006944Y024003D02*
X006574Y024003D01*
X006944Y024003D02*
X006944Y024250D01*
X006944Y024371D02*
X006698Y024371D01*
X006574Y024494D01*
X006698Y024618D01*
X006944Y024618D01*
X006944Y024739D02*
X006574Y024739D01*
X006698Y024863D01*
X006574Y024986D01*
X006944Y024986D01*
X006944Y025108D02*
X006574Y025108D01*
X006574Y025293D01*
X006636Y025355D01*
X006759Y025355D01*
X006821Y025293D01*
X006821Y025108D01*
X006759Y024618D02*
X006759Y024371D01*
X006759Y026365D02*
X006759Y026488D01*
X006944Y026365D02*
X006574Y026365D01*
X006574Y026612D01*
X006698Y026733D02*
X006574Y026857D01*
X006698Y026980D01*
X006944Y026980D01*
X006944Y027102D02*
X006574Y027102D01*
X006944Y027348D01*
X006574Y027348D01*
X006759Y026980D02*
X006759Y026733D01*
X006698Y026733D02*
X006944Y026733D01*
X006968Y029054D02*
X006907Y029116D01*
X006968Y029054D02*
X007092Y029054D01*
X007153Y029116D01*
X007153Y029239D01*
X007092Y029301D01*
X007030Y029301D01*
X006907Y029239D01*
X006907Y029424D01*
X007153Y029424D01*
X007275Y029424D02*
X007275Y029177D01*
X007398Y029054D01*
X007522Y029177D01*
X007522Y029424D01*
X006785Y029239D02*
X006538Y029239D01*
X006662Y029362D02*
X006662Y029116D01*
X006039Y030909D02*
X006101Y030971D01*
X006101Y031094D01*
X006039Y031156D01*
X005916Y031156D01*
X005916Y031033D01*
X006039Y030909D02*
X005792Y030909D01*
X005730Y030971D01*
X005730Y031094D01*
X005792Y031156D01*
X005730Y031278D02*
X006101Y031524D01*
X005730Y031524D01*
X005730Y031646D02*
X005730Y031831D01*
X005792Y031893D01*
X006039Y031893D01*
X006101Y031831D01*
X006101Y031646D01*
X005730Y031646D01*
X005730Y031278D02*
X006101Y031278D01*
X033627Y027060D02*
X033724Y027157D01*
X033724Y026866D01*
X033627Y026866D02*
X033821Y026866D01*
D17*
X014375Y019529D03*
X010795Y019529D03*
X011675Y015149D03*
X013495Y015149D03*
X010835Y013589D03*
X010475Y012809D03*
X010595Y012169D03*
X012795Y012449D03*
X012815Y012509D03*
X012815Y012529D03*
X012835Y012569D03*
X012835Y012589D03*
X012855Y012629D03*
X012855Y012649D03*
X012875Y012689D03*
X012875Y012709D03*
X013015Y012709D03*
X013035Y012689D03*
X013035Y012669D03*
X013035Y012649D03*
X013055Y012609D03*
X013055Y012589D03*
X013075Y012549D03*
X013075Y012529D03*
X013095Y012489D03*
X013095Y012469D03*
X013275Y012449D03*
X012955Y012929D03*
X012955Y012949D03*
X015215Y012169D03*
X015395Y012329D03*
X016255Y013589D03*
D18*
X015395Y012349D03*
X014735Y012809D03*
X011935Y012169D03*
X011535Y012809D03*
X011695Y015129D03*
X013475Y015129D03*
D19*
X013805Y014209D03*
X013805Y014189D03*
X013805Y014169D03*
X013805Y014149D03*
X013805Y014129D03*
X013805Y014109D03*
X013805Y014089D03*
X013805Y014069D03*
X013805Y014049D03*
X013805Y014029D03*
X013805Y014009D03*
X013805Y013989D03*
X013805Y013969D03*
X013805Y013949D03*
X013805Y013929D03*
X013805Y013909D03*
X013805Y013889D03*
X013805Y013869D03*
X013805Y013849D03*
X013805Y013829D03*
X013805Y013809D03*
X013805Y013789D03*
X013805Y013769D03*
X013805Y013749D03*
X013805Y013729D03*
X013505Y013729D03*
X013505Y013709D03*
X013505Y013749D03*
X013505Y013769D03*
X013505Y013789D03*
X013505Y013849D03*
X013505Y013869D03*
X013505Y013889D03*
X013505Y013909D03*
X013505Y013929D03*
X013025Y013929D03*
X013025Y013949D03*
X013025Y013709D03*
X013025Y013689D03*
X012765Y013669D03*
X012765Y013649D03*
X012305Y013949D03*
X012305Y013969D03*
X012305Y014009D03*
X011465Y014209D03*
X011185Y014209D03*
X010885Y013909D03*
X010405Y013949D03*
X010405Y013969D03*
X010405Y013689D03*
X010405Y013669D03*
X010125Y013809D03*
X010125Y013829D03*
X009645Y013829D03*
X009645Y013809D03*
X009645Y013789D03*
X009645Y013769D03*
X009645Y013749D03*
X009645Y013849D03*
X009645Y013869D03*
X009645Y013889D03*
X009645Y014149D03*
X009645Y014169D03*
X009645Y014189D03*
X009645Y014209D03*
X009345Y013929D03*
X009345Y013909D03*
X009345Y013889D03*
X009345Y013869D03*
X009345Y013849D03*
X009345Y013829D03*
X009345Y013809D03*
X009345Y013789D03*
X009345Y013769D03*
X009345Y013749D03*
X009345Y013729D03*
X009345Y013709D03*
X009645Y013489D03*
X009645Y013469D03*
X009645Y013449D03*
X009645Y013429D03*
X009645Y013409D03*
X009645Y013389D03*
X009645Y013369D03*
X009645Y013349D03*
X009645Y013329D03*
X009645Y013309D03*
X009645Y013289D03*
X009645Y013269D03*
X009645Y013249D03*
X009645Y013229D03*
X009645Y013209D03*
X009645Y013189D03*
X009645Y013169D03*
X009645Y013149D03*
X009645Y013129D03*
X009645Y013109D03*
X009645Y013089D03*
X009645Y013069D03*
X009645Y013049D03*
X009645Y013029D03*
X009645Y013009D03*
X009645Y012989D03*
X009645Y012969D03*
X009645Y012949D03*
X009645Y012929D03*
X009645Y012909D03*
X009645Y012889D03*
X009645Y012649D03*
X009645Y012629D03*
X009645Y012609D03*
X009645Y012589D03*
X009645Y012569D03*
X009645Y012549D03*
X009645Y012529D03*
X009645Y012509D03*
X009645Y012489D03*
X009645Y012469D03*
X009645Y012449D03*
X009645Y012429D03*
X009645Y012409D03*
X009645Y012389D03*
X009645Y012369D03*
X009645Y012349D03*
X009645Y012329D03*
X009645Y012309D03*
X009645Y012289D03*
X009645Y012269D03*
X009645Y012249D03*
X009645Y012229D03*
X009645Y012209D03*
X009645Y012189D03*
X010125Y012189D03*
X010125Y012209D03*
X010125Y012229D03*
X010125Y012249D03*
X010125Y012269D03*
X010125Y012289D03*
X010125Y012309D03*
X010125Y012329D03*
X010125Y012349D03*
X010125Y012369D03*
X010125Y012389D03*
X010125Y012409D03*
X010125Y012429D03*
X010125Y012449D03*
X010125Y012469D03*
X010125Y012489D03*
X010125Y012509D03*
X010125Y012529D03*
X010125Y012549D03*
X010125Y012569D03*
X010125Y012589D03*
X010125Y012609D03*
X010125Y012629D03*
X010405Y012469D03*
X010405Y012449D03*
X010385Y012429D03*
X010385Y012409D03*
X010385Y012389D03*
X010405Y012349D03*
X010865Y012749D03*
X010865Y012769D03*
X011205Y012649D03*
X011205Y012629D03*
X011205Y012609D03*
X011205Y012589D03*
X011205Y012569D03*
X011205Y012549D03*
X011205Y012529D03*
X011205Y012509D03*
X011205Y012489D03*
X011205Y012469D03*
X011205Y012449D03*
X011205Y012429D03*
X011205Y012409D03*
X011205Y012389D03*
X011205Y012369D03*
X011205Y012349D03*
X011205Y012329D03*
X011205Y012309D03*
X011205Y012289D03*
X011205Y012269D03*
X011205Y012249D03*
X011205Y012229D03*
X011205Y012209D03*
X011205Y012189D03*
X011745Y012489D03*
X011745Y012509D03*
X011745Y012529D03*
X011745Y012549D03*
X011745Y012569D03*
X011745Y012589D03*
X011745Y012609D03*
X011745Y012629D03*
X011745Y012649D03*
X012225Y012589D03*
X012225Y012569D03*
X012225Y012549D03*
X012225Y012229D03*
X012225Y012209D03*
X012225Y012189D03*
X012625Y012429D03*
X012625Y012449D03*
X012625Y012469D03*
X012605Y012489D03*
X012605Y012509D03*
X012605Y012529D03*
X012585Y012549D03*
X012585Y012569D03*
X012585Y012589D03*
X012565Y012629D03*
X012565Y012649D03*
X012565Y012669D03*
X012545Y012709D03*
X012545Y012729D03*
X012525Y012769D03*
X012525Y012789D03*
X012505Y012849D03*
X012225Y012889D03*
X012225Y012909D03*
X012225Y012929D03*
X012225Y012949D03*
X012225Y012969D03*
X012225Y012989D03*
X012225Y013009D03*
X012225Y013029D03*
X012225Y013049D03*
X012225Y013069D03*
X012225Y013089D03*
X012225Y013109D03*
X012225Y013129D03*
X012225Y013149D03*
X012225Y013169D03*
X012225Y013189D03*
X012225Y013209D03*
X012225Y013229D03*
X012225Y013249D03*
X012225Y013269D03*
X012945Y012909D03*
X012865Y012669D03*
X012845Y012609D03*
X012825Y012549D03*
X012805Y012489D03*
X012805Y012469D03*
X012785Y012429D03*
X012705Y012189D03*
X013105Y012429D03*
X013105Y012449D03*
X013085Y012509D03*
X013065Y012569D03*
X013045Y012629D03*
X013305Y012569D03*
X013305Y012549D03*
X013305Y012529D03*
X013285Y012509D03*
X013285Y012489D03*
X013285Y012469D03*
X013265Y012429D03*
X013325Y012589D03*
X013325Y012609D03*
X013325Y012629D03*
X013345Y012669D03*
X013345Y012689D03*
X013365Y012749D03*
X013385Y012809D03*
X013385Y012829D03*
X013405Y012889D03*
X013605Y012449D03*
X013605Y012429D03*
X013605Y012409D03*
X013605Y012389D03*
X013605Y012369D03*
X013805Y012169D03*
X014085Y012189D03*
X014085Y012209D03*
X014085Y012229D03*
X014085Y012429D03*
X014085Y012449D03*
X014085Y012469D03*
X014085Y012489D03*
X014085Y012649D03*
X014085Y012669D03*
X014085Y012689D03*
X014085Y012709D03*
X014085Y012729D03*
X014965Y012689D03*
X014965Y012669D03*
X014965Y012649D03*
X014985Y012729D03*
X014965Y012509D03*
X014965Y012489D03*
X014965Y012469D03*
X014965Y012449D03*
X015445Y012669D03*
X015445Y012689D03*
X015585Y013589D03*
X015825Y013709D03*
X015825Y013729D03*
X015825Y013749D03*
X015825Y013889D03*
X015825Y013909D03*
X015825Y013929D03*
X015845Y013989D03*
X015585Y014049D03*
X015145Y013929D03*
X015145Y013909D03*
X015145Y013729D03*
X015145Y013709D03*
X014905Y014209D03*
X014285Y014209D03*
X014285Y014189D03*
X014285Y014169D03*
X014285Y014149D03*
X014285Y014129D03*
X014285Y014109D03*
X014285Y014089D03*
X014285Y014069D03*
X014285Y014049D03*
X014285Y014029D03*
X014285Y014009D03*
X014285Y013989D03*
X014285Y013969D03*
X014285Y013949D03*
X014285Y013929D03*
X014285Y013909D03*
X014285Y013889D03*
X014285Y013869D03*
X014285Y013849D03*
X014285Y013829D03*
X014285Y013809D03*
X014285Y013789D03*
X014285Y013769D03*
X014285Y013749D03*
X014285Y013489D03*
X014285Y013469D03*
X014285Y013449D03*
X014285Y013429D03*
X014005Y013429D03*
X013185Y012189D03*
X011205Y012889D03*
X011205Y012909D03*
X011205Y012929D03*
X011205Y012949D03*
X011185Y013429D03*
X008865Y013689D03*
X008865Y013709D03*
X008865Y013929D03*
X008865Y013949D03*
X016305Y013949D03*
D20*
X016075Y014189D03*
X014475Y012809D03*
X013895Y013569D03*
X013195Y012409D03*
X012715Y012409D03*
X011935Y012209D03*
X010595Y012189D03*
X010635Y012949D03*
X010035Y013569D03*
X010035Y014069D03*
X010635Y014189D03*
X011635Y015209D03*
X013535Y015209D03*
X015235Y012189D03*
D21*
X014995Y012369D03*
X014995Y012389D03*
X014975Y012409D03*
X014975Y012429D03*
X014975Y012709D03*
X014995Y012749D03*
X014995Y012769D03*
X015015Y012789D03*
X015415Y012769D03*
X015435Y012729D03*
X015435Y012709D03*
X015455Y012649D03*
X014415Y012649D03*
X014415Y012629D03*
X014415Y012609D03*
X014415Y012589D03*
X014415Y012569D03*
X014415Y012549D03*
X014415Y012529D03*
X014415Y012509D03*
X014415Y012489D03*
X014415Y012469D03*
X014415Y012449D03*
X014415Y012429D03*
X014415Y012409D03*
X014415Y012389D03*
X014415Y012369D03*
X014415Y012349D03*
X014415Y012329D03*
X014415Y012309D03*
X014415Y012289D03*
X014415Y012269D03*
X014415Y012249D03*
X014415Y012229D03*
X014415Y012209D03*
X014415Y012189D03*
X014075Y012369D03*
X014075Y012389D03*
X014075Y012409D03*
X014075Y012509D03*
X014075Y012749D03*
X014075Y012769D03*
X014415Y012709D03*
X014415Y012689D03*
X014415Y012669D03*
X014415Y012889D03*
X014415Y012909D03*
X014415Y012929D03*
X014415Y012949D03*
X013635Y012489D03*
X013615Y012469D03*
X013615Y012349D03*
X013335Y012649D03*
X013355Y012709D03*
X013355Y012729D03*
X013375Y012769D03*
X013375Y012789D03*
X013395Y012849D03*
X013395Y012869D03*
X013415Y012909D03*
X013415Y012929D03*
X013415Y012949D03*
X012955Y012889D03*
X012955Y012869D03*
X012535Y012749D03*
X012555Y012689D03*
X012575Y012609D03*
X012515Y012809D03*
X012515Y012829D03*
X012495Y012869D03*
X012495Y012889D03*
X012495Y012909D03*
X012475Y012929D03*
X012475Y012949D03*
X012215Y012709D03*
X012215Y012689D03*
X012215Y012669D03*
X012215Y012649D03*
X012215Y012629D03*
X012215Y012609D03*
X012215Y012529D03*
X012215Y012509D03*
X012215Y012489D03*
X012215Y012469D03*
X012215Y012449D03*
X012215Y012429D03*
X012215Y012409D03*
X011755Y012409D03*
X011755Y012429D03*
X011755Y012449D03*
X011755Y012469D03*
X011755Y012669D03*
X011755Y012689D03*
X011755Y012709D03*
X011755Y012729D03*
X011215Y012729D03*
X011215Y012709D03*
X011215Y012689D03*
X011215Y012669D03*
X010875Y012669D03*
X010875Y012649D03*
X010875Y012689D03*
X010875Y012709D03*
X010875Y012729D03*
X010855Y012789D03*
X010875Y012509D03*
X010875Y012489D03*
X010875Y012469D03*
X010875Y012449D03*
X010875Y012429D03*
X010875Y012409D03*
X010875Y012389D03*
X010875Y012229D03*
X010875Y012209D03*
X010875Y012189D03*
X010395Y012369D03*
X010115Y012649D03*
X010115Y012669D03*
X010115Y012689D03*
X010115Y012709D03*
X009655Y012709D03*
X009655Y012689D03*
X009655Y012669D03*
X009655Y012729D03*
X009935Y013429D03*
X010115Y013669D03*
X010115Y013689D03*
X010115Y013709D03*
X010115Y013729D03*
X010115Y013749D03*
X010115Y013769D03*
X010115Y013789D03*
X010115Y013849D03*
X010115Y013869D03*
X010115Y013889D03*
X010115Y013909D03*
X010115Y013929D03*
X010115Y013949D03*
X010115Y013969D03*
X010395Y013929D03*
X010395Y013909D03*
X010395Y013889D03*
X010415Y013989D03*
X010415Y014009D03*
X010435Y014029D03*
X010635Y014209D03*
X010855Y014009D03*
X010855Y013989D03*
X010875Y013969D03*
X010875Y013949D03*
X010875Y013929D03*
X010875Y013889D03*
X011175Y013889D03*
X011175Y013869D03*
X011175Y013849D03*
X011175Y013829D03*
X011175Y013809D03*
X011175Y013789D03*
X011175Y013769D03*
X011175Y013749D03*
X011175Y013729D03*
X011175Y013709D03*
X011175Y013689D03*
X011175Y013669D03*
X011175Y013649D03*
X011175Y013629D03*
X011175Y013609D03*
X011175Y013589D03*
X011175Y013569D03*
X011175Y013549D03*
X011175Y013529D03*
X011175Y013509D03*
X011175Y013489D03*
X011175Y013469D03*
X011175Y013449D03*
X011175Y013909D03*
X011175Y013929D03*
X011175Y013949D03*
X011175Y014149D03*
X011175Y014169D03*
X011175Y014189D03*
X011655Y013969D03*
X011655Y013949D03*
X011655Y013929D03*
X011655Y013909D03*
X011655Y013889D03*
X011655Y013869D03*
X011655Y013849D03*
X011655Y013829D03*
X011655Y013809D03*
X011655Y013789D03*
X011655Y013769D03*
X011655Y013749D03*
X011655Y013729D03*
X011655Y013709D03*
X011655Y013689D03*
X011655Y013669D03*
X011655Y013649D03*
X011655Y013629D03*
X011655Y013609D03*
X011655Y013589D03*
X011655Y013569D03*
X011655Y013549D03*
X011655Y013529D03*
X011655Y013509D03*
X011655Y013489D03*
X011655Y013469D03*
X011655Y013449D03*
X011655Y013429D03*
X012295Y013589D03*
X012315Y013929D03*
X012295Y013989D03*
X012315Y014029D03*
X012755Y013709D03*
X012755Y013689D03*
X012755Y013629D03*
X012755Y013609D03*
X013035Y013649D03*
X013035Y013669D03*
X013015Y013729D03*
X013015Y013749D03*
X013015Y013769D03*
X013015Y013789D03*
X013015Y013809D03*
X013015Y013829D03*
X013015Y013849D03*
X013015Y013869D03*
X013015Y013889D03*
X013015Y013909D03*
X013035Y013969D03*
X013035Y013989D03*
X013495Y013989D03*
X013495Y013969D03*
X013495Y013949D03*
X013515Y013829D03*
X013515Y013809D03*
X013495Y013689D03*
X013495Y013669D03*
X013495Y013649D03*
X013815Y013669D03*
X013815Y013689D03*
X013815Y013709D03*
X014275Y013709D03*
X014275Y013689D03*
X014275Y013669D03*
X014275Y013729D03*
X014615Y013729D03*
X014615Y013709D03*
X014615Y013689D03*
X014615Y013669D03*
X014615Y013649D03*
X014615Y013629D03*
X014615Y013609D03*
X014615Y013589D03*
X014615Y013569D03*
X014615Y013549D03*
X014615Y013529D03*
X014615Y013509D03*
X014615Y013489D03*
X014615Y013469D03*
X014615Y013449D03*
X014615Y013429D03*
X014615Y013749D03*
X014615Y013769D03*
X014615Y013789D03*
X014615Y013809D03*
X014615Y013829D03*
X014615Y013849D03*
X014615Y013869D03*
X014615Y013889D03*
X014615Y013909D03*
X014615Y013929D03*
X014615Y013949D03*
X014615Y013969D03*
X014615Y014149D03*
X014615Y014169D03*
X014615Y014189D03*
X014615Y014209D03*
X015155Y013969D03*
X015155Y013949D03*
X015175Y013989D03*
X015135Y013889D03*
X015135Y013869D03*
X015135Y013849D03*
X015135Y013829D03*
X015135Y013809D03*
X015135Y013789D03*
X015135Y013769D03*
X015135Y013749D03*
X015155Y013689D03*
X015155Y013669D03*
X015835Y013669D03*
X015835Y013689D03*
X015855Y013649D03*
X015855Y013629D03*
X015835Y013949D03*
X015835Y013969D03*
X015855Y014009D03*
X016075Y014209D03*
X016275Y014029D03*
X016295Y013989D03*
X016295Y013969D03*
X016315Y013929D03*
X016315Y013909D03*
X016315Y013889D03*
X014375Y014889D03*
X010795Y014889D03*
X009935Y014209D03*
X009655Y013969D03*
X009655Y013949D03*
X009655Y013929D03*
X009655Y013909D03*
X009655Y013729D03*
X009655Y013709D03*
X009655Y013689D03*
X009655Y013669D03*
X009335Y013669D03*
X009335Y013689D03*
X009315Y013629D03*
X009335Y013949D03*
X009335Y013969D03*
X009315Y014009D03*
X008875Y013989D03*
X008875Y013969D03*
X008855Y013909D03*
X008855Y013889D03*
X008855Y013869D03*
X008855Y013849D03*
X008855Y013829D03*
X008855Y013809D03*
X008855Y013789D03*
X008855Y013769D03*
X008855Y013749D03*
X008855Y013729D03*
X008875Y013669D03*
X008875Y013649D03*
X010395Y013709D03*
X010395Y013729D03*
X010395Y013749D03*
X010415Y013649D03*
X010435Y013609D03*
X012715Y012229D03*
X012715Y012209D03*
X013195Y012209D03*
X014375Y019509D03*
X010795Y019509D03*
D22*
X011455Y014189D03*
X011215Y014049D03*
X012315Y013569D03*
X011815Y012809D03*
X012175Y012329D03*
X011935Y012189D03*
X012715Y012349D03*
X012955Y012749D03*
X012955Y012769D03*
X013195Y012349D03*
X013675Y012309D03*
X013675Y012509D03*
X014035Y012309D03*
X014455Y012789D03*
X013995Y013449D03*
X014235Y013589D03*
X014655Y014049D03*
X014895Y014189D03*
X015555Y014069D03*
X015555Y013569D03*
X010475Y012509D03*
X010455Y012309D03*
X009935Y013449D03*
X009935Y014189D03*
D23*
X009245Y014069D03*
X008965Y014069D03*
X008965Y013569D03*
X009245Y013569D03*
X009705Y012809D03*
X009925Y012929D03*
X010045Y012809D03*
X010825Y012309D03*
X011265Y012809D03*
X011485Y012929D03*
X011925Y012929D03*
X012165Y012809D03*
X012705Y012389D03*
X012705Y012369D03*
X012945Y012729D03*
X013185Y012389D03*
X013185Y012369D03*
X013805Y012189D03*
X013845Y012949D03*
X013405Y013569D03*
X013125Y013569D03*
X012705Y013749D03*
X013125Y014069D03*
X013405Y014069D03*
X014365Y014929D03*
X014705Y012929D03*
X015065Y012309D03*
X010805Y014929D03*
X010805Y019469D03*
X014365Y019469D03*
D24*
X014885Y014149D03*
X014685Y012889D03*
X013805Y012209D03*
X010585Y012209D03*
X009925Y012909D03*
D25*
X009925Y012889D03*
X010585Y012229D03*
X012425Y013889D03*
X013845Y012929D03*
X015205Y012909D03*
X015405Y013469D03*
X016085Y013469D03*
X015405Y014169D03*
X015225Y012209D03*
D26*
X013995Y013489D03*
X013255Y013469D03*
X012515Y013449D03*
X011935Y012889D03*
X011935Y012229D03*
X010635Y012929D03*
X009935Y013489D03*
X009935Y014149D03*
X010635Y014169D03*
X010815Y014969D03*
X011475Y014149D03*
X013255Y014169D03*
X014355Y014969D03*
X016075Y014169D03*
X009095Y014169D03*
X009095Y013469D03*
X010815Y019429D03*
X014355Y019429D03*
D27*
X013505Y015169D03*
X013265Y014209D03*
X013065Y014029D03*
X013045Y014009D03*
X012685Y014069D03*
X012525Y014209D03*
X012325Y014049D03*
X012745Y013729D03*
X012745Y013589D03*
X013045Y013629D03*
X013065Y013609D03*
X013265Y013429D03*
X013465Y013609D03*
X013485Y013629D03*
X013825Y013629D03*
X013825Y013649D03*
X014265Y013649D03*
X014265Y013629D03*
X014625Y013989D03*
X015185Y014009D03*
X015405Y014209D03*
X015865Y014029D03*
X015885Y014049D03*
X016285Y014009D03*
X015885Y013589D03*
X015865Y013609D03*
X015405Y013429D03*
X015185Y013629D03*
X015165Y013649D03*
X014705Y012949D03*
X014425Y012729D03*
X014065Y012789D03*
X014045Y012809D03*
X014065Y012349D03*
X013625Y012329D03*
X013185Y012249D03*
X013185Y012229D03*
X012705Y012249D03*
X012205Y012369D03*
X012205Y012389D03*
X012205Y012729D03*
X012205Y012749D03*
X011925Y012949D03*
X011765Y012749D03*
X011765Y012389D03*
X011765Y012369D03*
X011785Y012349D03*
X011225Y012749D03*
X010865Y012369D03*
X010865Y012349D03*
X010425Y012329D03*
X010425Y012489D03*
X010105Y012729D03*
X010105Y012749D03*
X009665Y012749D03*
X009665Y013629D03*
X009665Y013649D03*
X009325Y013649D03*
X009305Y013609D03*
X009105Y013429D03*
X008905Y013609D03*
X008885Y013629D03*
X009325Y013989D03*
X009305Y014029D03*
X009105Y014209D03*
X008905Y014029D03*
X008885Y014009D03*
X009665Y014009D03*
X009665Y013989D03*
X010085Y014029D03*
X010105Y014009D03*
X010105Y013989D03*
X010105Y013649D03*
X010105Y013629D03*
X010085Y013609D03*
X010425Y013629D03*
X011185Y013969D03*
X011185Y013989D03*
X010845Y014029D03*
X010825Y014049D03*
X010445Y014049D03*
X011625Y014009D03*
X011645Y013989D03*
X012945Y012849D03*
X013485Y014009D03*
X013465Y014029D03*
X011665Y015169D03*
X015405Y012789D03*
X015425Y012749D03*
X015005Y012349D03*
D28*
X013955Y012629D03*
X013795Y012229D03*
X012615Y013769D03*
X012535Y014169D03*
X014355Y014989D03*
X016075Y014149D03*
X010815Y014989D03*
X010635Y014149D03*
X010655Y013469D03*
X010815Y019409D03*
X014355Y019409D03*
D29*
X015415Y014149D03*
X016075Y014129D03*
X016095Y013489D03*
X015415Y013489D03*
X015235Y012229D03*
X012515Y013469D03*
X010635Y012909D03*
X010635Y014129D03*
D30*
X011385Y014129D03*
X011385Y014109D03*
X012505Y013529D03*
X012005Y012849D03*
X012005Y012289D03*
X012005Y012269D03*
X010665Y012249D03*
X010665Y012549D03*
X009865Y012829D03*
X009865Y012849D03*
X009865Y013529D03*
X009865Y013549D03*
X009865Y014089D03*
X009865Y014109D03*
X013865Y012549D03*
X013865Y012529D03*
X013865Y012269D03*
X014065Y013529D03*
X014065Y013549D03*
D31*
X014075Y013509D03*
X015415Y013549D03*
X015415Y014089D03*
X013875Y012569D03*
X013875Y012249D03*
X015235Y012289D03*
X012015Y012249D03*
X012015Y012869D03*
X010675Y012569D03*
X009855Y012869D03*
X009855Y013509D03*
X009855Y014129D03*
X010655Y013549D03*
X012535Y014109D03*
X010835Y019349D03*
X014335Y019349D03*
D32*
X014775Y014109D03*
X015415Y014129D03*
X016075Y014109D03*
X016095Y013509D03*
X015415Y013509D03*
X014575Y012849D03*
X015235Y012249D03*
X012555Y013809D03*
X012515Y013849D03*
X012535Y014149D03*
X011375Y012869D03*
X011375Y012849D03*
X010635Y012889D03*
X010635Y014109D03*
D33*
X011395Y014089D03*
X011395Y014069D03*
X010835Y015069D03*
X011995Y012829D03*
X011995Y012309D03*
X010655Y012289D03*
X010655Y012269D03*
X010655Y012529D03*
X013855Y012289D03*
X014335Y015069D03*
X014335Y019329D03*
X010835Y019329D03*
D34*
X010795Y019489D03*
X014375Y019489D03*
X014375Y014909D03*
X014635Y014029D03*
X014635Y014009D03*
X015195Y014029D03*
X015215Y014049D03*
X015195Y013609D03*
X015215Y013589D03*
X016095Y013429D03*
X016235Y013569D03*
X016255Y014049D03*
X015375Y012809D03*
X015035Y012809D03*
X014435Y012769D03*
X014435Y012749D03*
X014055Y012329D03*
X015035Y012329D03*
X013195Y012289D03*
X013195Y012269D03*
X012715Y012269D03*
X012715Y012289D03*
X012195Y012349D03*
X012195Y012769D03*
X011795Y012789D03*
X011775Y012769D03*
X011495Y012949D03*
X011235Y012769D03*
X010835Y012809D03*
X010095Y012769D03*
X010075Y012789D03*
X009935Y012949D03*
X009675Y012769D03*
X009675Y013609D03*
X009295Y013589D03*
X008915Y013589D03*
X008915Y014049D03*
X009295Y014049D03*
X009675Y014029D03*
X010075Y014049D03*
X010475Y014069D03*
X011195Y014009D03*
X011615Y014029D03*
X012335Y014069D03*
X012335Y013909D03*
X012515Y013429D03*
X013075Y013589D03*
X013455Y013589D03*
X013835Y013609D03*
X014255Y013609D03*
X013455Y014049D03*
X013075Y014049D03*
X012955Y012829D03*
X012955Y012809D03*
X010855Y012329D03*
X010655Y013429D03*
X010815Y013569D03*
X010455Y013589D03*
X010075Y013589D03*
X010795Y014909D03*
D35*
X010635Y014089D03*
X009095Y014089D03*
X009095Y013549D03*
X010635Y012869D03*
X010655Y012829D03*
X012535Y014129D03*
X013875Y012829D03*
X015215Y012829D03*
X015235Y012269D03*
X015415Y013529D03*
X016095Y013529D03*
X016075Y014089D03*
X015415Y014109D03*
D36*
X015905Y014069D03*
X016225Y014069D03*
X015905Y013569D03*
X015205Y012949D03*
X015365Y012309D03*
X013865Y013589D03*
X012705Y013569D03*
X012945Y012789D03*
X012185Y012789D03*
X011805Y012329D03*
X011245Y012789D03*
X010485Y013569D03*
X010805Y014069D03*
X011205Y014029D03*
X011605Y014049D03*
X011645Y015189D03*
X013525Y015189D03*
X009685Y014049D03*
X009685Y013589D03*
X009685Y012789D03*
X012705Y012329D03*
X012705Y012309D03*
X013185Y012309D03*
X013185Y012329D03*
D37*
X014755Y012789D03*
X015395Y012369D03*
X014955Y014049D03*
X010475Y012789D03*
D38*
X010635Y013769D03*
X010635Y013789D03*
X010635Y013809D03*
X010635Y013829D03*
X010635Y013849D03*
X010635Y013869D03*
X010835Y015089D03*
X012495Y013549D03*
X014335Y015089D03*
X016075Y013869D03*
X016075Y013849D03*
X016075Y013829D03*
X016075Y013809D03*
X016075Y013789D03*
X016075Y013769D03*
X015215Y012629D03*
X015215Y012609D03*
X015215Y012529D03*
D39*
X015205Y012549D03*
X015205Y012569D03*
X015205Y012589D03*
X014325Y019309D03*
X010845Y019309D03*
D40*
X010825Y015049D03*
X012525Y014089D03*
X013265Y014089D03*
X013265Y013549D03*
X012505Y013509D03*
X013845Y012869D03*
X013845Y012849D03*
X013885Y012589D03*
X016085Y013549D03*
X014345Y015049D03*
X010665Y013529D03*
X010645Y012849D03*
X010685Y012589D03*
D41*
X010705Y012609D03*
X010665Y013509D03*
X009105Y013529D03*
X009105Y014109D03*
X010825Y015029D03*
X012525Y013829D03*
X012505Y013489D03*
X013265Y013529D03*
X013265Y014109D03*
X014345Y015029D03*
X014785Y014129D03*
X014585Y012869D03*
X015205Y012849D03*
X013905Y012609D03*
X013845Y012889D03*
X014345Y019369D03*
X010825Y019369D03*
D42*
X009105Y014149D03*
X009105Y013489D03*
X010745Y012629D03*
X013265Y013489D03*
X013265Y014149D03*
X015205Y012889D03*
D43*
X016265Y013629D03*
X013465Y015109D03*
X011705Y015109D03*
X012285Y013649D03*
X011545Y012789D03*
X010825Y013629D03*
D44*
X010825Y013609D03*
X012285Y013629D03*
X012725Y014029D03*
X014385Y014849D03*
X015585Y014009D03*
X015585Y013629D03*
X016265Y013609D03*
X013685Y012789D03*
X010785Y014849D03*
X010785Y019549D03*
X014385Y019549D03*
D45*
X014385Y014869D03*
X015585Y014029D03*
X015585Y013609D03*
X013685Y012809D03*
X012285Y013609D03*
X012705Y014049D03*
X010785Y014869D03*
D46*
X010825Y015009D03*
X009105Y014129D03*
X009105Y013509D03*
X010665Y013489D03*
X011365Y012829D03*
X012485Y013869D03*
X012565Y013789D03*
X013265Y013509D03*
X013265Y014129D03*
X014345Y015009D03*
X014765Y014089D03*
X014765Y014069D03*
X014565Y012829D03*
X015205Y012869D03*
X013845Y012909D03*
X014345Y019389D03*
X010825Y019389D03*
D47*
X011615Y015229D03*
X012535Y014189D03*
X013995Y013469D03*
X014695Y012909D03*
X016095Y013449D03*
X013555Y015229D03*
X010655Y013449D03*
X011475Y012889D03*
X011495Y012909D03*
X011935Y012909D03*
X009935Y014169D03*
D48*
X009725Y014069D03*
X009105Y014189D03*
X009105Y013449D03*
X009725Y013569D03*
X009945Y013469D03*
X011465Y014169D03*
X010805Y014949D03*
X013265Y014189D03*
X013265Y013449D03*
X014205Y013569D03*
X014905Y014169D03*
X015265Y014069D03*
X015405Y014189D03*
X015265Y013569D03*
X015405Y013449D03*
X015205Y012929D03*
X014365Y014949D03*
X014365Y019449D03*
X010805Y019449D03*
D49*
X010845Y019289D03*
X014325Y019289D03*
X014325Y015109D03*
X010845Y015109D03*
D50*
X010845Y015129D03*
X014325Y015129D03*
X014325Y019269D03*
D51*
X014315Y019249D03*
X010855Y019249D03*
X010855Y015149D03*
X014315Y015149D03*
D52*
X014315Y015169D03*
X010855Y015169D03*
X010855Y019229D03*
X014315Y019229D03*
D53*
X014305Y019209D03*
X012585Y019849D03*
X012585Y019869D03*
X012585Y019889D03*
X012585Y019909D03*
X012585Y019929D03*
X012585Y019949D03*
X010865Y019209D03*
X010865Y015189D03*
X014305Y015189D03*
D54*
X014305Y015209D03*
X010865Y015209D03*
X010865Y019189D03*
X012585Y019749D03*
X012585Y019769D03*
X012585Y019789D03*
X012585Y019809D03*
X012585Y019829D03*
X014305Y019189D03*
D55*
X014295Y019169D03*
X010875Y019169D03*
X010875Y015229D03*
X014295Y015229D03*
D56*
X014105Y015249D03*
X011065Y015249D03*
D57*
X011065Y015269D03*
X011365Y016009D03*
X013805Y016009D03*
X014105Y015269D03*
X012585Y019269D03*
D58*
X011375Y016069D03*
X011375Y016049D03*
X011375Y016029D03*
X011355Y015989D03*
X011335Y015969D03*
X011335Y015949D03*
X011055Y015289D03*
X013795Y016029D03*
X013795Y016049D03*
X013795Y016069D03*
X013815Y015989D03*
X013835Y015969D03*
X013835Y015949D03*
X014115Y015289D03*
D59*
X014115Y015309D03*
X013915Y015809D03*
X013895Y015849D03*
X013795Y016089D03*
X013795Y016109D03*
X011375Y016109D03*
X011375Y016089D03*
X011275Y015849D03*
X011255Y015809D03*
X011055Y015309D03*
D60*
X011045Y015329D03*
X011205Y015729D03*
X011225Y015749D03*
X011225Y015769D03*
X011245Y015789D03*
X011385Y016129D03*
X013785Y016129D03*
X013925Y015789D03*
X013945Y015769D03*
X013945Y015749D03*
X013965Y015729D03*
X014125Y015329D03*
D61*
X014125Y015349D03*
X014045Y015569D03*
X014045Y015589D03*
X014025Y015609D03*
X014005Y015649D03*
X013785Y016169D03*
X013965Y016609D03*
X013985Y016629D03*
X013985Y017749D03*
X012585Y019249D03*
X011185Y017749D03*
X011185Y016629D03*
X011205Y016609D03*
X011385Y016169D03*
X011165Y015649D03*
X011145Y015609D03*
X011125Y015589D03*
X011125Y015569D03*
X011045Y015349D03*
D62*
X011035Y015369D03*
X011075Y015489D03*
X011095Y015509D03*
X011095Y015529D03*
X011115Y015549D03*
X011375Y016189D03*
X011375Y016209D03*
X011235Y016569D03*
X011215Y016589D03*
X011235Y017809D03*
X011255Y017829D03*
X013915Y017829D03*
X013935Y017809D03*
X013955Y016589D03*
X013935Y016569D03*
X013795Y016209D03*
X013795Y016189D03*
X014055Y015549D03*
X014075Y015529D03*
X014075Y015509D03*
X014095Y015489D03*
X014135Y015369D03*
D63*
X014145Y015389D03*
X014125Y015429D03*
X014105Y015469D03*
X013785Y016229D03*
X013925Y016549D03*
X014045Y016669D03*
X013905Y017849D03*
X013885Y017869D03*
X011285Y017869D03*
X011265Y017849D03*
X011125Y016669D03*
X011245Y016549D03*
X011385Y016229D03*
X011065Y015469D03*
X011045Y015429D03*
X011025Y015389D03*
D64*
X011035Y015409D03*
X011055Y015449D03*
X011375Y016249D03*
X011275Y016529D03*
X011135Y017729D03*
X013895Y016529D03*
X013795Y016249D03*
X014115Y015449D03*
X014135Y015409D03*
X014035Y017729D03*
D65*
X013975Y017769D03*
X013955Y017789D03*
X013995Y016649D03*
X013795Y016149D03*
X013975Y015709D03*
X013975Y015689D03*
X013995Y015669D03*
X014015Y015629D03*
X011375Y016149D03*
X011195Y015709D03*
X011195Y015689D03*
X011175Y015669D03*
X011155Y015629D03*
X011175Y016649D03*
X011195Y017769D03*
X011215Y017789D03*
D66*
X011325Y015929D03*
X011305Y015909D03*
X011305Y015889D03*
X011285Y015869D03*
X011265Y015829D03*
X013845Y015929D03*
X013865Y015909D03*
X013865Y015889D03*
X013885Y015869D03*
X013905Y015829D03*
D67*
X013785Y016269D03*
X013885Y016509D03*
X013865Y017889D03*
X012585Y019229D03*
X011305Y017889D03*
X011285Y016509D03*
X011385Y016269D03*
D68*
X011375Y016289D03*
X011375Y016309D03*
X011315Y017909D03*
X013855Y017909D03*
X013795Y016309D03*
X013795Y016289D03*
D69*
X013785Y016329D03*
X013845Y016469D03*
X013865Y016489D03*
X013825Y017929D03*
X011345Y017929D03*
X011305Y016489D03*
X011325Y016469D03*
X011385Y016329D03*
D70*
X011375Y016349D03*
X011335Y016449D03*
X011075Y016689D03*
X013795Y016349D03*
X013835Y016449D03*
X014095Y016689D03*
D71*
X013805Y016429D03*
X013785Y016369D03*
X014105Y017709D03*
X013805Y017949D03*
X011365Y017949D03*
X011065Y017709D03*
X011365Y016429D03*
X011385Y016369D03*
D72*
X011375Y016389D03*
X011375Y016409D03*
X011395Y017969D03*
X013775Y017969D03*
X013795Y016409D03*
X013795Y016389D03*
D73*
X014165Y016709D03*
X014165Y017689D03*
X011005Y017689D03*
X011005Y016709D03*
D74*
X010945Y016729D03*
X014225Y016729D03*
D75*
X014275Y016749D03*
X010895Y016749D03*
D76*
X010825Y016769D03*
X010825Y017629D03*
X014345Y017629D03*
X014345Y016769D03*
D77*
X014405Y016789D03*
X014445Y016869D03*
X014445Y016889D03*
X014445Y017489D03*
X014445Y017509D03*
X014445Y017529D03*
X010725Y017529D03*
X010725Y017509D03*
X010725Y017489D03*
X010725Y016889D03*
X010725Y016869D03*
X010765Y016789D03*
D78*
X010745Y016809D03*
X010745Y017569D03*
X010745Y017589D03*
X010765Y017609D03*
X014405Y017609D03*
X014425Y017589D03*
X014425Y017569D03*
X014425Y016809D03*
D79*
X014435Y016829D03*
X014435Y016849D03*
X014435Y017549D03*
X010735Y017549D03*
X010735Y016849D03*
X010735Y016829D03*
D80*
X010715Y016909D03*
X010715Y016929D03*
X010715Y016949D03*
X010715Y017429D03*
X010715Y017449D03*
X010715Y017469D03*
X014455Y017469D03*
X014455Y017449D03*
X014455Y017429D03*
X014455Y016949D03*
X014455Y016929D03*
X014455Y016909D03*
D81*
X014465Y016969D03*
X014465Y016989D03*
X014465Y017009D03*
X014465Y017029D03*
X014465Y017049D03*
X014465Y017329D03*
X014465Y017349D03*
X014465Y017369D03*
X014465Y017389D03*
X014465Y017409D03*
X012585Y019129D03*
X010705Y017409D03*
X010705Y017389D03*
X010705Y017369D03*
X010705Y017349D03*
X010705Y017329D03*
X010705Y017049D03*
X010705Y017029D03*
X010705Y017009D03*
X010705Y016989D03*
X010705Y016969D03*
D82*
X010695Y017069D03*
X010695Y017089D03*
X010695Y017109D03*
X010695Y017129D03*
X010695Y017149D03*
X010695Y017169D03*
X010695Y017189D03*
X010695Y017209D03*
X010695Y017229D03*
X010695Y017249D03*
X010695Y017269D03*
X010695Y017289D03*
X010695Y017309D03*
X014475Y017309D03*
X014475Y017289D03*
X014475Y017269D03*
X014475Y017249D03*
X014475Y017229D03*
X014475Y017209D03*
X014475Y017189D03*
X014475Y017169D03*
X014475Y017149D03*
X014475Y017129D03*
X014475Y017109D03*
X014475Y017089D03*
X014475Y017069D03*
D83*
X014285Y017649D03*
X010885Y017649D03*
D84*
X010935Y017669D03*
X014235Y017669D03*
D85*
X013735Y017989D03*
X011435Y017989D03*
D86*
X011475Y018009D03*
X013695Y018009D03*
D87*
X012585Y018029D03*
X012585Y018049D03*
X012585Y018529D03*
D88*
X012585Y018509D03*
X012585Y018489D03*
X012585Y018089D03*
X012585Y018069D03*
D89*
X012585Y018109D03*
X012585Y018129D03*
X012585Y018469D03*
D90*
X012585Y018449D03*
X012585Y018429D03*
X012585Y018189D03*
X012585Y018169D03*
X012585Y018149D03*
D91*
X012585Y018209D03*
X012585Y018229D03*
X012585Y018409D03*
D92*
X012585Y018389D03*
X012585Y018269D03*
X012585Y018249D03*
D93*
X012585Y018289D03*
X012585Y018309D03*
X012585Y018329D03*
X012585Y018349D03*
D94*
X012595Y018369D03*
D95*
X012585Y018549D03*
X012585Y018569D03*
D96*
X012585Y018589D03*
D97*
X012585Y018609D03*
X012585Y018629D03*
D98*
X012585Y018649D03*
D99*
X012585Y018669D03*
D100*
X012585Y018689D03*
X012585Y018709D03*
D101*
X012585Y018729D03*
D102*
X012585Y018749D03*
X012585Y018769D03*
D103*
X012585Y018789D03*
D104*
X012585Y018809D03*
X012585Y018829D03*
D105*
X012585Y018849D03*
X012585Y019109D03*
D106*
X012585Y019089D03*
X012585Y018889D03*
X012585Y018869D03*
D107*
X012585Y018909D03*
X012585Y019069D03*
D108*
X012585Y019049D03*
X012585Y018949D03*
X012585Y018929D03*
D109*
X012585Y018969D03*
X012585Y019029D03*
D110*
X012585Y019009D03*
X012585Y018989D03*
D111*
X012585Y019369D03*
X012585Y019389D03*
X012585Y019409D03*
X014285Y019129D03*
X010885Y019129D03*
D112*
X010875Y019149D03*
X014295Y019149D03*
D113*
X012585Y019149D03*
D114*
X012585Y019169D03*
D115*
X012585Y019189D03*
D116*
X012585Y019209D03*
D117*
X010855Y019269D03*
D118*
X012585Y019289D03*
D119*
X012585Y019309D03*
D120*
X012585Y019329D03*
D121*
X012585Y019349D03*
D122*
X012585Y019429D03*
X012585Y019449D03*
X012585Y019469D03*
X012585Y019489D03*
X012585Y019509D03*
D123*
X012585Y019529D03*
X012585Y019549D03*
X012585Y019569D03*
X012585Y019589D03*
X012585Y019609D03*
X012585Y019629D03*
D124*
X012585Y019649D03*
X012585Y019669D03*
X012585Y019689D03*
X012585Y019709D03*
X012585Y019729D03*
D125*
X012585Y019969D03*
X012585Y019989D03*
X012585Y020009D03*
X012585Y020029D03*
X012585Y020049D03*
D126*
X012585Y020069D03*
X012585Y020089D03*
X012585Y020109D03*
X012585Y020129D03*
D127*
X012585Y020149D03*
D128*
X031075Y015789D03*
X030835Y006279D03*
X032425Y006219D03*
X032425Y006189D03*
D129*
X032440Y006249D03*
X030820Y006309D03*
X030820Y006339D03*
X029890Y015699D03*
D130*
X030805Y006369D03*
X032455Y006309D03*
X032455Y006279D03*
D131*
X032470Y006339D03*
X032470Y006369D03*
X030790Y006399D03*
X030790Y006429D03*
X031150Y015759D03*
D132*
X030775Y006459D03*
X032485Y006399D03*
D133*
X032500Y006429D03*
X032500Y006459D03*
X030790Y006489D03*
X029860Y015669D03*
D134*
X031255Y015729D03*
X030775Y006519D03*
X032515Y006519D03*
X032515Y006489D03*
D135*
X032530Y006549D03*
X030760Y006549D03*
X030760Y006579D03*
D136*
X030745Y006609D03*
X032545Y006609D03*
X032545Y006579D03*
D137*
X032560Y006639D03*
X032560Y006669D03*
X030730Y006669D03*
X030730Y006639D03*
X029830Y015639D03*
X031330Y015699D03*
D138*
X030715Y006699D03*
X032575Y006699D03*
X032605Y006729D03*
X032605Y006759D03*
D139*
X032620Y006789D03*
X032620Y006819D03*
X030700Y006729D03*
D140*
X030715Y006759D03*
X032635Y006849D03*
X031405Y015669D03*
D141*
X029800Y015609D03*
X030700Y006819D03*
X030700Y006789D03*
X032650Y006879D03*
X032650Y006909D03*
D142*
X032665Y006939D03*
X032665Y006969D03*
X030685Y006849D03*
D143*
X030670Y006879D03*
X030670Y006909D03*
X032680Y006999D03*
X031480Y015639D03*
D144*
X029785Y015579D03*
X032695Y007059D03*
X032695Y007029D03*
X030655Y006939D03*
D145*
X030640Y006969D03*
X030640Y006999D03*
X032710Y007089D03*
X032710Y007119D03*
D146*
X032740Y007179D03*
X032740Y007209D03*
X030640Y007029D03*
D147*
X030625Y007059D03*
X030625Y007089D03*
X032755Y007239D03*
X032755Y007269D03*
D148*
X032770Y007299D03*
X032770Y007329D03*
X030610Y007149D03*
X030610Y007119D03*
X029770Y015549D03*
X031660Y015579D03*
D149*
X031585Y015609D03*
X032725Y007149D03*
D150*
X032785Y007359D03*
X030595Y007179D03*
D151*
X030580Y007209D03*
X030580Y007239D03*
X032800Y007389D03*
X032800Y007419D03*
X032830Y007449D03*
X032830Y007479D03*
D152*
X032845Y007509D03*
X030565Y007269D03*
X031735Y015549D03*
D153*
X032875Y007629D03*
X032875Y007599D03*
X030565Y007329D03*
X030565Y007299D03*
D154*
X030550Y007359D03*
X032890Y007659D03*
X031810Y015519D03*
D155*
X032905Y007719D03*
X032905Y007689D03*
X030535Y007419D03*
X030535Y007389D03*
D156*
X030520Y007449D03*
X030520Y007479D03*
X032920Y007749D03*
X032920Y007779D03*
X031900Y015489D03*
X029710Y015489D03*
D157*
X032935Y007809D03*
X030505Y007509D03*
D158*
X030490Y007539D03*
X032950Y007839D03*
X032950Y007869D03*
D159*
X032860Y007569D03*
X032860Y007539D03*
X029740Y015519D03*
D160*
X032965Y007929D03*
X032965Y007899D03*
X030505Y007569D03*
D161*
X030490Y007599D03*
X032980Y007959D03*
X031990Y015459D03*
X029680Y015459D03*
D162*
X032995Y008019D03*
X032995Y007989D03*
X030475Y007659D03*
X030475Y007629D03*
D163*
X030460Y007689D03*
X033010Y008049D03*
X033010Y008079D03*
D164*
X033025Y008109D03*
X033055Y008139D03*
X033055Y008169D03*
X030445Y007749D03*
X030445Y007719D03*
X032065Y015429D03*
D165*
X029650Y015429D03*
X033070Y008229D03*
X033070Y008199D03*
X030430Y007809D03*
X030430Y007779D03*
D166*
X030430Y007839D03*
X033100Y008289D03*
X033100Y008319D03*
X032140Y015399D03*
D167*
X033115Y008379D03*
X033115Y008349D03*
X030415Y007899D03*
X030415Y007869D03*
D168*
X030400Y007929D03*
X033130Y008409D03*
X032230Y015369D03*
X029620Y015399D03*
D169*
X033145Y008469D03*
X033145Y008439D03*
X030385Y007989D03*
X030385Y007959D03*
D170*
X030370Y008019D03*
X030370Y008049D03*
X033160Y008499D03*
X033160Y008529D03*
D171*
X033175Y008559D03*
X030355Y008079D03*
D172*
X030355Y008109D03*
X030355Y008139D03*
X033205Y008649D03*
X033205Y008679D03*
D173*
X033220Y008709D03*
X030340Y008169D03*
D174*
X030325Y008199D03*
X030325Y008229D03*
X033235Y008739D03*
X033235Y008769D03*
X032395Y015309D03*
D175*
X033280Y008859D03*
X033250Y008829D03*
X033250Y008799D03*
X030310Y008259D03*
D176*
X033085Y008259D03*
D177*
X033295Y008889D03*
X033295Y008919D03*
X030295Y008319D03*
X030295Y008289D03*
X032485Y015279D03*
X029575Y015339D03*
D178*
X033310Y008979D03*
X033310Y008949D03*
X030280Y008349D03*
D179*
X030295Y008379D03*
X033325Y009009D03*
D180*
X033340Y009039D03*
X033340Y009069D03*
X030280Y008409D03*
X032560Y015249D03*
D181*
X029545Y015309D03*
X033355Y009129D03*
X033355Y009099D03*
X030265Y008469D03*
X030265Y008439D03*
D182*
X030250Y008499D03*
X033370Y009159D03*
D183*
X033385Y009189D03*
X033385Y009219D03*
X030235Y008559D03*
X030235Y008529D03*
D184*
X030220Y008589D03*
X033400Y009249D03*
X033400Y009279D03*
X032650Y015219D03*
D185*
X032320Y015339D03*
X029590Y015369D03*
X033190Y008619D03*
X033190Y008589D03*
D186*
X033415Y009309D03*
X030205Y008619D03*
X029515Y015279D03*
D187*
X033430Y009369D03*
X033430Y009339D03*
X030220Y008649D03*
D188*
X030205Y008679D03*
X030205Y008709D03*
X033445Y009399D03*
X033445Y009429D03*
X032725Y015189D03*
D189*
X033460Y009459D03*
X030190Y008739D03*
D190*
X030175Y008769D03*
X030175Y008799D03*
X033475Y009489D03*
X033475Y009519D03*
X033505Y009579D03*
X032815Y015159D03*
X029485Y015249D03*
D191*
X033520Y009609D03*
X033490Y009549D03*
X030160Y008829D03*
D192*
X030145Y008859D03*
X030145Y008889D03*
X033535Y009639D03*
X033535Y009669D03*
D193*
X033565Y009759D03*
X030145Y008919D03*
X029455Y015219D03*
D194*
X033580Y009819D03*
X033580Y009789D03*
X030130Y008979D03*
X030130Y008949D03*
D195*
X030115Y009009D03*
X030115Y009039D03*
X033595Y009849D03*
X033595Y009879D03*
D196*
X033610Y009909D03*
X030100Y009069D03*
X032980Y015099D03*
D197*
X035485Y013089D03*
X033625Y009969D03*
X033625Y009939D03*
X030085Y009129D03*
X030085Y009099D03*
X029425Y015189D03*
D198*
X035380Y012939D03*
X035410Y012999D03*
X035440Y013029D03*
X035470Y013059D03*
X035500Y013119D03*
X033640Y010029D03*
X033640Y009999D03*
X030070Y009159D03*
D199*
X030070Y009189D03*
X030070Y009219D03*
X033670Y010119D03*
X035260Y012789D03*
X035290Y012819D03*
X035320Y012849D03*
D200*
X035245Y012759D03*
X035215Y012729D03*
X035485Y013179D03*
X033145Y015039D03*
X029395Y015159D03*
X033685Y010179D03*
X033685Y010149D03*
X030055Y009279D03*
X030055Y009249D03*
D201*
X030040Y009309D03*
X033700Y010209D03*
X033700Y010239D03*
X035140Y012639D03*
X035170Y012669D03*
X035200Y012699D03*
D202*
X035125Y012609D03*
X035095Y012579D03*
X035035Y012489D03*
X035485Y013209D03*
X033745Y010329D03*
X033745Y010299D03*
X033715Y010269D03*
X030025Y009369D03*
X030025Y009339D03*
D203*
X030010Y009399D03*
X033760Y010359D03*
X033760Y010389D03*
X034990Y012429D03*
X035020Y012459D03*
X035050Y012519D03*
X035080Y012549D03*
X033220Y015009D03*
D204*
X035455Y013239D03*
X034975Y012399D03*
X034945Y012369D03*
X034915Y012339D03*
X033775Y010419D03*
X029995Y009429D03*
X029365Y015129D03*
D205*
X034870Y012279D03*
X034900Y012309D03*
X033790Y010479D03*
X033790Y010449D03*
X030010Y009459D03*
D206*
X029995Y009489D03*
X033805Y010509D03*
X033805Y010539D03*
X034795Y012189D03*
X034825Y012219D03*
X034855Y012249D03*
X035455Y013269D03*
D207*
X035440Y013299D03*
X034780Y012159D03*
X034750Y012129D03*
X034720Y012069D03*
X034690Y012039D03*
X033820Y010569D03*
X029980Y009549D03*
X029980Y009519D03*
X033310Y014979D03*
D208*
X034735Y012099D03*
X034675Y012009D03*
X034645Y011979D03*
X033835Y010629D03*
X033835Y010599D03*
X029965Y009609D03*
X029965Y009579D03*
D209*
X029950Y009639D03*
X033850Y010659D03*
X033850Y010689D03*
X034570Y011889D03*
X034600Y011919D03*
X034630Y011949D03*
X035440Y013329D03*
X029350Y015099D03*
D210*
X033385Y014949D03*
X034555Y011859D03*
X034525Y011829D03*
X033865Y010719D03*
X029935Y009669D03*
D211*
X029950Y009699D03*
X033880Y010749D03*
X033880Y010779D03*
X034450Y011739D03*
X034480Y011769D03*
X034510Y011799D03*
D212*
X033550Y009729D03*
X033550Y009699D03*
X032890Y015129D03*
D213*
X033475Y014919D03*
X035425Y013359D03*
X034435Y011709D03*
X034405Y011679D03*
X034405Y011649D03*
X034375Y011619D03*
X034345Y011589D03*
X033895Y010839D03*
X033895Y010809D03*
X029935Y009729D03*
D214*
X029920Y009759D03*
X029920Y009789D03*
X033910Y010869D03*
X034300Y011529D03*
X034330Y011559D03*
X035410Y013389D03*
X029320Y015069D03*
D215*
X034225Y011439D03*
X034255Y011469D03*
X034285Y011499D03*
X033955Y010989D03*
X033925Y010929D03*
X033925Y010899D03*
X029905Y009819D03*
D216*
X029890Y009849D03*
X029890Y009879D03*
X033940Y010959D03*
X033970Y011019D03*
X034180Y011379D03*
X034210Y011409D03*
X035410Y013419D03*
X033550Y014889D03*
D217*
X035395Y013449D03*
X034165Y011349D03*
X034135Y011319D03*
X034105Y011289D03*
X034075Y011229D03*
X033985Y011079D03*
X033985Y011049D03*
X029875Y009939D03*
X029875Y009909D03*
D218*
X029875Y009969D03*
D219*
X029860Y009999D03*
X029860Y010029D03*
X035380Y013479D03*
X033640Y014859D03*
D220*
X029845Y010059D03*
D221*
X033655Y010059D03*
X033655Y010089D03*
X035335Y012879D03*
X035365Y012909D03*
X035395Y012969D03*
X035485Y013149D03*
X033055Y015069D03*
D222*
X035380Y013509D03*
X029830Y010119D03*
X029830Y010089D03*
X029260Y015009D03*
D223*
X033715Y014829D03*
X035365Y013539D03*
X029815Y010149D03*
D224*
X029800Y010179D03*
X029800Y010209D03*
D225*
X029800Y010239D03*
X029800Y010269D03*
X035350Y013569D03*
X029230Y014979D03*
D226*
X035335Y013599D03*
X029785Y010299D03*
D227*
X029770Y010329D03*
X029770Y010359D03*
X033880Y014769D03*
D228*
X035335Y013629D03*
X029755Y010389D03*
D229*
X029740Y010419D03*
X029740Y010449D03*
X029200Y014949D03*
D230*
X035335Y013659D03*
X029725Y010479D03*
D231*
X029725Y010509D03*
X029725Y010539D03*
X035305Y013689D03*
D232*
X034060Y014709D03*
X029170Y014919D03*
X029710Y010599D03*
X029710Y010569D03*
D233*
X029695Y010629D03*
X035305Y013719D03*
D234*
X035290Y013749D03*
X029680Y010689D03*
X029680Y010659D03*
D235*
X029665Y010719D03*
X034135Y014679D03*
D236*
X035290Y013779D03*
X029650Y010749D03*
D237*
X029665Y010779D03*
X029155Y014889D03*
D238*
X034210Y014649D03*
X029650Y010839D03*
X029650Y010809D03*
D239*
X029635Y010869D03*
X035275Y013809D03*
D240*
X035260Y013839D03*
X029620Y010929D03*
X029620Y010899D03*
D241*
X029605Y010959D03*
X029125Y014859D03*
D242*
X034300Y014619D03*
X035260Y013869D03*
X029590Y011019D03*
X029590Y010989D03*
D243*
X029590Y011049D03*
X034390Y014589D03*
D244*
X029095Y014829D03*
X029575Y011079D03*
D245*
X029590Y011109D03*
X035230Y013929D03*
D246*
X034090Y011259D03*
X034060Y011199D03*
X034030Y011169D03*
X034000Y011139D03*
X034000Y011109D03*
X029290Y015039D03*
D247*
X035230Y013959D03*
X029590Y011139D03*
D248*
X029605Y011169D03*
X029065Y014799D03*
X035215Y013989D03*
D249*
X035215Y014019D03*
X029605Y011199D03*
D250*
X029605Y011229D03*
X029035Y014769D03*
X035185Y014049D03*
D251*
X035185Y014079D03*
X029635Y011259D03*
D252*
X029635Y011289D03*
X035185Y014109D03*
X029005Y014739D03*
D253*
X029635Y011319D03*
X034795Y014439D03*
D254*
X029650Y011349D03*
D255*
X029650Y011379D03*
X034870Y014409D03*
X035140Y014199D03*
D256*
X035140Y014229D03*
X029650Y011409D03*
D257*
X029665Y011439D03*
X034945Y014379D03*
D258*
X035125Y014259D03*
X029665Y011469D03*
D259*
X029680Y011499D03*
X035050Y014349D03*
X035110Y014289D03*
D260*
X035110Y014319D03*
X029680Y011529D03*
X028930Y014649D03*
D261*
X029680Y011559D03*
D262*
X029695Y011589D03*
D263*
X029710Y011619D03*
D264*
X029710Y011649D03*
D265*
X029725Y011679D03*
D266*
X029725Y011709D03*
X028855Y014559D03*
D267*
X029725Y011739D03*
D268*
X029740Y011769D03*
D269*
X029740Y011799D03*
D270*
X029755Y011829D03*
D271*
X029755Y011859D03*
X028795Y014499D03*
D272*
X029755Y011889D03*
D273*
X029770Y011919D03*
D274*
X029770Y011949D03*
D275*
X029785Y011979D03*
D276*
X029800Y012009D03*
X028750Y014439D03*
D277*
X029800Y012039D03*
D278*
X029815Y012069D03*
D279*
X029815Y012099D03*
D280*
X029815Y012129D03*
D281*
X029830Y012159D03*
X028690Y014379D03*
D282*
X029830Y012189D03*
D283*
X029830Y012219D03*
X028660Y014349D03*
D284*
X029845Y012249D03*
D285*
X029845Y012279D03*
D286*
X029845Y012309D03*
D287*
X029875Y012339D03*
X028645Y014259D03*
X028615Y014289D03*
D288*
X028705Y014199D03*
X028735Y014169D03*
X028765Y014139D03*
X029875Y012369D03*
D289*
X029890Y012399D03*
X028840Y014049D03*
X028810Y014079D03*
X028780Y014109D03*
D290*
X028870Y014019D03*
X028900Y013989D03*
X028930Y013959D03*
X029890Y012429D03*
D291*
X029890Y012459D03*
X029020Y013839D03*
X028990Y013869D03*
D292*
X029065Y013809D03*
X029905Y012489D03*
D293*
X029905Y012519D03*
X029215Y013629D03*
X029185Y013659D03*
X029155Y013689D03*
D294*
X029275Y013569D03*
X029905Y012549D03*
D295*
X029920Y012579D03*
X029350Y013479D03*
X029320Y013509D03*
X029290Y013539D03*
D296*
X029920Y012609D03*
D297*
X029920Y012639D03*
X029560Y013239D03*
X029530Y013269D03*
X029500Y013299D03*
D298*
X029575Y013209D03*
X029605Y013179D03*
X029935Y012669D03*
D299*
X029950Y012699D03*
X029770Y012999D03*
X029740Y013029D03*
D300*
X029785Y012969D03*
X029815Y012939D03*
X029965Y012729D03*
D301*
X029965Y012759D03*
X029935Y012819D03*
X029905Y012849D03*
X029875Y012879D03*
D302*
X029950Y012789D03*
D303*
X029860Y012909D03*
D304*
X029725Y013059D03*
X029695Y013089D03*
X029665Y013119D03*
D305*
X029650Y013149D03*
D306*
X029485Y013329D03*
X029455Y013359D03*
D307*
X029425Y013389D03*
X029395Y013419D03*
X029365Y013449D03*
D308*
X029230Y013599D03*
D309*
X029140Y013719D03*
X029110Y013749D03*
X029080Y013779D03*
D310*
X028975Y013899D03*
X028945Y013929D03*
D311*
X035245Y013899D03*
D312*
X035170Y014139D03*
D313*
X035155Y014169D03*
X028975Y014709D03*
D314*
X028690Y014229D03*
D315*
X028630Y014319D03*
D316*
X028720Y014409D03*
D317*
X028765Y014469D03*
D318*
X034720Y014469D03*
D319*
X034630Y014499D03*
D320*
X028825Y014529D03*
D321*
X034540Y014529D03*
D322*
X034465Y014559D03*
D323*
X028885Y014589D03*
D324*
X028900Y014619D03*
D325*
X028960Y014679D03*
D326*
X033970Y014739D03*
D327*
X033805Y014799D03*
D328*
X043733Y016193D02*
X043733Y016468D01*
X044382Y016468D01*
X044382Y016193D01*
X043733Y016193D01*
X044382Y016193D02*
X044382Y015858D01*
X046823Y015858D01*
X046823Y016193D01*
X047473Y016193D01*
X047473Y016468D01*
X046823Y016468D01*
X046823Y016193D01*
X046823Y016468D02*
X046823Y017787D01*
X047473Y017787D01*
X047473Y018063D01*
X046823Y018063D01*
X046823Y017787D01*
X046823Y018063D02*
X046823Y018398D01*
X044382Y018398D01*
X044382Y018063D01*
X044382Y017787D01*
X044382Y016468D01*
X044816Y017177D02*
X044818Y017233D01*
X044824Y017288D01*
X044834Y017342D01*
X044847Y017396D01*
X044865Y017449D01*
X044886Y017500D01*
X044910Y017550D01*
X044938Y017598D01*
X044970Y017644D01*
X045004Y017688D01*
X045042Y017729D01*
X045082Y017767D01*
X045125Y017802D01*
X045170Y017834D01*
X045218Y017863D01*
X045267Y017889D01*
X045318Y017911D01*
X045370Y017929D01*
X045424Y017943D01*
X045479Y017954D01*
X045534Y017961D01*
X045589Y017964D01*
X045645Y017963D01*
X045700Y017958D01*
X045755Y017949D01*
X045809Y017937D01*
X045862Y017920D01*
X045914Y017900D01*
X045964Y017876D01*
X046012Y017849D01*
X046059Y017819D01*
X046103Y017785D01*
X046145Y017748D01*
X046183Y017708D01*
X046220Y017666D01*
X046253Y017621D01*
X046282Y017575D01*
X046309Y017526D01*
X046331Y017475D01*
X046351Y017423D01*
X046366Y017369D01*
X046378Y017315D01*
X046386Y017260D01*
X046390Y017205D01*
X046390Y017149D01*
X046386Y017094D01*
X046378Y017039D01*
X046366Y016985D01*
X046351Y016931D01*
X046331Y016879D01*
X046309Y016828D01*
X046282Y016779D01*
X046253Y016733D01*
X046220Y016688D01*
X046183Y016646D01*
X046145Y016606D01*
X046103Y016569D01*
X046059Y016535D01*
X046012Y016505D01*
X045964Y016478D01*
X045914Y016454D01*
X045862Y016434D01*
X045809Y016417D01*
X045755Y016405D01*
X045700Y016396D01*
X045645Y016391D01*
X045589Y016390D01*
X045534Y016393D01*
X045479Y016400D01*
X045424Y016411D01*
X045370Y016425D01*
X045318Y016443D01*
X045267Y016465D01*
X045218Y016491D01*
X045170Y016520D01*
X045125Y016552D01*
X045082Y016587D01*
X045042Y016625D01*
X045004Y016666D01*
X044970Y016710D01*
X044938Y016756D01*
X044910Y016804D01*
X044886Y016854D01*
X044865Y016905D01*
X044847Y016958D01*
X044834Y017012D01*
X044824Y017066D01*
X044818Y017121D01*
X044816Y017177D01*
X045012Y017177D02*
X045014Y017225D01*
X045020Y017273D01*
X045030Y017320D01*
X045043Y017366D01*
X045061Y017411D01*
X045081Y017455D01*
X045106Y017497D01*
X045134Y017536D01*
X045164Y017573D01*
X045198Y017607D01*
X045235Y017639D01*
X045273Y017668D01*
X045314Y017693D01*
X045357Y017715D01*
X045402Y017733D01*
X045448Y017747D01*
X045495Y017758D01*
X045543Y017765D01*
X045591Y017768D01*
X045639Y017767D01*
X045687Y017762D01*
X045735Y017753D01*
X045781Y017741D01*
X045826Y017724D01*
X045870Y017704D01*
X045912Y017681D01*
X045952Y017654D01*
X045990Y017624D01*
X046025Y017591D01*
X046057Y017555D01*
X046087Y017517D01*
X046113Y017476D01*
X046135Y017433D01*
X046155Y017389D01*
X046170Y017344D01*
X046182Y017297D01*
X046190Y017249D01*
X046194Y017201D01*
X046194Y017153D01*
X046190Y017105D01*
X046182Y017057D01*
X046170Y017010D01*
X046155Y016965D01*
X046135Y016921D01*
X046113Y016878D01*
X046087Y016837D01*
X046057Y016799D01*
X046025Y016763D01*
X045990Y016730D01*
X045952Y016700D01*
X045912Y016673D01*
X045870Y016650D01*
X045826Y016630D01*
X045781Y016613D01*
X045735Y016601D01*
X045687Y016592D01*
X045639Y016587D01*
X045591Y016586D01*
X045543Y016589D01*
X045495Y016596D01*
X045448Y016607D01*
X045402Y016621D01*
X045357Y016639D01*
X045314Y016661D01*
X045273Y016686D01*
X045235Y016715D01*
X045198Y016747D01*
X045164Y016781D01*
X045134Y016818D01*
X045106Y016857D01*
X045081Y016899D01*
X045061Y016943D01*
X045043Y016988D01*
X045030Y017034D01*
X045020Y017081D01*
X045014Y017129D01*
X045012Y017177D01*
X044382Y017787D02*
X043733Y017787D01*
X043733Y018063D01*
X044382Y018063D01*
X044284Y021378D02*
X046725Y021378D01*
X046725Y021713D01*
X047374Y021713D01*
X047374Y021988D01*
X046725Y021988D01*
X046725Y021713D01*
X046725Y021988D02*
X046725Y023307D01*
X047374Y023307D01*
X047374Y023583D01*
X046725Y023583D01*
X046725Y023307D01*
X046725Y023583D02*
X046725Y023918D01*
X044284Y023918D01*
X044284Y023583D01*
X044284Y023307D01*
X044284Y021988D01*
X044284Y021713D01*
X043634Y021713D01*
X043634Y021988D01*
X044284Y021988D01*
X044284Y021713D02*
X044284Y021378D01*
X044717Y022697D02*
X044719Y022753D01*
X044725Y022808D01*
X044735Y022862D01*
X044748Y022916D01*
X044766Y022969D01*
X044787Y023020D01*
X044811Y023070D01*
X044839Y023118D01*
X044871Y023164D01*
X044905Y023208D01*
X044943Y023249D01*
X044983Y023287D01*
X045026Y023322D01*
X045071Y023354D01*
X045119Y023383D01*
X045168Y023409D01*
X045219Y023431D01*
X045271Y023449D01*
X045325Y023463D01*
X045380Y023474D01*
X045435Y023481D01*
X045490Y023484D01*
X045546Y023483D01*
X045601Y023478D01*
X045656Y023469D01*
X045710Y023457D01*
X045763Y023440D01*
X045815Y023420D01*
X045865Y023396D01*
X045913Y023369D01*
X045960Y023339D01*
X046004Y023305D01*
X046046Y023268D01*
X046084Y023228D01*
X046121Y023186D01*
X046154Y023141D01*
X046183Y023095D01*
X046210Y023046D01*
X046232Y022995D01*
X046252Y022943D01*
X046267Y022889D01*
X046279Y022835D01*
X046287Y022780D01*
X046291Y022725D01*
X046291Y022669D01*
X046287Y022614D01*
X046279Y022559D01*
X046267Y022505D01*
X046252Y022451D01*
X046232Y022399D01*
X046210Y022348D01*
X046183Y022299D01*
X046154Y022253D01*
X046121Y022208D01*
X046084Y022166D01*
X046046Y022126D01*
X046004Y022089D01*
X045960Y022055D01*
X045913Y022025D01*
X045865Y021998D01*
X045815Y021974D01*
X045763Y021954D01*
X045710Y021937D01*
X045656Y021925D01*
X045601Y021916D01*
X045546Y021911D01*
X045490Y021910D01*
X045435Y021913D01*
X045380Y021920D01*
X045325Y021931D01*
X045271Y021945D01*
X045219Y021963D01*
X045168Y021985D01*
X045119Y022011D01*
X045071Y022040D01*
X045026Y022072D01*
X044983Y022107D01*
X044943Y022145D01*
X044905Y022186D01*
X044871Y022230D01*
X044839Y022276D01*
X044811Y022324D01*
X044787Y022374D01*
X044766Y022425D01*
X044748Y022478D01*
X044735Y022532D01*
X044725Y022586D01*
X044719Y022641D01*
X044717Y022697D01*
X044284Y023307D02*
X043634Y023307D01*
X043634Y023583D01*
X044284Y023583D01*
X044913Y022697D02*
X044915Y022745D01*
X044921Y022793D01*
X044931Y022840D01*
X044944Y022886D01*
X044962Y022931D01*
X044982Y022975D01*
X045007Y023017D01*
X045035Y023056D01*
X045065Y023093D01*
X045099Y023127D01*
X045136Y023159D01*
X045174Y023188D01*
X045215Y023213D01*
X045258Y023235D01*
X045303Y023253D01*
X045349Y023267D01*
X045396Y023278D01*
X045444Y023285D01*
X045492Y023288D01*
X045540Y023287D01*
X045588Y023282D01*
X045636Y023273D01*
X045682Y023261D01*
X045727Y023244D01*
X045771Y023224D01*
X045813Y023201D01*
X045853Y023174D01*
X045891Y023144D01*
X045926Y023111D01*
X045958Y023075D01*
X045988Y023037D01*
X046014Y022996D01*
X046036Y022953D01*
X046056Y022909D01*
X046071Y022864D01*
X046083Y022817D01*
X046091Y022769D01*
X046095Y022721D01*
X046095Y022673D01*
X046091Y022625D01*
X046083Y022577D01*
X046071Y022530D01*
X046056Y022485D01*
X046036Y022441D01*
X046014Y022398D01*
X045988Y022357D01*
X045958Y022319D01*
X045926Y022283D01*
X045891Y022250D01*
X045853Y022220D01*
X045813Y022193D01*
X045771Y022170D01*
X045727Y022150D01*
X045682Y022133D01*
X045636Y022121D01*
X045588Y022112D01*
X045540Y022107D01*
X045492Y022106D01*
X045444Y022109D01*
X045396Y022116D01*
X045349Y022127D01*
X045303Y022141D01*
X045258Y022159D01*
X045215Y022181D01*
X045174Y022206D01*
X045136Y022235D01*
X045099Y022267D01*
X045065Y022301D01*
X045035Y022338D01*
X045007Y022377D01*
X044982Y022419D01*
X044962Y022463D01*
X044944Y022508D01*
X044931Y022554D01*
X044921Y022601D01*
X044915Y022649D01*
X044913Y022697D01*
X040926Y025484D02*
X034926Y025484D01*
X034926Y027484D01*
X035005Y027639D01*
X035076Y027797D01*
X035140Y027959D01*
X035196Y028123D01*
X035244Y028290D01*
X035285Y028458D01*
X035317Y028629D01*
X035342Y028801D01*
X035358Y028974D01*
X035366Y029147D01*
X035366Y029321D01*
X035358Y029494D01*
X035342Y029667D01*
X035317Y029839D01*
X035285Y030010D01*
X035244Y030178D01*
X035196Y030345D01*
X035140Y030509D01*
X035076Y030671D01*
X035005Y030829D01*
X034926Y030984D01*
X034926Y032734D01*
X040926Y032734D01*
X040926Y030984D01*
X043626Y029103D02*
X043626Y028827D01*
X044276Y028827D01*
X044276Y027508D01*
X044276Y027233D01*
X043626Y027233D01*
X043626Y027508D01*
X044276Y027508D01*
X044276Y027233D02*
X044276Y026898D01*
X046717Y026898D01*
X046717Y027233D01*
X047366Y027233D01*
X047366Y027508D01*
X046717Y027508D01*
X046717Y027233D01*
X046717Y027508D02*
X046717Y028827D01*
X047366Y028827D01*
X047366Y029103D01*
X046717Y029103D01*
X046717Y028827D01*
X046717Y029103D02*
X046717Y029438D01*
X044276Y029438D01*
X044276Y029103D01*
X044276Y028827D01*
X044276Y029103D02*
X043626Y029103D01*
X040926Y027484D02*
X040847Y027639D01*
X040776Y027797D01*
X040712Y027959D01*
X040656Y028123D01*
X040608Y028290D01*
X040567Y028458D01*
X040535Y028629D01*
X040510Y028801D01*
X040494Y028974D01*
X040486Y029147D01*
X040486Y029321D01*
X040494Y029494D01*
X040510Y029667D01*
X040535Y029839D01*
X040567Y030010D01*
X040608Y030178D01*
X040656Y030345D01*
X040712Y030509D01*
X040776Y030671D01*
X040847Y030829D01*
X040926Y030984D01*
X044709Y028217D02*
X044711Y028273D01*
X044717Y028328D01*
X044727Y028382D01*
X044740Y028436D01*
X044758Y028489D01*
X044779Y028540D01*
X044803Y028590D01*
X044831Y028638D01*
X044863Y028684D01*
X044897Y028728D01*
X044935Y028769D01*
X044975Y028807D01*
X045018Y028842D01*
X045063Y028874D01*
X045111Y028903D01*
X045160Y028929D01*
X045211Y028951D01*
X045263Y028969D01*
X045317Y028983D01*
X045372Y028994D01*
X045427Y029001D01*
X045482Y029004D01*
X045538Y029003D01*
X045593Y028998D01*
X045648Y028989D01*
X045702Y028977D01*
X045755Y028960D01*
X045807Y028940D01*
X045857Y028916D01*
X045905Y028889D01*
X045952Y028859D01*
X045996Y028825D01*
X046038Y028788D01*
X046076Y028748D01*
X046113Y028706D01*
X046146Y028661D01*
X046175Y028615D01*
X046202Y028566D01*
X046224Y028515D01*
X046244Y028463D01*
X046259Y028409D01*
X046271Y028355D01*
X046279Y028300D01*
X046283Y028245D01*
X046283Y028189D01*
X046279Y028134D01*
X046271Y028079D01*
X046259Y028025D01*
X046244Y027971D01*
X046224Y027919D01*
X046202Y027868D01*
X046175Y027819D01*
X046146Y027773D01*
X046113Y027728D01*
X046076Y027686D01*
X046038Y027646D01*
X045996Y027609D01*
X045952Y027575D01*
X045905Y027545D01*
X045857Y027518D01*
X045807Y027494D01*
X045755Y027474D01*
X045702Y027457D01*
X045648Y027445D01*
X045593Y027436D01*
X045538Y027431D01*
X045482Y027430D01*
X045427Y027433D01*
X045372Y027440D01*
X045317Y027451D01*
X045263Y027465D01*
X045211Y027483D01*
X045160Y027505D01*
X045111Y027531D01*
X045063Y027560D01*
X045018Y027592D01*
X044975Y027627D01*
X044935Y027665D01*
X044897Y027706D01*
X044863Y027750D01*
X044831Y027796D01*
X044803Y027844D01*
X044779Y027894D01*
X044758Y027945D01*
X044740Y027998D01*
X044727Y028052D01*
X044717Y028106D01*
X044711Y028161D01*
X044709Y028217D01*
X044905Y028217D02*
X044907Y028265D01*
X044913Y028313D01*
X044923Y028360D01*
X044936Y028406D01*
X044954Y028451D01*
X044974Y028495D01*
X044999Y028537D01*
X045027Y028576D01*
X045057Y028613D01*
X045091Y028647D01*
X045128Y028679D01*
X045166Y028708D01*
X045207Y028733D01*
X045250Y028755D01*
X045295Y028773D01*
X045341Y028787D01*
X045388Y028798D01*
X045436Y028805D01*
X045484Y028808D01*
X045532Y028807D01*
X045580Y028802D01*
X045628Y028793D01*
X045674Y028781D01*
X045719Y028764D01*
X045763Y028744D01*
X045805Y028721D01*
X045845Y028694D01*
X045883Y028664D01*
X045918Y028631D01*
X045950Y028595D01*
X045980Y028557D01*
X046006Y028516D01*
X046028Y028473D01*
X046048Y028429D01*
X046063Y028384D01*
X046075Y028337D01*
X046083Y028289D01*
X046087Y028241D01*
X046087Y028193D01*
X046083Y028145D01*
X046075Y028097D01*
X046063Y028050D01*
X046048Y028005D01*
X046028Y027961D01*
X046006Y027918D01*
X045980Y027877D01*
X045950Y027839D01*
X045918Y027803D01*
X045883Y027770D01*
X045845Y027740D01*
X045805Y027713D01*
X045763Y027690D01*
X045719Y027670D01*
X045674Y027653D01*
X045628Y027641D01*
X045580Y027632D01*
X045532Y027627D01*
X045484Y027626D01*
X045436Y027629D01*
X045388Y027636D01*
X045341Y027647D01*
X045295Y027661D01*
X045250Y027679D01*
X045207Y027701D01*
X045166Y027726D01*
X045128Y027755D01*
X045091Y027787D01*
X045057Y027821D01*
X045027Y027858D01*
X044999Y027897D01*
X044974Y027939D01*
X044954Y027983D01*
X044936Y028028D01*
X044923Y028074D01*
X044913Y028121D01*
X044907Y028169D01*
X044905Y028217D01*
X040926Y027484D02*
X040926Y025484D01*
X028376Y025198D02*
X028076Y025198D01*
X028076Y025649D01*
X027916Y025574D02*
X027916Y025273D01*
X027841Y025198D01*
X027690Y025198D01*
X027615Y025273D01*
X027615Y025574D01*
X027690Y025649D01*
X027841Y025649D01*
X027916Y025574D01*
X027459Y025649D02*
X027308Y025649D01*
X027384Y025649D02*
X027384Y025198D01*
X027459Y025198D02*
X027308Y025198D01*
X019776Y025198D02*
X019776Y025649D01*
X019776Y025423D02*
X019476Y025423D01*
X019316Y025273D02*
X019316Y025574D01*
X019241Y025649D01*
X019090Y025649D01*
X019015Y025574D01*
X019015Y025273D01*
X019090Y025198D01*
X019241Y025198D01*
X019316Y025273D01*
X019476Y025198D02*
X019476Y025649D01*
X018859Y025649D02*
X018708Y025649D01*
X018784Y025649D02*
X018784Y025198D01*
X018859Y025198D02*
X018708Y025198D01*
X043711Y012543D02*
X043711Y012267D01*
X044360Y012267D01*
X044360Y010948D01*
X044360Y010673D01*
X043711Y010673D01*
X043711Y010948D01*
X044360Y010948D01*
X044360Y010673D02*
X044360Y010338D01*
X046801Y010338D01*
X046801Y010673D01*
X047451Y010673D01*
X047451Y010948D01*
X046801Y010948D01*
X046801Y010673D01*
X046801Y010948D02*
X046801Y012267D01*
X047451Y012267D01*
X047451Y012543D01*
X046801Y012543D01*
X046801Y012267D01*
X046801Y012543D02*
X046801Y012878D01*
X044360Y012878D01*
X044360Y012543D01*
X044360Y012267D01*
X044360Y012543D02*
X043711Y012543D01*
X044794Y011657D02*
X044796Y011713D01*
X044802Y011768D01*
X044812Y011822D01*
X044825Y011876D01*
X044843Y011929D01*
X044864Y011980D01*
X044888Y012030D01*
X044916Y012078D01*
X044948Y012124D01*
X044982Y012168D01*
X045020Y012209D01*
X045060Y012247D01*
X045103Y012282D01*
X045148Y012314D01*
X045196Y012343D01*
X045245Y012369D01*
X045296Y012391D01*
X045348Y012409D01*
X045402Y012423D01*
X045457Y012434D01*
X045512Y012441D01*
X045567Y012444D01*
X045623Y012443D01*
X045678Y012438D01*
X045733Y012429D01*
X045787Y012417D01*
X045840Y012400D01*
X045892Y012380D01*
X045942Y012356D01*
X045990Y012329D01*
X046037Y012299D01*
X046081Y012265D01*
X046123Y012228D01*
X046161Y012188D01*
X046198Y012146D01*
X046231Y012101D01*
X046260Y012055D01*
X046287Y012006D01*
X046309Y011955D01*
X046329Y011903D01*
X046344Y011849D01*
X046356Y011795D01*
X046364Y011740D01*
X046368Y011685D01*
X046368Y011629D01*
X046364Y011574D01*
X046356Y011519D01*
X046344Y011465D01*
X046329Y011411D01*
X046309Y011359D01*
X046287Y011308D01*
X046260Y011259D01*
X046231Y011213D01*
X046198Y011168D01*
X046161Y011126D01*
X046123Y011086D01*
X046081Y011049D01*
X046037Y011015D01*
X045990Y010985D01*
X045942Y010958D01*
X045892Y010934D01*
X045840Y010914D01*
X045787Y010897D01*
X045733Y010885D01*
X045678Y010876D01*
X045623Y010871D01*
X045567Y010870D01*
X045512Y010873D01*
X045457Y010880D01*
X045402Y010891D01*
X045348Y010905D01*
X045296Y010923D01*
X045245Y010945D01*
X045196Y010971D01*
X045148Y011000D01*
X045103Y011032D01*
X045060Y011067D01*
X045020Y011105D01*
X044982Y011146D01*
X044948Y011190D01*
X044916Y011236D01*
X044888Y011284D01*
X044864Y011334D01*
X044843Y011385D01*
X044825Y011438D01*
X044812Y011492D01*
X044802Y011546D01*
X044796Y011601D01*
X044794Y011657D01*
X044990Y011657D02*
X044992Y011705D01*
X044998Y011753D01*
X045008Y011800D01*
X045021Y011846D01*
X045039Y011891D01*
X045059Y011935D01*
X045084Y011977D01*
X045112Y012016D01*
X045142Y012053D01*
X045176Y012087D01*
X045213Y012119D01*
X045251Y012148D01*
X045292Y012173D01*
X045335Y012195D01*
X045380Y012213D01*
X045426Y012227D01*
X045473Y012238D01*
X045521Y012245D01*
X045569Y012248D01*
X045617Y012247D01*
X045665Y012242D01*
X045713Y012233D01*
X045759Y012221D01*
X045804Y012204D01*
X045848Y012184D01*
X045890Y012161D01*
X045930Y012134D01*
X045968Y012104D01*
X046003Y012071D01*
X046035Y012035D01*
X046065Y011997D01*
X046091Y011956D01*
X046113Y011913D01*
X046133Y011869D01*
X046148Y011824D01*
X046160Y011777D01*
X046168Y011729D01*
X046172Y011681D01*
X046172Y011633D01*
X046168Y011585D01*
X046160Y011537D01*
X046148Y011490D01*
X046133Y011445D01*
X046113Y011401D01*
X046091Y011358D01*
X046065Y011317D01*
X046035Y011279D01*
X046003Y011243D01*
X045968Y011210D01*
X045930Y011180D01*
X045890Y011153D01*
X045848Y011130D01*
X045804Y011110D01*
X045759Y011093D01*
X045713Y011081D01*
X045665Y011072D01*
X045617Y011067D01*
X045569Y011066D01*
X045521Y011069D01*
X045473Y011076D01*
X045426Y011087D01*
X045380Y011101D01*
X045335Y011119D01*
X045292Y011141D01*
X045251Y011166D01*
X045213Y011195D01*
X045176Y011227D01*
X045142Y011261D01*
X045112Y011298D01*
X045084Y011337D01*
X045059Y011379D01*
X045039Y011423D01*
X045021Y011468D01*
X045008Y011514D01*
X044998Y011561D01*
X044992Y011609D01*
X044990Y011657D01*
X044558Y007380D02*
X044558Y007046D01*
X044558Y006770D01*
X044558Y005451D01*
X044558Y005175D01*
X043909Y005175D01*
X043909Y005451D01*
X044558Y005451D01*
X044558Y005175D02*
X044558Y004841D01*
X046999Y004841D01*
X046999Y005175D01*
X047649Y005175D01*
X047649Y005451D01*
X046999Y005451D01*
X046999Y005175D01*
X046999Y005451D02*
X046999Y006770D01*
X047649Y006770D01*
X047649Y007046D01*
X046999Y007046D01*
X046999Y006770D01*
X046999Y007046D02*
X046999Y007380D01*
X044558Y007380D01*
X044558Y007046D02*
X043909Y007046D01*
X043909Y006770D01*
X044558Y006770D01*
X044992Y006160D02*
X044994Y006216D01*
X045000Y006271D01*
X045010Y006325D01*
X045023Y006379D01*
X045041Y006432D01*
X045062Y006483D01*
X045086Y006533D01*
X045114Y006581D01*
X045146Y006627D01*
X045180Y006671D01*
X045218Y006712D01*
X045258Y006750D01*
X045301Y006785D01*
X045346Y006817D01*
X045394Y006846D01*
X045443Y006872D01*
X045494Y006894D01*
X045546Y006912D01*
X045600Y006926D01*
X045655Y006937D01*
X045710Y006944D01*
X045765Y006947D01*
X045821Y006946D01*
X045876Y006941D01*
X045931Y006932D01*
X045985Y006920D01*
X046038Y006903D01*
X046090Y006883D01*
X046140Y006859D01*
X046188Y006832D01*
X046235Y006802D01*
X046279Y006768D01*
X046321Y006731D01*
X046359Y006691D01*
X046396Y006649D01*
X046429Y006604D01*
X046458Y006558D01*
X046485Y006509D01*
X046507Y006458D01*
X046527Y006406D01*
X046542Y006352D01*
X046554Y006298D01*
X046562Y006243D01*
X046566Y006188D01*
X046566Y006132D01*
X046562Y006077D01*
X046554Y006022D01*
X046542Y005968D01*
X046527Y005914D01*
X046507Y005862D01*
X046485Y005811D01*
X046458Y005762D01*
X046429Y005716D01*
X046396Y005671D01*
X046359Y005629D01*
X046321Y005589D01*
X046279Y005552D01*
X046235Y005518D01*
X046188Y005488D01*
X046140Y005461D01*
X046090Y005437D01*
X046038Y005417D01*
X045985Y005400D01*
X045931Y005388D01*
X045876Y005379D01*
X045821Y005374D01*
X045765Y005373D01*
X045710Y005376D01*
X045655Y005383D01*
X045600Y005394D01*
X045546Y005408D01*
X045494Y005426D01*
X045443Y005448D01*
X045394Y005474D01*
X045346Y005503D01*
X045301Y005535D01*
X045258Y005570D01*
X045218Y005608D01*
X045180Y005649D01*
X045146Y005693D01*
X045114Y005739D01*
X045086Y005787D01*
X045062Y005837D01*
X045041Y005888D01*
X045023Y005941D01*
X045010Y005995D01*
X045000Y006049D01*
X044994Y006104D01*
X044992Y006160D01*
X045188Y006160D02*
X045190Y006208D01*
X045196Y006256D01*
X045206Y006303D01*
X045219Y006349D01*
X045237Y006394D01*
X045257Y006438D01*
X045282Y006480D01*
X045310Y006519D01*
X045340Y006556D01*
X045374Y006590D01*
X045411Y006622D01*
X045449Y006651D01*
X045490Y006676D01*
X045533Y006698D01*
X045578Y006716D01*
X045624Y006730D01*
X045671Y006741D01*
X045719Y006748D01*
X045767Y006751D01*
X045815Y006750D01*
X045863Y006745D01*
X045911Y006736D01*
X045957Y006724D01*
X046002Y006707D01*
X046046Y006687D01*
X046088Y006664D01*
X046128Y006637D01*
X046166Y006607D01*
X046201Y006574D01*
X046233Y006538D01*
X046263Y006500D01*
X046289Y006459D01*
X046311Y006416D01*
X046331Y006372D01*
X046346Y006327D01*
X046358Y006280D01*
X046366Y006232D01*
X046370Y006184D01*
X046370Y006136D01*
X046366Y006088D01*
X046358Y006040D01*
X046346Y005993D01*
X046331Y005948D01*
X046311Y005904D01*
X046289Y005861D01*
X046263Y005820D01*
X046233Y005782D01*
X046201Y005746D01*
X046166Y005713D01*
X046128Y005683D01*
X046088Y005656D01*
X046046Y005633D01*
X046002Y005613D01*
X045957Y005596D01*
X045911Y005584D01*
X045863Y005575D01*
X045815Y005570D01*
X045767Y005569D01*
X045719Y005572D01*
X045671Y005579D01*
X045624Y005590D01*
X045578Y005604D01*
X045533Y005622D01*
X045490Y005644D01*
X045449Y005669D01*
X045411Y005698D01*
X045374Y005730D01*
X045340Y005764D01*
X045310Y005801D01*
X045282Y005840D01*
X045257Y005882D01*
X045237Y005926D01*
X045219Y005971D01*
X045206Y006017D01*
X045196Y006064D01*
X045190Y006112D01*
X045188Y006160D01*
X023237Y008213D02*
X023237Y008514D01*
X023162Y008589D01*
X022937Y008589D01*
X022937Y008138D01*
X023162Y008138D01*
X023237Y008213D01*
X022776Y008138D02*
X022776Y008439D01*
X022626Y008589D01*
X022476Y008439D01*
X022476Y008138D01*
X022476Y008363D02*
X022776Y008363D01*
X015618Y008363D02*
X015543Y008288D01*
X015318Y008288D01*
X015318Y008138D02*
X015318Y008589D01*
X015543Y008589D01*
X015618Y008514D01*
X015618Y008363D01*
X015468Y008288D02*
X015618Y008138D01*
X015158Y008138D02*
X014857Y008138D01*
X014857Y008589D01*
X015158Y008589D01*
X015007Y008363D02*
X014857Y008363D01*
X014697Y008138D02*
X014697Y008589D01*
X014397Y008589D02*
X014397Y008138D01*
X014547Y008288D01*
X014697Y008138D01*
X014237Y008213D02*
X014237Y008514D01*
X014162Y008589D01*
X014012Y008589D01*
X013937Y008514D01*
X013937Y008213D01*
X014012Y008138D01*
X014162Y008138D01*
X014237Y008213D01*
X013776Y008363D02*
X013701Y008288D01*
X013476Y008288D01*
X013476Y008138D02*
X013476Y008589D01*
X013701Y008589D01*
X013776Y008514D01*
X013776Y008363D01*
X008455Y006468D02*
X008154Y006468D01*
X008305Y006468D02*
X008305Y006918D01*
X008154Y006768D01*
X007994Y006693D02*
X007919Y006618D01*
X007694Y006618D01*
X007694Y006468D02*
X007694Y006918D01*
X007919Y006918D01*
X007994Y006843D01*
X007994Y006693D01*
X007534Y006918D02*
X007384Y006918D01*
X007459Y006918D02*
X007459Y006543D01*
X007384Y006468D01*
X007309Y006468D01*
X007234Y006543D01*
D329*
X005174Y009295D02*
X004867Y009295D01*
X005174Y009602D01*
X005174Y009679D01*
X005097Y009756D01*
X004944Y009756D01*
X004867Y009679D01*
X004714Y009679D02*
X004714Y009525D01*
X004637Y009449D01*
X004407Y009449D01*
X004560Y009449D02*
X004714Y009295D01*
X004407Y009295D02*
X004407Y009756D01*
X004637Y009756D01*
X004714Y009679D01*
X022674Y019546D02*
X022674Y020007D01*
X022905Y020007D01*
X022981Y019930D01*
X022981Y019777D01*
X022905Y019700D01*
X022674Y019700D01*
X022828Y019700D02*
X022981Y019546D01*
X023135Y019623D02*
X023211Y019546D01*
X023365Y019546D01*
X023442Y019623D01*
X023442Y019777D01*
X023365Y019853D01*
X023288Y019853D01*
X023135Y019777D01*
X023135Y020007D01*
X023442Y020007D01*
X024476Y020037D02*
X024476Y019576D01*
X024476Y019730D02*
X024706Y019730D01*
X024783Y019807D01*
X024783Y019960D01*
X024706Y020037D01*
X024476Y020037D01*
X024629Y019730D02*
X024783Y019576D01*
X024936Y019653D02*
X024936Y019807D01*
X025167Y019807D01*
X025243Y019730D01*
X025243Y019653D01*
X025167Y019576D01*
X025013Y019576D01*
X024936Y019653D01*
X024936Y019807D02*
X025090Y019960D01*
X025243Y020037D01*
X026641Y020067D02*
X026641Y019606D01*
X026641Y019760D02*
X026872Y019760D01*
X026948Y019837D01*
X026948Y019990D01*
X026872Y020067D01*
X026641Y020067D01*
X026795Y019760D02*
X026948Y019606D01*
X027102Y019683D02*
X027178Y019606D01*
X027332Y019606D01*
X027409Y019683D01*
X027409Y019760D01*
X027332Y019837D01*
X027255Y019837D01*
X027332Y019837D02*
X027409Y019913D01*
X027409Y019990D01*
X027332Y020067D01*
X027178Y020067D01*
X027102Y019990D01*
X028353Y020067D02*
X028353Y019606D01*
X028353Y019760D02*
X028583Y019760D01*
X028660Y019837D01*
X028660Y019990D01*
X028583Y020067D01*
X028353Y020067D01*
X028506Y019760D02*
X028660Y019606D01*
X028813Y019837D02*
X029120Y019837D01*
X029044Y020067D02*
X029044Y019606D01*
X028813Y019837D02*
X029044Y020067D01*
X033420Y023346D02*
X033497Y023270D01*
X033650Y023270D01*
X033727Y023346D01*
X033881Y023270D02*
X034188Y023270D01*
X034034Y023270D02*
X034034Y023730D01*
X033881Y023576D01*
X033727Y023653D02*
X033650Y023730D01*
X033497Y023730D01*
X033420Y023653D01*
X033420Y023346D01*
X034341Y023500D02*
X034648Y023500D01*
X034571Y023730D02*
X034341Y023500D01*
X034571Y023270D02*
X034571Y023730D01*
X035946Y025234D02*
X036253Y025234D01*
X036100Y025081D02*
X036100Y025388D01*
X033039Y025368D02*
X032962Y025292D01*
X032808Y025292D01*
X032732Y025368D01*
X032578Y025368D02*
X032502Y025292D01*
X032348Y025292D01*
X032271Y025368D01*
X032271Y025675D01*
X032348Y025752D01*
X032502Y025752D01*
X032578Y025675D01*
X032732Y025675D02*
X032808Y025752D01*
X032962Y025752D01*
X033039Y025675D01*
X033039Y025599D01*
X032962Y025522D01*
X033039Y025445D01*
X033039Y025368D01*
X032962Y025522D02*
X032885Y025522D01*
X032118Y025752D02*
X031964Y025752D01*
X032041Y025752D02*
X032041Y025292D01*
X031964Y025292D02*
X032118Y025292D01*
X036086Y029085D02*
X036086Y029546D01*
X036239Y029546D02*
X035932Y029546D01*
X036393Y029546D02*
X036393Y029085D01*
X036393Y029315D02*
X036700Y029315D01*
X036853Y029315D02*
X037007Y029315D01*
X036853Y029085D02*
X037160Y029085D01*
X037314Y029085D02*
X037314Y029546D01*
X037544Y029546D01*
X037620Y029469D01*
X037620Y029315D01*
X037544Y029239D01*
X037314Y029239D01*
X037467Y029239D02*
X037620Y029085D01*
X037774Y029085D02*
X037774Y029546D01*
X037927Y029392D01*
X038081Y029546D01*
X038081Y029085D01*
X038234Y029009D02*
X038541Y029009D01*
X038695Y029162D02*
X038771Y029085D01*
X038925Y029085D01*
X039002Y029162D01*
X039155Y029162D02*
X039232Y029085D01*
X039385Y029085D01*
X039462Y029162D01*
X039462Y029469D01*
X039385Y029546D01*
X039232Y029546D01*
X039155Y029469D01*
X039155Y029162D01*
X039002Y029469D02*
X038925Y029546D01*
X038771Y029546D01*
X038695Y029469D01*
X038695Y029162D01*
X039615Y029085D02*
X039615Y029546D01*
X039922Y029085D01*
X039922Y029546D01*
X037160Y029546D02*
X036853Y029546D01*
X036853Y029085D01*
X036700Y029085D02*
X036700Y029546D01*
X039316Y024375D02*
X039469Y024375D01*
X039546Y024298D01*
X039546Y024068D01*
X039699Y024068D02*
X039239Y024068D01*
X039239Y024298D01*
X039316Y024375D01*
X039239Y023914D02*
X039699Y023914D01*
X039699Y023608D02*
X039239Y023608D01*
X039392Y023761D01*
X039239Y023914D01*
X039392Y023454D02*
X039699Y023454D01*
X039469Y023454D02*
X039469Y023147D01*
X039392Y023147D02*
X039239Y023301D01*
X039392Y023454D01*
X039392Y023147D02*
X039699Y023147D01*
X039699Y022994D02*
X039699Y022687D01*
X039239Y022687D01*
X039316Y018600D02*
X039469Y018600D01*
X039546Y018523D01*
X039546Y018293D01*
X039546Y018446D02*
X039699Y018600D01*
X039699Y018293D02*
X039239Y018293D01*
X039239Y018523D01*
X039316Y018600D01*
X039239Y018139D02*
X039699Y018139D01*
X039546Y017986D01*
X039699Y017832D01*
X039239Y017832D01*
X039316Y017679D02*
X039469Y017679D01*
X039546Y017602D01*
X039546Y017372D01*
X039699Y017372D02*
X039239Y017372D01*
X039239Y017602D01*
X039316Y017679D01*
X038576Y017362D02*
X038458Y017362D01*
X037800Y017215D02*
X037339Y017215D01*
X037339Y017446D01*
X037416Y017522D01*
X037570Y017522D01*
X037646Y017446D01*
X037646Y017215D01*
X037646Y017369D02*
X037800Y017522D01*
X037800Y017676D02*
X037339Y017676D01*
X037800Y017983D01*
X037339Y017983D01*
X037493Y018136D02*
X037339Y018290D01*
X037800Y018290D01*
X037800Y018443D02*
X037800Y018136D01*
X038458Y018582D02*
X038576Y018582D01*
X039235Y013174D02*
X039695Y013174D01*
X039235Y012868D01*
X039695Y012868D01*
X039695Y012714D02*
X039388Y012714D01*
X039235Y012561D01*
X039388Y012407D01*
X039695Y012407D01*
X039465Y012407D02*
X039465Y012714D01*
X039235Y012254D02*
X039235Y011947D01*
X039695Y011947D01*
X039465Y011947D02*
X039465Y012100D01*
X027649Y015656D02*
X027342Y015656D01*
X027189Y015656D02*
X027035Y015809D01*
X026959Y015656D02*
X026882Y015732D01*
X026882Y016039D01*
X026959Y016116D01*
X027112Y016116D01*
X027189Y016039D01*
X027189Y015732D01*
X027112Y015656D01*
X026959Y015656D01*
X027342Y015963D02*
X027496Y016116D01*
X027496Y015656D01*
X023712Y015643D02*
X023405Y015643D01*
X023712Y015950D01*
X023712Y016026D01*
X023635Y016103D01*
X023482Y016103D01*
X023405Y016026D01*
X023252Y016026D02*
X023252Y015719D01*
X023175Y015643D01*
X023022Y015643D01*
X022945Y015719D01*
X022945Y016026D01*
X023022Y016103D01*
X023175Y016103D01*
X023252Y016026D01*
X023098Y015796D02*
X023252Y015643D01*
X009798Y023533D02*
X009491Y023533D01*
X009644Y023533D02*
X009644Y023994D01*
X009491Y023840D01*
X009337Y023763D02*
X009261Y023687D01*
X009031Y023687D01*
X009184Y023687D02*
X009337Y023533D01*
X009337Y023763D02*
X009337Y023917D01*
X009261Y023994D01*
X009031Y023994D01*
X009031Y023533D01*
X012563Y024839D02*
X012563Y025299D01*
X012793Y025299D01*
X012870Y025222D01*
X012870Y025069D01*
X012793Y024992D01*
X012563Y024992D01*
X012717Y024992D02*
X012870Y024839D01*
X013024Y024839D02*
X013024Y025299D01*
X013331Y024839D01*
X013331Y025299D01*
X013484Y025222D02*
X013561Y025299D01*
X013714Y025299D01*
X013791Y025222D01*
X013791Y025145D01*
X013484Y024839D01*
X013791Y024839D01*
X014284Y025047D02*
X014284Y025165D01*
X015505Y025165D02*
X015505Y025047D01*
X010620Y028297D02*
X010620Y028758D01*
X010467Y028758D02*
X010773Y028758D01*
X010313Y028758D02*
X010313Y028374D01*
X010236Y028297D01*
X010083Y028297D01*
X010006Y028374D01*
X010006Y028758D01*
X009853Y028681D02*
X009853Y028374D01*
X009776Y028297D01*
X009623Y028297D01*
X009546Y028374D01*
X009546Y028681D01*
X009623Y028758D01*
X009776Y028758D01*
X009853Y028681D01*
X008932Y028681D02*
X008932Y028528D01*
X008855Y028451D01*
X008625Y028451D01*
X008778Y028451D02*
X008932Y028297D01*
X009085Y028221D02*
X009392Y028221D01*
X008932Y028681D02*
X008855Y028758D01*
X008625Y028758D01*
X008625Y028297D01*
X008472Y028297D02*
X008165Y028297D01*
X008165Y028758D01*
X008472Y028758D01*
X008318Y028528D02*
X008165Y028528D01*
X008011Y028758D02*
X008011Y028297D01*
X007858Y028451D01*
X007704Y028297D01*
X007704Y028758D01*
X007551Y028681D02*
X007474Y028758D01*
X007321Y028758D01*
X007244Y028681D01*
X007244Y028374D01*
X007321Y028297D01*
X007474Y028297D01*
X007551Y028374D01*
X007551Y028681D01*
X007090Y028681D02*
X007090Y028528D01*
X007014Y028451D01*
X006783Y028451D01*
X006783Y028297D02*
X006783Y028758D01*
X007014Y028758D01*
X007090Y028681D01*
D330*
X006293Y028280D02*
X006175Y028280D01*
X006175Y032280D01*
X006293Y032280D01*
X006293Y028280D01*
X006175Y028280D02*
X006008Y028280D01*
X005930Y028280D01*
X005930Y032280D01*
X006175Y032280D01*
X005930Y032280D02*
X005662Y032280D01*
X005468Y032280D01*
X003895Y032280D01*
X003705Y032280D01*
X003104Y032280D01*
X003104Y028280D01*
X003705Y028280D01*
X003895Y028280D01*
X005468Y028280D01*
X005662Y028280D01*
X005662Y032280D01*
X003935Y031280D02*
X003937Y031334D01*
X003943Y031389D01*
X003953Y031442D01*
X003966Y031495D01*
X003984Y031546D01*
X004005Y031597D01*
X004029Y031645D01*
X004057Y031692D01*
X004089Y031736D01*
X004123Y031778D01*
X004161Y031818D01*
X004201Y031855D01*
X004244Y031888D01*
X004289Y031919D01*
X004336Y031946D01*
X004385Y031970D01*
X004435Y031990D01*
X004487Y032007D01*
X004540Y032019D01*
X004594Y032028D01*
X004648Y032033D01*
X004703Y032034D01*
X004757Y032031D01*
X004811Y032024D01*
X004864Y032013D01*
X004917Y031999D01*
X004968Y031980D01*
X005018Y031958D01*
X005066Y031933D01*
X005112Y031904D01*
X005156Y031872D01*
X005198Y031837D01*
X005236Y031799D01*
X005272Y031758D01*
X005305Y031714D01*
X005335Y031669D01*
X005361Y031621D01*
X005384Y031572D01*
X005404Y031521D01*
X005419Y031469D01*
X005431Y031415D01*
X005439Y031362D01*
X005443Y031307D01*
X005443Y031253D01*
X005439Y031198D01*
X005431Y031145D01*
X005419Y031091D01*
X005404Y031039D01*
X005384Y030988D01*
X005361Y030939D01*
X005335Y030891D01*
X005305Y030846D01*
X005272Y030802D01*
X005236Y030761D01*
X005198Y030723D01*
X005156Y030688D01*
X005112Y030656D01*
X005066Y030627D01*
X005018Y030602D01*
X004968Y030580D01*
X004917Y030561D01*
X004864Y030547D01*
X004811Y030536D01*
X004757Y030529D01*
X004703Y030526D01*
X004648Y030527D01*
X004594Y030532D01*
X004540Y030541D01*
X004487Y030553D01*
X004435Y030570D01*
X004385Y030590D01*
X004336Y030614D01*
X004289Y030641D01*
X004244Y030672D01*
X004201Y030705D01*
X004161Y030742D01*
X004123Y030782D01*
X004089Y030824D01*
X004057Y030868D01*
X004029Y030915D01*
X004005Y030963D01*
X003984Y031014D01*
X003966Y031065D01*
X003953Y031118D01*
X003943Y031171D01*
X003937Y031226D01*
X003935Y031280D01*
X003705Y032280D02*
X003705Y028280D01*
X003713Y027598D02*
X003112Y027598D01*
X003112Y023598D01*
X003713Y023598D01*
X003903Y023598D01*
X005476Y023598D01*
X005670Y023598D01*
X005670Y027598D01*
X005938Y027598D01*
X006183Y027598D01*
X006301Y027598D01*
X006301Y023598D01*
X006183Y023598D01*
X006183Y027598D01*
X005938Y027598D02*
X005938Y023598D01*
X006016Y023598D01*
X006183Y023598D01*
X006075Y023477D02*
X006016Y023547D01*
X006016Y023598D01*
X005938Y023598D02*
X005853Y023598D01*
X005670Y023598D01*
X005794Y023477D02*
X005853Y023547D01*
X005853Y023598D01*
X005794Y023477D02*
X005794Y023373D01*
X006075Y023373D01*
X006075Y023477D01*
X003943Y024598D02*
X003945Y024652D01*
X003951Y024707D01*
X003961Y024760D01*
X003974Y024813D01*
X003992Y024864D01*
X004013Y024915D01*
X004037Y024963D01*
X004065Y025010D01*
X004097Y025054D01*
X004131Y025096D01*
X004169Y025136D01*
X004209Y025173D01*
X004252Y025206D01*
X004297Y025237D01*
X004344Y025264D01*
X004393Y025288D01*
X004443Y025308D01*
X004495Y025325D01*
X004548Y025337D01*
X004602Y025346D01*
X004656Y025351D01*
X004711Y025352D01*
X004765Y025349D01*
X004819Y025342D01*
X004872Y025331D01*
X004925Y025317D01*
X004976Y025298D01*
X005026Y025276D01*
X005074Y025251D01*
X005120Y025222D01*
X005164Y025190D01*
X005206Y025155D01*
X005244Y025117D01*
X005280Y025076D01*
X005313Y025032D01*
X005343Y024987D01*
X005369Y024939D01*
X005392Y024890D01*
X005412Y024839D01*
X005427Y024787D01*
X005439Y024733D01*
X005447Y024680D01*
X005451Y024625D01*
X005451Y024571D01*
X005447Y024516D01*
X005439Y024463D01*
X005427Y024409D01*
X005412Y024357D01*
X005392Y024306D01*
X005369Y024257D01*
X005343Y024209D01*
X005313Y024164D01*
X005280Y024120D01*
X005244Y024079D01*
X005206Y024041D01*
X005164Y024006D01*
X005120Y023974D01*
X005074Y023945D01*
X005026Y023920D01*
X004976Y023898D01*
X004925Y023879D01*
X004872Y023865D01*
X004819Y023854D01*
X004765Y023847D01*
X004711Y023844D01*
X004656Y023845D01*
X004602Y023850D01*
X004548Y023859D01*
X004495Y023871D01*
X004443Y023888D01*
X004393Y023908D01*
X004344Y023932D01*
X004297Y023959D01*
X004252Y023990D01*
X004209Y024023D01*
X004169Y024060D01*
X004131Y024100D01*
X004097Y024142D01*
X004065Y024186D01*
X004037Y024233D01*
X004013Y024281D01*
X003992Y024332D01*
X003974Y024383D01*
X003961Y024436D01*
X003951Y024489D01*
X003945Y024544D01*
X003943Y024598D01*
X003713Y023598D02*
X003713Y027598D01*
X003903Y027598D01*
X005476Y027598D01*
X005670Y027598D01*
X005786Y028056D02*
X006067Y028056D01*
X006067Y028159D01*
X006008Y028230D01*
X006008Y028280D01*
X005930Y028280D02*
X005845Y028280D01*
X005662Y028280D01*
X005786Y028159D02*
X005845Y028230D01*
X005845Y028280D01*
X005786Y028159D02*
X005786Y028056D01*
X003935Y029280D02*
X003937Y029334D01*
X003943Y029389D01*
X003953Y029442D01*
X003966Y029495D01*
X003984Y029546D01*
X004005Y029597D01*
X004029Y029645D01*
X004057Y029692D01*
X004089Y029736D01*
X004123Y029778D01*
X004161Y029818D01*
X004201Y029855D01*
X004244Y029888D01*
X004289Y029919D01*
X004336Y029946D01*
X004385Y029970D01*
X004435Y029990D01*
X004487Y030007D01*
X004540Y030019D01*
X004594Y030028D01*
X004648Y030033D01*
X004703Y030034D01*
X004757Y030031D01*
X004811Y030024D01*
X004864Y030013D01*
X004917Y029999D01*
X004968Y029980D01*
X005018Y029958D01*
X005066Y029933D01*
X005112Y029904D01*
X005156Y029872D01*
X005198Y029837D01*
X005236Y029799D01*
X005272Y029758D01*
X005305Y029714D01*
X005335Y029669D01*
X005361Y029621D01*
X005384Y029572D01*
X005404Y029521D01*
X005419Y029469D01*
X005431Y029415D01*
X005439Y029362D01*
X005443Y029307D01*
X005443Y029253D01*
X005439Y029198D01*
X005431Y029145D01*
X005419Y029091D01*
X005404Y029039D01*
X005384Y028988D01*
X005361Y028939D01*
X005335Y028891D01*
X005305Y028846D01*
X005272Y028802D01*
X005236Y028761D01*
X005198Y028723D01*
X005156Y028688D01*
X005112Y028656D01*
X005066Y028627D01*
X005018Y028602D01*
X004968Y028580D01*
X004917Y028561D01*
X004864Y028547D01*
X004811Y028536D01*
X004757Y028529D01*
X004703Y028526D01*
X004648Y028527D01*
X004594Y028532D01*
X004540Y028541D01*
X004487Y028553D01*
X004435Y028570D01*
X004385Y028590D01*
X004336Y028614D01*
X004289Y028641D01*
X004244Y028672D01*
X004201Y028705D01*
X004161Y028742D01*
X004123Y028782D01*
X004089Y028824D01*
X004057Y028868D01*
X004029Y028915D01*
X004005Y028963D01*
X003984Y029014D01*
X003966Y029065D01*
X003953Y029118D01*
X003943Y029171D01*
X003937Y029226D01*
X003935Y029280D01*
X003943Y026598D02*
X003945Y026652D01*
X003951Y026707D01*
X003961Y026760D01*
X003974Y026813D01*
X003992Y026864D01*
X004013Y026915D01*
X004037Y026963D01*
X004065Y027010D01*
X004097Y027054D01*
X004131Y027096D01*
X004169Y027136D01*
X004209Y027173D01*
X004252Y027206D01*
X004297Y027237D01*
X004344Y027264D01*
X004393Y027288D01*
X004443Y027308D01*
X004495Y027325D01*
X004548Y027337D01*
X004602Y027346D01*
X004656Y027351D01*
X004711Y027352D01*
X004765Y027349D01*
X004819Y027342D01*
X004872Y027331D01*
X004925Y027317D01*
X004976Y027298D01*
X005026Y027276D01*
X005074Y027251D01*
X005120Y027222D01*
X005164Y027190D01*
X005206Y027155D01*
X005244Y027117D01*
X005280Y027076D01*
X005313Y027032D01*
X005343Y026987D01*
X005369Y026939D01*
X005392Y026890D01*
X005412Y026839D01*
X005427Y026787D01*
X005439Y026733D01*
X005447Y026680D01*
X005451Y026625D01*
X005451Y026571D01*
X005447Y026516D01*
X005439Y026463D01*
X005427Y026409D01*
X005412Y026357D01*
X005392Y026306D01*
X005369Y026257D01*
X005343Y026209D01*
X005313Y026164D01*
X005280Y026120D01*
X005244Y026079D01*
X005206Y026041D01*
X005164Y026006D01*
X005120Y025974D01*
X005074Y025945D01*
X005026Y025920D01*
X004976Y025898D01*
X004925Y025879D01*
X004872Y025865D01*
X004819Y025854D01*
X004765Y025847D01*
X004711Y025844D01*
X004656Y025845D01*
X004602Y025850D01*
X004548Y025859D01*
X004495Y025871D01*
X004443Y025888D01*
X004393Y025908D01*
X004344Y025932D01*
X004297Y025959D01*
X004252Y025990D01*
X004209Y026023D01*
X004169Y026060D01*
X004131Y026100D01*
X004097Y026142D01*
X004065Y026186D01*
X004037Y026233D01*
X004013Y026281D01*
X003992Y026332D01*
X003974Y026383D01*
X003961Y026436D01*
X003951Y026489D01*
X003945Y026544D01*
X003943Y026598D01*
X003812Y018519D02*
X003812Y017905D01*
X004119Y017599D01*
X004426Y017905D01*
X004426Y018519D01*
X004733Y018519D02*
X005040Y018519D01*
X004887Y018519D02*
X004887Y017599D01*
X005040Y017599D02*
X004733Y017599D01*
X005347Y017599D02*
X005347Y018519D01*
X005961Y017599D01*
X005961Y018519D01*
X005955Y016180D02*
X005687Y016180D01*
X005494Y016180D01*
X003920Y016180D01*
X003730Y016180D01*
X003129Y016180D01*
X003129Y012180D01*
X003730Y012180D01*
X003920Y012180D01*
X005494Y012180D01*
X005687Y012180D01*
X005687Y016180D01*
X005955Y016180D02*
X006200Y016180D01*
X006318Y016180D01*
X006318Y012180D01*
X006200Y012180D01*
X006200Y016180D01*
X005955Y016180D02*
X005955Y012180D01*
X006034Y012180D01*
X006200Y012180D01*
X006093Y012059D02*
X006034Y012130D01*
X006034Y012180D01*
X005955Y012180D02*
X005871Y012180D01*
X005687Y012180D01*
X005811Y012059D02*
X005811Y011956D01*
X006093Y011956D01*
X006093Y012059D01*
X005871Y012130D02*
X005811Y012059D01*
X005871Y012130D02*
X005871Y012180D01*
X003960Y013180D02*
X003962Y013234D01*
X003968Y013289D01*
X003978Y013342D01*
X003991Y013395D01*
X004009Y013446D01*
X004030Y013497D01*
X004054Y013545D01*
X004082Y013592D01*
X004114Y013636D01*
X004148Y013678D01*
X004186Y013718D01*
X004226Y013755D01*
X004269Y013788D01*
X004314Y013819D01*
X004361Y013846D01*
X004410Y013870D01*
X004460Y013890D01*
X004512Y013907D01*
X004565Y013919D01*
X004619Y013928D01*
X004673Y013933D01*
X004728Y013934D01*
X004782Y013931D01*
X004836Y013924D01*
X004889Y013913D01*
X004942Y013899D01*
X004993Y013880D01*
X005043Y013858D01*
X005091Y013833D01*
X005137Y013804D01*
X005181Y013772D01*
X005223Y013737D01*
X005261Y013699D01*
X005297Y013658D01*
X005330Y013614D01*
X005360Y013569D01*
X005386Y013521D01*
X005409Y013472D01*
X005429Y013421D01*
X005444Y013369D01*
X005456Y013315D01*
X005464Y013262D01*
X005468Y013207D01*
X005468Y013153D01*
X005464Y013098D01*
X005456Y013045D01*
X005444Y012991D01*
X005429Y012939D01*
X005409Y012888D01*
X005386Y012839D01*
X005360Y012791D01*
X005330Y012746D01*
X005297Y012702D01*
X005261Y012661D01*
X005223Y012623D01*
X005181Y012588D01*
X005137Y012556D01*
X005091Y012527D01*
X005043Y012502D01*
X004993Y012480D01*
X004942Y012461D01*
X004889Y012447D01*
X004836Y012436D01*
X004782Y012429D01*
X004728Y012426D01*
X004673Y012427D01*
X004619Y012432D01*
X004565Y012441D01*
X004512Y012453D01*
X004460Y012470D01*
X004410Y012490D01*
X004361Y012514D01*
X004314Y012541D01*
X004269Y012572D01*
X004226Y012605D01*
X004186Y012642D01*
X004148Y012682D01*
X004114Y012724D01*
X004082Y012768D01*
X004054Y012815D01*
X004030Y012863D01*
X004009Y012914D01*
X003991Y012965D01*
X003978Y013018D01*
X003968Y013071D01*
X003962Y013126D01*
X003960Y013180D01*
X003730Y012180D02*
X003730Y016180D01*
X003960Y015180D02*
X003962Y015234D01*
X003968Y015289D01*
X003978Y015342D01*
X003991Y015395D01*
X004009Y015446D01*
X004030Y015497D01*
X004054Y015545D01*
X004082Y015592D01*
X004114Y015636D01*
X004148Y015678D01*
X004186Y015718D01*
X004226Y015755D01*
X004269Y015788D01*
X004314Y015819D01*
X004361Y015846D01*
X004410Y015870D01*
X004460Y015890D01*
X004512Y015907D01*
X004565Y015919D01*
X004619Y015928D01*
X004673Y015933D01*
X004728Y015934D01*
X004782Y015931D01*
X004836Y015924D01*
X004889Y015913D01*
X004942Y015899D01*
X004993Y015880D01*
X005043Y015858D01*
X005091Y015833D01*
X005137Y015804D01*
X005181Y015772D01*
X005223Y015737D01*
X005261Y015699D01*
X005297Y015658D01*
X005330Y015614D01*
X005360Y015569D01*
X005386Y015521D01*
X005409Y015472D01*
X005429Y015421D01*
X005444Y015369D01*
X005456Y015315D01*
X005464Y015262D01*
X005468Y015207D01*
X005468Y015153D01*
X005464Y015098D01*
X005456Y015045D01*
X005444Y014991D01*
X005429Y014939D01*
X005409Y014888D01*
X005386Y014839D01*
X005360Y014791D01*
X005330Y014746D01*
X005297Y014702D01*
X005261Y014661D01*
X005223Y014623D01*
X005181Y014588D01*
X005137Y014556D01*
X005091Y014527D01*
X005043Y014502D01*
X004993Y014480D01*
X004942Y014461D01*
X004889Y014447D01*
X004836Y014436D01*
X004782Y014429D01*
X004728Y014426D01*
X004673Y014427D01*
X004619Y014432D01*
X004565Y014441D01*
X004512Y014453D01*
X004460Y014470D01*
X004410Y014490D01*
X004361Y014514D01*
X004314Y014541D01*
X004269Y014572D01*
X004226Y014605D01*
X004186Y014642D01*
X004148Y014682D01*
X004114Y014724D01*
X004082Y014768D01*
X004054Y014815D01*
X004030Y014863D01*
X004009Y014914D01*
X003991Y014965D01*
X003978Y015018D01*
X003968Y015071D01*
X003962Y015126D01*
X003960Y015180D01*
X035717Y026276D02*
X035717Y026557D01*
X035821Y026557D01*
X035891Y026498D01*
X035941Y026498D01*
X035941Y026682D01*
X039941Y026682D01*
X039941Y026414D01*
X039941Y026169D01*
X039941Y026051D01*
X035941Y026051D01*
X035941Y026169D01*
X039941Y026169D01*
X039941Y026414D02*
X035941Y026414D01*
X035941Y026335D01*
X035941Y026169D01*
X035821Y026276D02*
X035891Y026335D01*
X035941Y026335D01*
X035941Y026414D02*
X035941Y026498D01*
X035941Y026682D02*
X035941Y026875D01*
X035941Y028449D01*
X035941Y028639D01*
X035941Y029240D01*
X039941Y029240D01*
X039941Y028639D01*
X039941Y028449D01*
X039941Y026875D01*
X039941Y026682D01*
X038187Y027655D02*
X038189Y027709D01*
X038195Y027764D01*
X038205Y027817D01*
X038218Y027870D01*
X038236Y027921D01*
X038257Y027972D01*
X038281Y028020D01*
X038309Y028067D01*
X038341Y028111D01*
X038375Y028153D01*
X038413Y028193D01*
X038453Y028230D01*
X038496Y028263D01*
X038541Y028294D01*
X038588Y028321D01*
X038637Y028345D01*
X038687Y028365D01*
X038739Y028382D01*
X038792Y028394D01*
X038846Y028403D01*
X038900Y028408D01*
X038955Y028409D01*
X039009Y028406D01*
X039063Y028399D01*
X039116Y028388D01*
X039169Y028374D01*
X039220Y028355D01*
X039270Y028333D01*
X039318Y028308D01*
X039364Y028279D01*
X039408Y028247D01*
X039450Y028212D01*
X039488Y028174D01*
X039524Y028133D01*
X039557Y028089D01*
X039587Y028044D01*
X039613Y027996D01*
X039636Y027947D01*
X039656Y027896D01*
X039671Y027844D01*
X039683Y027790D01*
X039691Y027737D01*
X039695Y027682D01*
X039695Y027628D01*
X039691Y027573D01*
X039683Y027520D01*
X039671Y027466D01*
X039656Y027414D01*
X039636Y027363D01*
X039613Y027314D01*
X039587Y027266D01*
X039557Y027221D01*
X039524Y027177D01*
X039488Y027136D01*
X039450Y027098D01*
X039408Y027063D01*
X039364Y027031D01*
X039318Y027002D01*
X039270Y026977D01*
X039220Y026955D01*
X039169Y026936D01*
X039116Y026922D01*
X039063Y026911D01*
X039009Y026904D01*
X038955Y026901D01*
X038900Y026902D01*
X038846Y026907D01*
X038792Y026916D01*
X038739Y026928D01*
X038687Y026945D01*
X038637Y026965D01*
X038588Y026989D01*
X038541Y027016D01*
X038496Y027047D01*
X038453Y027080D01*
X038413Y027117D01*
X038375Y027157D01*
X038341Y027199D01*
X038309Y027243D01*
X038281Y027290D01*
X038257Y027338D01*
X038236Y027389D01*
X038218Y027440D01*
X038205Y027493D01*
X038195Y027546D01*
X038189Y027601D01*
X038187Y027655D01*
X036187Y027655D02*
X036189Y027709D01*
X036195Y027764D01*
X036205Y027817D01*
X036218Y027870D01*
X036236Y027921D01*
X036257Y027972D01*
X036281Y028020D01*
X036309Y028067D01*
X036341Y028111D01*
X036375Y028153D01*
X036413Y028193D01*
X036453Y028230D01*
X036496Y028263D01*
X036541Y028294D01*
X036588Y028321D01*
X036637Y028345D01*
X036687Y028365D01*
X036739Y028382D01*
X036792Y028394D01*
X036846Y028403D01*
X036900Y028408D01*
X036955Y028409D01*
X037009Y028406D01*
X037063Y028399D01*
X037116Y028388D01*
X037169Y028374D01*
X037220Y028355D01*
X037270Y028333D01*
X037318Y028308D01*
X037364Y028279D01*
X037408Y028247D01*
X037450Y028212D01*
X037488Y028174D01*
X037524Y028133D01*
X037557Y028089D01*
X037587Y028044D01*
X037613Y027996D01*
X037636Y027947D01*
X037656Y027896D01*
X037671Y027844D01*
X037683Y027790D01*
X037691Y027737D01*
X037695Y027682D01*
X037695Y027628D01*
X037691Y027573D01*
X037683Y027520D01*
X037671Y027466D01*
X037656Y027414D01*
X037636Y027363D01*
X037613Y027314D01*
X037587Y027266D01*
X037557Y027221D01*
X037524Y027177D01*
X037488Y027136D01*
X037450Y027098D01*
X037408Y027063D01*
X037364Y027031D01*
X037318Y027002D01*
X037270Y026977D01*
X037220Y026955D01*
X037169Y026936D01*
X037116Y026922D01*
X037063Y026911D01*
X037009Y026904D01*
X036955Y026901D01*
X036900Y026902D01*
X036846Y026907D01*
X036792Y026916D01*
X036739Y026928D01*
X036687Y026945D01*
X036637Y026965D01*
X036588Y026989D01*
X036541Y027016D01*
X036496Y027047D01*
X036453Y027080D01*
X036413Y027117D01*
X036375Y027157D01*
X036341Y027199D01*
X036309Y027243D01*
X036281Y027290D01*
X036257Y027338D01*
X036236Y027389D01*
X036218Y027440D01*
X036205Y027493D01*
X036195Y027546D01*
X036189Y027601D01*
X036187Y027655D01*
X035941Y028639D02*
X039941Y028639D01*
X035821Y026276D02*
X035717Y026276D01*
D331*
X039944Y023425D03*
X040239Y023425D03*
X040239Y017913D03*
X039944Y017913D03*
X039944Y012614D03*
X040239Y012614D03*
D332*
X040091Y012614D03*
X040091Y017913D03*
X040091Y023425D03*
M02*
