G75*
G70*
%OFA0B0*%
%FSLAX24Y24*%
%IPPOS*%
%LPD*%
%AMOC8*
5,1,8,0,0,1.08239X$1,22.5*
%
%ADD10C,0.0000*%
%ADD11C,0.0160*%
%ADD12C,0.0090*%
%ADD13C,0.0060*%
%ADD14C,0.0110*%
%ADD15C,0.0070*%
%ADD16C,0.0030*%
%ADD17R,0.0120X0.0020*%
%ADD18R,0.0080X0.0020*%
%ADD19R,0.0140X0.0020*%
%ADD20R,0.0280X0.0020*%
%ADD21R,0.0160X0.0020*%
%ADD22R,0.0240X0.0020*%
%ADD23R,0.0260X0.0020*%
%ADD24R,0.0340X0.0020*%
%ADD25R,0.0380X0.0020*%
%ADD26R,0.0360X0.0020*%
%ADD27R,0.0180X0.0020*%
%ADD28R,0.0400X0.0020*%
%ADD29R,0.0440X0.0020*%
%ADD30R,0.0580X0.0020*%
%ADD31R,0.0560X0.0020*%
%ADD32R,0.0480X0.0020*%
%ADD33R,0.0600X0.0020*%
%ADD34R,0.0200X0.0020*%
%ADD35R,0.0520X0.0020*%
%ADD36R,0.0220X0.0020*%
%ADD37R,0.0040X0.0020*%
%ADD38R,0.0640X0.0020*%
%ADD39R,0.0660X0.0020*%
%ADD40R,0.0540X0.0020*%
%ADD41R,0.0500X0.0020*%
%ADD42R,0.0420X0.0020*%
%ADD43R,0.0020X0.0020*%
%ADD44R,0.0060X0.0020*%
%ADD45R,0.0100X0.0020*%
%ADD46R,0.0460X0.0020*%
%ADD47R,0.0320X0.0020*%
%ADD48R,0.0300X0.0020*%
%ADD49R,0.0700X0.0020*%
%ADD50R,0.0740X0.0020*%
%ADD51R,0.0800X0.0020*%
%ADD52R,0.0840X0.0020*%
%ADD53R,0.0900X0.0020*%
%ADD54R,0.0940X0.0020*%
%ADD55R,0.1000X0.0020*%
%ADD56R,0.1420X0.0020*%
%ADD57R,0.1460X0.0020*%
%ADD58R,0.1480X0.0020*%
%ADD59R,0.1520X0.0020*%
%ADD60R,0.1540X0.0020*%
%ADD61R,0.1580X0.0020*%
%ADD62R,0.1600X0.0020*%
%ADD63R,0.1620X0.0020*%
%ADD64R,0.1640X0.0020*%
%ADD65R,0.1560X0.0020*%
%ADD66R,0.1500X0.0020*%
%ADD67R,0.1660X0.0020*%
%ADD68R,0.1680X0.0020*%
%ADD69R,0.1700X0.0020*%
%ADD70R,0.1720X0.0020*%
%ADD71R,0.1740X0.0020*%
%ADD72R,0.1760X0.0020*%
%ADD73R,0.1820X0.0020*%
%ADD74R,0.1900X0.0020*%
%ADD75R,0.2000X0.0020*%
%ADD76R,0.2100X0.0020*%
%ADD77R,0.2180X0.0020*%
%ADD78R,0.2220X0.0020*%
%ADD79R,0.2200X0.0020*%
%ADD80R,0.2160X0.0020*%
%ADD81R,0.2140X0.0020*%
%ADD82R,0.2120X0.0020*%
%ADD83R,0.2020X0.0020*%
%ADD84R,0.1920X0.0020*%
%ADD85R,0.1840X0.0020*%
%ADD86R,0.1880X0.0020*%
%ADD87R,0.4100X0.0020*%
%ADD88R,0.4060X0.0020*%
%ADD89R,0.4020X0.0020*%
%ADD90R,0.3980X0.0020*%
%ADD91R,0.3940X0.0020*%
%ADD92R,0.3900X0.0020*%
%ADD93R,0.3860X0.0020*%
%ADD94R,0.3880X0.0020*%
%ADD95R,0.4140X0.0020*%
%ADD96R,0.4180X0.0020*%
%ADD97R,0.4220X0.0020*%
%ADD98R,0.4260X0.0020*%
%ADD99R,0.4300X0.0020*%
%ADD100R,0.4340X0.0020*%
%ADD101R,0.4380X0.0020*%
%ADD102R,0.4420X0.0020*%
%ADD103R,0.4460X0.0020*%
%ADD104R,0.4500X0.0020*%
%ADD105R,0.4540X0.0020*%
%ADD106R,0.4580X0.0020*%
%ADD107R,0.4620X0.0020*%
%ADD108R,0.4660X0.0020*%
%ADD109R,0.4700X0.0020*%
%ADD110R,0.4740X0.0020*%
%ADD111R,0.1100X0.0020*%
%ADD112R,0.1040X0.0020*%
%ADD113R,0.2060X0.0020*%
%ADD114R,0.1940X0.0020*%
%ADD115R,0.1860X0.0020*%
%ADD116R,0.1780X0.0020*%
%ADD117R,0.0760X0.0020*%
%ADD118R,0.1380X0.0020*%
%ADD119R,0.1260X0.0020*%
%ADD120R,0.1180X0.0020*%
%ADD121R,0.1140X0.0020*%
%ADD122R,0.1060X0.0020*%
%ADD123R,0.1020X0.0020*%
%ADD124R,0.0980X0.0020*%
%ADD125R,0.0860X0.0020*%
%ADD126R,0.0820X0.0020*%
%ADD127R,0.0780X0.0020*%
%ADD128R,0.0030X0.0030*%
%ADD129R,0.0060X0.0030*%
%ADD130R,0.0090X0.0030*%
%ADD131R,0.0120X0.0030*%
%ADD132R,0.0150X0.0030*%
%ADD133R,0.0180X0.0030*%
%ADD134R,0.0210X0.0030*%
%ADD135R,0.0240X0.0030*%
%ADD136R,0.0270X0.0030*%
%ADD137R,0.0300X0.0030*%
%ADD138R,0.0330X0.0030*%
%ADD139R,0.0360X0.0030*%
%ADD140R,0.0390X0.0030*%
%ADD141R,0.0420X0.0030*%
%ADD142R,0.0450X0.0030*%
%ADD143R,0.0480X0.0030*%
%ADD144R,0.0510X0.0030*%
%ADD145R,0.0540X0.0030*%
%ADD146R,0.0600X0.0030*%
%ADD147R,0.0630X0.0030*%
%ADD148R,0.0660X0.0030*%
%ADD149R,0.0570X0.0030*%
%ADD150R,0.0690X0.0030*%
%ADD151R,0.0720X0.0030*%
%ADD152R,0.0750X0.0030*%
%ADD153R,0.0810X0.0030*%
%ADD154R,0.0840X0.0030*%
%ADD155R,0.0870X0.0030*%
%ADD156R,0.0900X0.0030*%
%ADD157R,0.0930X0.0030*%
%ADD158R,0.0960X0.0030*%
%ADD159R,0.0780X0.0030*%
%ADD160R,0.0990X0.0030*%
%ADD161R,0.1020X0.0030*%
%ADD162R,0.1050X0.0030*%
%ADD163R,0.1080X0.0030*%
%ADD164R,0.1110X0.0030*%
%ADD165R,0.1140X0.0030*%
%ADD166R,0.1200X0.0030*%
%ADD167R,0.1230X0.0030*%
%ADD168R,0.1260X0.0030*%
%ADD169R,0.1290X0.0030*%
%ADD170R,0.1320X0.0030*%
%ADD171R,0.1350X0.0030*%
%ADD172R,0.1410X0.0030*%
%ADD173R,0.1440X0.0030*%
%ADD174R,0.1470X0.0030*%
%ADD175R,0.1500X0.0030*%
%ADD176R,0.1170X0.0030*%
%ADD177R,0.1530X0.0030*%
%ADD178R,0.1560X0.0030*%
%ADD179R,0.1590X0.0030*%
%ADD180R,0.1620X0.0030*%
%ADD181R,0.1650X0.0030*%
%ADD182R,0.1680X0.0030*%
%ADD183R,0.1710X0.0030*%
%ADD184R,0.1740X0.0030*%
%ADD185R,0.1380X0.0030*%
%ADD186R,0.1770X0.0030*%
%ADD187R,0.1800X0.0030*%
%ADD188R,0.1830X0.0030*%
%ADD189R,0.1860X0.0030*%
%ADD190R,0.1890X0.0030*%
%ADD191R,0.1920X0.0030*%
%ADD192R,0.1950X0.0030*%
%ADD193R,0.2010X0.0030*%
%ADD194R,0.2040X0.0030*%
%ADD195R,0.2070X0.0030*%
%ADD196R,0.2100X0.0030*%
%ADD197R,0.2130X0.0030*%
%ADD198R,0.2160X0.0030*%
%ADD199R,0.2220X0.0030*%
%ADD200R,0.2250X0.0030*%
%ADD201R,0.2280X0.0030*%
%ADD202R,0.2310X0.0030*%
%ADD203R,0.2340X0.0030*%
%ADD204R,0.2370X0.0030*%
%ADD205R,0.2400X0.0030*%
%ADD206R,0.2430X0.0030*%
%ADD207R,0.2460X0.0030*%
%ADD208R,0.2490X0.0030*%
%ADD209R,0.2520X0.0030*%
%ADD210R,0.2550X0.0030*%
%ADD211R,0.2580X0.0030*%
%ADD212R,0.1980X0.0030*%
%ADD213R,0.2610X0.0030*%
%ADD214R,0.2640X0.0030*%
%ADD215R,0.2670X0.0030*%
%ADD216R,0.2700X0.0030*%
%ADD217R,0.2730X0.0030*%
%ADD218R,0.2790X0.0030*%
%ADD219R,0.2820X0.0030*%
%ADD220R,0.2850X0.0030*%
%ADD221R,0.2190X0.0030*%
%ADD222R,0.2880X0.0030*%
%ADD223R,0.2910X0.0030*%
%ADD224R,0.2940X0.0030*%
%ADD225R,0.3000X0.0030*%
%ADD226R,0.3030X0.0030*%
%ADD227R,0.3060X0.0030*%
%ADD228R,0.3090X0.0030*%
%ADD229R,0.3120X0.0030*%
%ADD230R,0.3150X0.0030*%
%ADD231R,0.3210X0.0030*%
%ADD232R,0.3240X0.0030*%
%ADD233R,0.3270X0.0030*%
%ADD234R,0.3300X0.0030*%
%ADD235R,0.3330X0.0030*%
%ADD236R,0.3360X0.0030*%
%ADD237R,0.3390X0.0030*%
%ADD238R,0.3420X0.0030*%
%ADD239R,0.3450X0.0030*%
%ADD240R,0.3480X0.0030*%
%ADD241R,0.3510X0.0030*%
%ADD242R,0.3540X0.0030*%
%ADD243R,0.3600X0.0030*%
%ADD244R,0.3630X0.0030*%
%ADD245R,0.3660X0.0030*%
%ADD246R,0.2760X0.0030*%
%ADD247R,0.3720X0.0030*%
%ADD248R,0.3750X0.0030*%
%ADD249R,0.3810X0.0030*%
%ADD250R,0.3870X0.0030*%
%ADD251R,0.3930X0.0030*%
%ADD252R,0.3990X0.0030*%
%ADD253R,0.4050X0.0030*%
%ADD254R,0.4080X0.0030*%
%ADD255R,0.4140X0.0030*%
%ADD256R,0.4200X0.0030*%
%ADD257R,0.4230X0.0030*%
%ADD258R,0.4290X0.0030*%
%ADD259R,0.4320X0.0030*%
%ADD260R,0.4380X0.0030*%
%ADD261R,0.4440X0.0030*%
%ADD262R,0.4470X0.0030*%
%ADD263R,0.4560X0.0030*%
%ADD264R,0.4620X0.0030*%
%ADD265R,0.4650X0.0030*%
%ADD266R,0.4710X0.0030*%
%ADD267R,0.4770X0.0030*%
%ADD268R,0.4800X0.0030*%
%ADD269R,0.4860X0.0030*%
%ADD270R,0.4890X0.0030*%
%ADD271R,0.4950X0.0030*%
%ADD272R,0.5010X0.0030*%
%ADD273R,0.5040X0.0030*%
%ADD274R,0.5100X0.0030*%
%ADD275R,0.5190X0.0030*%
%ADD276R,0.5220X0.0030*%
%ADD277R,0.5280X0.0030*%
%ADD278R,0.5310X0.0030*%
%ADD279R,0.5370X0.0030*%
%ADD280R,0.5430X0.0030*%
%ADD281R,0.5460X0.0030*%
%ADD282R,0.5520X0.0030*%
%ADD283R,0.5580X0.0030*%
%ADD284R,0.5610X0.0030*%
%ADD285R,0.5670X0.0030*%
%ADD286R,0.5730X0.0030*%
%ADD287R,0.5790X0.0030*%
%ADD288R,0.5850X0.0030*%
%ADD289R,0.5880X0.0030*%
%ADD290R,0.5940X0.0030*%
%ADD291R,0.6000X0.0030*%
%ADD292R,0.6030X0.0030*%
%ADD293R,0.6090X0.0030*%
%ADD294R,0.6150X0.0030*%
%ADD295R,0.6180X0.0030*%
%ADD296R,0.6240X0.0030*%
%ADD297R,0.6300X0.0030*%
%ADD298R,0.6330X0.0030*%
%ADD299R,0.6420X0.0030*%
%ADD300R,0.6450X0.0030*%
%ADD301R,0.6510X0.0030*%
%ADD302R,0.6540X0.0030*%
%ADD303R,0.6480X0.0030*%
%ADD304R,0.6390X0.0030*%
%ADD305R,0.6360X0.0030*%
%ADD306R,0.6270X0.0030*%
%ADD307R,0.6210X0.0030*%
%ADD308R,0.6120X0.0030*%
%ADD309R,0.6060X0.0030*%
%ADD310R,0.5970X0.0030*%
%ADD311R,0.3570X0.0030*%
%ADD312R,0.4020X0.0030*%
%ADD313R,0.4110X0.0030*%
%ADD314R,0.5820X0.0030*%
%ADD315R,0.5700X0.0030*%
%ADD316R,0.5340X0.0030*%
%ADD317R,0.5070X0.0030*%
%ADD318R,0.3960X0.0030*%
%ADD319R,0.3900X0.0030*%
%ADD320R,0.4830X0.0030*%
%ADD321R,0.3780X0.0030*%
%ADD322R,0.3690X0.0030*%
%ADD323R,0.4590X0.0030*%
%ADD324R,0.4500X0.0030*%
%ADD325R,0.4260X0.0030*%
%ADD326R,0.3180X0.0030*%
%ADD327R,0.2970X0.0030*%
%ADD328C,0.0050*%
%ADD329C,0.0040*%
%ADD330C,0.0080*%
D10*
X003905Y004830D02*
X003907Y004880D01*
X003913Y004930D01*
X003923Y004979D01*
X003937Y005027D01*
X003954Y005074D01*
X003975Y005119D01*
X004000Y005163D01*
X004028Y005204D01*
X004060Y005243D01*
X004094Y005280D01*
X004131Y005314D01*
X004171Y005344D01*
X004213Y005371D01*
X004257Y005395D01*
X004303Y005416D01*
X004350Y005432D01*
X004398Y005445D01*
X004448Y005454D01*
X004497Y005459D01*
X004548Y005460D01*
X004598Y005457D01*
X004647Y005450D01*
X004696Y005439D01*
X004744Y005424D01*
X004790Y005406D01*
X004835Y005384D01*
X004878Y005358D01*
X004919Y005329D01*
X004958Y005297D01*
X004994Y005262D01*
X005026Y005224D01*
X005056Y005184D01*
X005083Y005141D01*
X005106Y005097D01*
X005125Y005051D01*
X005141Y005003D01*
X005153Y004954D01*
X005161Y004905D01*
X005165Y004855D01*
X005165Y004805D01*
X005161Y004755D01*
X005153Y004706D01*
X005141Y004657D01*
X005125Y004609D01*
X005106Y004563D01*
X005083Y004519D01*
X005056Y004476D01*
X005026Y004436D01*
X004994Y004398D01*
X004958Y004363D01*
X004919Y004331D01*
X004878Y004302D01*
X004835Y004276D01*
X004790Y004254D01*
X004744Y004236D01*
X004696Y004221D01*
X004647Y004210D01*
X004598Y004203D01*
X004548Y004200D01*
X004497Y004201D01*
X004448Y004206D01*
X004398Y004215D01*
X004350Y004228D01*
X004303Y004244D01*
X004257Y004265D01*
X004213Y004289D01*
X004171Y004316D01*
X004131Y004346D01*
X004094Y004380D01*
X004060Y004417D01*
X004028Y004456D01*
X004000Y004497D01*
X003975Y004541D01*
X003954Y004586D01*
X003937Y004633D01*
X003923Y004681D01*
X003913Y004730D01*
X003907Y004780D01*
X003905Y004830D01*
X007055Y004437D02*
X007057Y004487D01*
X007063Y004537D01*
X007073Y004586D01*
X007087Y004634D01*
X007104Y004681D01*
X007125Y004726D01*
X007150Y004770D01*
X007178Y004811D01*
X007210Y004850D01*
X007244Y004887D01*
X007281Y004921D01*
X007321Y004951D01*
X007363Y004978D01*
X007407Y005002D01*
X007453Y005023D01*
X007500Y005039D01*
X007548Y005052D01*
X007598Y005061D01*
X007647Y005066D01*
X007698Y005067D01*
X007748Y005064D01*
X007797Y005057D01*
X007846Y005046D01*
X007894Y005031D01*
X007940Y005013D01*
X007985Y004991D01*
X008028Y004965D01*
X008069Y004936D01*
X008108Y004904D01*
X008144Y004869D01*
X008176Y004831D01*
X008206Y004791D01*
X008233Y004748D01*
X008256Y004704D01*
X008275Y004658D01*
X008291Y004610D01*
X008303Y004561D01*
X008311Y004512D01*
X008315Y004462D01*
X008315Y004412D01*
X008311Y004362D01*
X008303Y004313D01*
X008291Y004264D01*
X008275Y004216D01*
X008256Y004170D01*
X008233Y004126D01*
X008206Y004083D01*
X008176Y004043D01*
X008144Y004005D01*
X008108Y003970D01*
X008069Y003938D01*
X008028Y003909D01*
X007985Y003883D01*
X007940Y003861D01*
X007894Y003843D01*
X007846Y003828D01*
X007797Y003817D01*
X007748Y003810D01*
X007698Y003807D01*
X007647Y003808D01*
X007598Y003813D01*
X007548Y003822D01*
X007500Y003835D01*
X007453Y003851D01*
X007407Y003872D01*
X007363Y003896D01*
X007321Y003923D01*
X007281Y003953D01*
X007244Y003987D01*
X007210Y004024D01*
X007178Y004063D01*
X007150Y004104D01*
X007125Y004148D01*
X007104Y004193D01*
X007087Y004240D01*
X007073Y004288D01*
X007063Y004337D01*
X007057Y004387D01*
X007055Y004437D01*
X032649Y004437D02*
X032651Y004487D01*
X032657Y004537D01*
X032667Y004586D01*
X032681Y004634D01*
X032698Y004681D01*
X032719Y004726D01*
X032744Y004770D01*
X032772Y004811D01*
X032804Y004850D01*
X032838Y004887D01*
X032875Y004921D01*
X032915Y004951D01*
X032957Y004978D01*
X033001Y005002D01*
X033047Y005023D01*
X033094Y005039D01*
X033142Y005052D01*
X033192Y005061D01*
X033241Y005066D01*
X033292Y005067D01*
X033342Y005064D01*
X033391Y005057D01*
X033440Y005046D01*
X033488Y005031D01*
X033534Y005013D01*
X033579Y004991D01*
X033622Y004965D01*
X033663Y004936D01*
X033702Y004904D01*
X033738Y004869D01*
X033770Y004831D01*
X033800Y004791D01*
X033827Y004748D01*
X033850Y004704D01*
X033869Y004658D01*
X033885Y004610D01*
X033897Y004561D01*
X033905Y004512D01*
X033909Y004462D01*
X033909Y004412D01*
X033905Y004362D01*
X033897Y004313D01*
X033885Y004264D01*
X033869Y004216D01*
X033850Y004170D01*
X033827Y004126D01*
X033800Y004083D01*
X033770Y004043D01*
X033738Y004005D01*
X033702Y003970D01*
X033663Y003938D01*
X033622Y003909D01*
X033579Y003883D01*
X033534Y003861D01*
X033488Y003843D01*
X033440Y003828D01*
X033391Y003817D01*
X033342Y003810D01*
X033292Y003807D01*
X033241Y003808D01*
X033192Y003813D01*
X033142Y003822D01*
X033094Y003835D01*
X033047Y003851D01*
X033001Y003872D01*
X032957Y003896D01*
X032915Y003923D01*
X032875Y003953D01*
X032838Y003987D01*
X032804Y004024D01*
X032772Y004063D01*
X032744Y004104D01*
X032719Y004148D01*
X032698Y004193D01*
X032681Y004240D01*
X032667Y004288D01*
X032657Y004337D01*
X032651Y004387D01*
X032649Y004437D01*
X038945Y004830D02*
X038947Y004880D01*
X038953Y004930D01*
X038963Y004979D01*
X038977Y005027D01*
X038994Y005074D01*
X039015Y005119D01*
X039040Y005163D01*
X039068Y005204D01*
X039100Y005243D01*
X039134Y005280D01*
X039171Y005314D01*
X039211Y005344D01*
X039253Y005371D01*
X039297Y005395D01*
X039343Y005416D01*
X039390Y005432D01*
X039438Y005445D01*
X039488Y005454D01*
X039537Y005459D01*
X039588Y005460D01*
X039638Y005457D01*
X039687Y005450D01*
X039736Y005439D01*
X039784Y005424D01*
X039830Y005406D01*
X039875Y005384D01*
X039918Y005358D01*
X039959Y005329D01*
X039998Y005297D01*
X040034Y005262D01*
X040066Y005224D01*
X040096Y005184D01*
X040123Y005141D01*
X040146Y005097D01*
X040165Y005051D01*
X040181Y005003D01*
X040193Y004954D01*
X040201Y004905D01*
X040205Y004855D01*
X040205Y004805D01*
X040201Y004755D01*
X040193Y004706D01*
X040181Y004657D01*
X040165Y004609D01*
X040146Y004563D01*
X040123Y004519D01*
X040096Y004476D01*
X040066Y004436D01*
X040034Y004398D01*
X039998Y004363D01*
X039959Y004331D01*
X039918Y004302D01*
X039875Y004276D01*
X039830Y004254D01*
X039784Y004236D01*
X039736Y004221D01*
X039687Y004210D01*
X039638Y004203D01*
X039588Y004200D01*
X039537Y004201D01*
X039488Y004206D01*
X039438Y004215D01*
X039390Y004228D01*
X039343Y004244D01*
X039297Y004265D01*
X039253Y004289D01*
X039211Y004316D01*
X039171Y004346D01*
X039134Y004380D01*
X039100Y004417D01*
X039068Y004456D01*
X039040Y004497D01*
X039015Y004541D01*
X038994Y004586D01*
X038977Y004633D01*
X038963Y004681D01*
X038953Y004730D01*
X038947Y004780D01*
X038945Y004830D01*
X037311Y030484D02*
X037313Y030528D01*
X037319Y030572D01*
X037329Y030615D01*
X037342Y030657D01*
X037360Y030697D01*
X037381Y030736D01*
X037405Y030773D01*
X037432Y030808D01*
X037463Y030840D01*
X037496Y030869D01*
X037532Y030895D01*
X037570Y030917D01*
X037610Y030936D01*
X037651Y030952D01*
X037694Y030964D01*
X037737Y030972D01*
X037781Y030976D01*
X037825Y030976D01*
X037869Y030972D01*
X037912Y030964D01*
X037955Y030952D01*
X037996Y030936D01*
X038036Y030917D01*
X038074Y030895D01*
X038110Y030869D01*
X038143Y030840D01*
X038174Y030808D01*
X038201Y030773D01*
X038225Y030736D01*
X038246Y030697D01*
X038264Y030657D01*
X038277Y030615D01*
X038287Y030572D01*
X038293Y030528D01*
X038295Y030484D01*
X038293Y030440D01*
X038287Y030396D01*
X038277Y030353D01*
X038264Y030311D01*
X038246Y030271D01*
X038225Y030232D01*
X038201Y030195D01*
X038174Y030160D01*
X038143Y030128D01*
X038110Y030099D01*
X038074Y030073D01*
X038036Y030051D01*
X037996Y030032D01*
X037955Y030016D01*
X037912Y030004D01*
X037869Y029996D01*
X037825Y029992D01*
X037781Y029992D01*
X037737Y029996D01*
X037694Y030004D01*
X037651Y030016D01*
X037610Y030032D01*
X037570Y030051D01*
X037532Y030073D01*
X037496Y030099D01*
X037463Y030128D01*
X037432Y030160D01*
X037405Y030195D01*
X037381Y030232D01*
X037360Y030271D01*
X037342Y030311D01*
X037329Y030353D01*
X037319Y030396D01*
X037313Y030440D01*
X037311Y030484D01*
X032649Y031200D02*
X032651Y031250D01*
X032657Y031300D01*
X032667Y031349D01*
X032681Y031397D01*
X032698Y031444D01*
X032719Y031489D01*
X032744Y031533D01*
X032772Y031574D01*
X032804Y031613D01*
X032838Y031650D01*
X032875Y031684D01*
X032915Y031714D01*
X032957Y031741D01*
X033001Y031765D01*
X033047Y031786D01*
X033094Y031802D01*
X033142Y031815D01*
X033192Y031824D01*
X033241Y031829D01*
X033292Y031830D01*
X033342Y031827D01*
X033391Y031820D01*
X033440Y031809D01*
X033488Y031794D01*
X033534Y031776D01*
X033579Y031754D01*
X033622Y031728D01*
X033663Y031699D01*
X033702Y031667D01*
X033738Y031632D01*
X033770Y031594D01*
X033800Y031554D01*
X033827Y031511D01*
X033850Y031467D01*
X033869Y031421D01*
X033885Y031373D01*
X033897Y031324D01*
X033905Y031275D01*
X033909Y031225D01*
X033909Y031175D01*
X033905Y031125D01*
X033897Y031076D01*
X033885Y031027D01*
X033869Y030979D01*
X033850Y030933D01*
X033827Y030889D01*
X033800Y030846D01*
X033770Y030806D01*
X033738Y030768D01*
X033702Y030733D01*
X033663Y030701D01*
X033622Y030672D01*
X033579Y030646D01*
X033534Y030624D01*
X033488Y030606D01*
X033440Y030591D01*
X033391Y030580D01*
X033342Y030573D01*
X033292Y030570D01*
X033241Y030571D01*
X033192Y030576D01*
X033142Y030585D01*
X033094Y030598D01*
X033047Y030614D01*
X033001Y030635D01*
X032957Y030659D01*
X032915Y030686D01*
X032875Y030716D01*
X032838Y030750D01*
X032804Y030787D01*
X032772Y030826D01*
X032744Y030867D01*
X032719Y030911D01*
X032698Y030956D01*
X032681Y031003D01*
X032667Y031051D01*
X032657Y031100D01*
X032651Y031150D01*
X032649Y031200D01*
X041701Y031208D02*
X041703Y031258D01*
X041709Y031308D01*
X041719Y031357D01*
X041733Y031405D01*
X041750Y031452D01*
X041771Y031497D01*
X041796Y031541D01*
X041824Y031582D01*
X041856Y031621D01*
X041890Y031658D01*
X041927Y031692D01*
X041967Y031722D01*
X042009Y031749D01*
X042053Y031773D01*
X042099Y031794D01*
X042146Y031810D01*
X042194Y031823D01*
X042244Y031832D01*
X042293Y031837D01*
X042344Y031838D01*
X042394Y031835D01*
X042443Y031828D01*
X042492Y031817D01*
X042540Y031802D01*
X042586Y031784D01*
X042631Y031762D01*
X042674Y031736D01*
X042715Y031707D01*
X042754Y031675D01*
X042790Y031640D01*
X042822Y031602D01*
X042852Y031562D01*
X042879Y031519D01*
X042902Y031475D01*
X042921Y031429D01*
X042937Y031381D01*
X042949Y031332D01*
X042957Y031283D01*
X042961Y031233D01*
X042961Y031183D01*
X042957Y031133D01*
X042949Y031084D01*
X042937Y031035D01*
X042921Y030987D01*
X042902Y030941D01*
X042879Y030897D01*
X042852Y030854D01*
X042822Y030814D01*
X042790Y030776D01*
X042754Y030741D01*
X042715Y030709D01*
X042674Y030680D01*
X042631Y030654D01*
X042586Y030632D01*
X042540Y030614D01*
X042492Y030599D01*
X042443Y030588D01*
X042394Y030581D01*
X042344Y030578D01*
X042293Y030579D01*
X042244Y030584D01*
X042194Y030593D01*
X042146Y030606D01*
X042099Y030622D01*
X042053Y030643D01*
X042009Y030667D01*
X041967Y030694D01*
X041927Y030724D01*
X041890Y030758D01*
X041856Y030795D01*
X041824Y030834D01*
X041796Y030875D01*
X041771Y030919D01*
X041750Y030964D01*
X041733Y031011D01*
X041719Y031059D01*
X041709Y031108D01*
X041703Y031158D01*
X041701Y031208D01*
X010205Y031208D02*
X010207Y031258D01*
X010213Y031308D01*
X010223Y031357D01*
X010237Y031405D01*
X010254Y031452D01*
X010275Y031497D01*
X010300Y031541D01*
X010328Y031582D01*
X010360Y031621D01*
X010394Y031658D01*
X010431Y031692D01*
X010471Y031722D01*
X010513Y031749D01*
X010557Y031773D01*
X010603Y031794D01*
X010650Y031810D01*
X010698Y031823D01*
X010748Y031832D01*
X010797Y031837D01*
X010848Y031838D01*
X010898Y031835D01*
X010947Y031828D01*
X010996Y031817D01*
X011044Y031802D01*
X011090Y031784D01*
X011135Y031762D01*
X011178Y031736D01*
X011219Y031707D01*
X011258Y031675D01*
X011294Y031640D01*
X011326Y031602D01*
X011356Y031562D01*
X011383Y031519D01*
X011406Y031475D01*
X011425Y031429D01*
X011441Y031381D01*
X011453Y031332D01*
X011461Y031283D01*
X011465Y031233D01*
X011465Y031183D01*
X011461Y031133D01*
X011453Y031084D01*
X011441Y031035D01*
X011425Y030987D01*
X011406Y030941D01*
X011383Y030897D01*
X011356Y030854D01*
X011326Y030814D01*
X011294Y030776D01*
X011258Y030741D01*
X011219Y030709D01*
X011178Y030680D01*
X011135Y030654D01*
X011090Y030632D01*
X011044Y030614D01*
X010996Y030599D01*
X010947Y030588D01*
X010898Y030581D01*
X010848Y030578D01*
X010797Y030579D01*
X010748Y030584D01*
X010698Y030593D01*
X010650Y030606D01*
X010603Y030622D01*
X010557Y030643D01*
X010513Y030667D01*
X010471Y030694D01*
X010431Y030724D01*
X010394Y030758D01*
X010360Y030795D01*
X010328Y030834D01*
X010300Y030875D01*
X010275Y030919D01*
X010254Y030964D01*
X010237Y031011D01*
X010223Y031059D01*
X010213Y031108D01*
X010207Y031158D01*
X010205Y031208D01*
X007059Y031200D02*
X007061Y031250D01*
X007067Y031300D01*
X007077Y031349D01*
X007091Y031397D01*
X007108Y031444D01*
X007129Y031489D01*
X007154Y031533D01*
X007182Y031574D01*
X007214Y031613D01*
X007248Y031650D01*
X007285Y031684D01*
X007325Y031714D01*
X007367Y031741D01*
X007411Y031765D01*
X007457Y031786D01*
X007504Y031802D01*
X007552Y031815D01*
X007602Y031824D01*
X007651Y031829D01*
X007702Y031830D01*
X007752Y031827D01*
X007801Y031820D01*
X007850Y031809D01*
X007898Y031794D01*
X007944Y031776D01*
X007989Y031754D01*
X008032Y031728D01*
X008073Y031699D01*
X008112Y031667D01*
X008148Y031632D01*
X008180Y031594D01*
X008210Y031554D01*
X008237Y031511D01*
X008260Y031467D01*
X008279Y031421D01*
X008295Y031373D01*
X008307Y031324D01*
X008315Y031275D01*
X008319Y031225D01*
X008319Y031175D01*
X008315Y031125D01*
X008307Y031076D01*
X008295Y031027D01*
X008279Y030979D01*
X008260Y030933D01*
X008237Y030889D01*
X008210Y030846D01*
X008180Y030806D01*
X008148Y030768D01*
X008112Y030733D01*
X008073Y030701D01*
X008032Y030672D01*
X007989Y030646D01*
X007944Y030624D01*
X007898Y030606D01*
X007850Y030591D01*
X007801Y030580D01*
X007752Y030573D01*
X007702Y030570D01*
X007651Y030571D01*
X007602Y030576D01*
X007552Y030585D01*
X007504Y030598D01*
X007457Y030614D01*
X007411Y030635D01*
X007367Y030659D01*
X007325Y030686D01*
X007285Y030716D01*
X007248Y030750D01*
X007214Y030787D01*
X007182Y030826D01*
X007154Y030867D01*
X007129Y030911D01*
X007108Y030956D01*
X007091Y031003D01*
X007077Y031051D01*
X007067Y031100D01*
X007061Y031150D01*
X007059Y031200D01*
D11*
X002961Y032783D02*
X002961Y002862D01*
X048236Y002862D01*
X048236Y032783D01*
X002961Y032783D01*
X033009Y025804D02*
X033011Y025816D01*
X033016Y025826D01*
X033025Y025835D01*
X033035Y025840D01*
X033047Y025842D01*
X033059Y025840D01*
X033069Y025835D01*
X033078Y025826D01*
X033083Y025816D01*
X033085Y025804D01*
X033083Y025792D01*
X033078Y025782D01*
X033069Y025773D01*
X033059Y025768D01*
X033047Y025766D01*
X033035Y025768D01*
X033025Y025773D01*
X033016Y025782D01*
X033011Y025792D01*
X033009Y025804D01*
D12*
X038803Y030983D02*
X038803Y032075D01*
X038439Y032075D02*
X039167Y032075D01*
X039526Y031893D02*
X039526Y031165D01*
X039708Y030983D01*
X040072Y030983D01*
X040254Y031165D01*
X040254Y031893D02*
X040072Y032075D01*
X039708Y032075D01*
X039526Y031893D01*
D13*
X039569Y025186D02*
X039462Y025079D01*
X039462Y024652D01*
X039569Y024545D01*
X039782Y024545D01*
X039889Y024652D01*
X040106Y024866D02*
X040533Y024866D01*
X039889Y025079D02*
X039782Y025186D01*
X039569Y025186D01*
X039244Y025186D02*
X038817Y025186D01*
X039031Y025186D02*
X039031Y024545D01*
X037974Y024866D02*
X037547Y024866D01*
X037761Y025079D02*
X037761Y024652D01*
X037330Y024652D02*
X037223Y024545D01*
X037010Y024545D01*
X036903Y024652D01*
X036903Y025079D01*
X037010Y025186D01*
X037223Y025186D01*
X037330Y025079D01*
X036685Y025186D02*
X036258Y025186D01*
X036472Y025186D02*
X036472Y024545D01*
X006310Y022476D02*
X006310Y021942D01*
X006204Y021836D01*
X006097Y021836D01*
X005990Y022049D02*
X006310Y022049D01*
X005990Y022049D02*
X005883Y022156D01*
X005883Y022476D01*
X005666Y022369D02*
X005666Y022049D01*
X005346Y022049D01*
X005239Y022156D01*
X005346Y022263D01*
X005666Y022263D01*
X005666Y022369D02*
X005559Y022476D01*
X005346Y022476D01*
X004916Y022690D02*
X004916Y022049D01*
X004809Y022049D02*
X005023Y022049D01*
X005005Y021812D02*
X005005Y021706D01*
X005005Y021492D02*
X005005Y021065D01*
X004899Y021065D02*
X005112Y021065D01*
X005328Y021172D02*
X005328Y021385D01*
X005435Y021492D01*
X005755Y021492D01*
X005755Y020958D01*
X005648Y020851D01*
X005542Y020851D01*
X005435Y021065D02*
X005755Y021065D01*
X005435Y021065D02*
X005328Y021172D01*
X005005Y021492D02*
X004899Y021492D01*
X004682Y021492D02*
X004575Y021492D01*
X004361Y021278D01*
X004361Y021065D02*
X004361Y021492D01*
X004144Y021706D02*
X003717Y021706D01*
X003930Y021706D02*
X003930Y021065D01*
X003947Y022049D02*
X003734Y022263D01*
X003840Y022263D02*
X003520Y022263D01*
X003520Y022049D02*
X003520Y022690D01*
X003840Y022690D01*
X003947Y022583D01*
X003947Y022369D01*
X003840Y022263D01*
X004165Y022263D02*
X004592Y022263D01*
X004592Y022369D01*
X004485Y022476D01*
X004271Y022476D01*
X004165Y022369D01*
X004165Y022156D01*
X004271Y022049D01*
X004485Y022049D01*
X004809Y022690D02*
X004916Y022690D01*
X004564Y017067D02*
X004564Y016640D01*
X004351Y016427D01*
X004137Y016640D01*
X004137Y017067D01*
X004782Y016747D02*
X005209Y016747D01*
X004594Y012134D02*
X004594Y011707D01*
X004381Y011494D01*
X004167Y011707D01*
X004167Y012134D01*
X004812Y011814D02*
X005239Y011814D01*
X005025Y011601D02*
X005025Y012028D01*
X015528Y004383D02*
X015848Y004383D01*
X015955Y004276D01*
X015955Y004062D01*
X015848Y003956D01*
X015528Y003956D01*
X015741Y003956D02*
X015955Y003742D01*
X016172Y003849D02*
X016172Y004062D01*
X016279Y004169D01*
X016493Y004169D01*
X016599Y004062D01*
X016599Y003956D01*
X016172Y003956D01*
X016172Y003849D02*
X016279Y003742D01*
X016493Y003742D01*
X016924Y003742D02*
X016924Y004276D01*
X017030Y004383D01*
X017247Y004383D02*
X017353Y004383D01*
X017353Y003742D01*
X017247Y003742D02*
X017460Y003742D01*
X017676Y003849D02*
X017676Y004062D01*
X017783Y004169D01*
X017997Y004169D01*
X018103Y004062D01*
X018103Y003849D01*
X017997Y003742D01*
X017783Y003742D01*
X017676Y003849D01*
X018321Y003849D02*
X018321Y004169D01*
X018321Y003849D02*
X018428Y003742D01*
X018534Y003849D01*
X018641Y003742D01*
X018748Y003849D01*
X018748Y004169D01*
X019610Y004383D02*
X019610Y003742D01*
X020037Y003742D02*
X020037Y004383D01*
X019824Y004169D01*
X019610Y004383D01*
X020361Y004169D02*
X020575Y004169D01*
X020682Y004062D01*
X020682Y003742D01*
X020361Y003742D01*
X020255Y003849D01*
X020361Y003956D01*
X020682Y003956D01*
X020899Y004062D02*
X021006Y004169D01*
X021326Y004169D01*
X021544Y004169D02*
X021757Y004169D01*
X021650Y004276D02*
X021650Y003849D01*
X021757Y003742D01*
X021973Y003849D02*
X021973Y004062D01*
X022080Y004169D01*
X022294Y004169D01*
X022400Y004062D01*
X022400Y003956D01*
X021973Y003956D01*
X021973Y003849D02*
X022080Y003742D01*
X022294Y003742D01*
X022618Y003742D02*
X022618Y004169D01*
X022618Y003956D02*
X022831Y004169D01*
X022938Y004169D01*
X023800Y004169D02*
X023906Y004062D01*
X024120Y004062D01*
X024227Y003956D01*
X024227Y003849D01*
X024120Y003742D01*
X023906Y003742D01*
X023800Y003849D01*
X023800Y004169D02*
X023800Y004276D01*
X023906Y004383D01*
X024120Y004383D01*
X024227Y004276D01*
X024444Y004383D02*
X024444Y003742D01*
X024444Y004062D02*
X024551Y004169D01*
X024764Y004169D01*
X024871Y004062D01*
X024871Y003742D01*
X025089Y003742D02*
X025302Y003742D01*
X025195Y003742D02*
X025195Y004169D01*
X025089Y004169D01*
X025195Y004383D02*
X025195Y004489D01*
X025518Y004062D02*
X025625Y004169D01*
X025839Y004169D01*
X025945Y004062D01*
X025945Y003956D01*
X025518Y003956D01*
X025518Y004062D02*
X025518Y003849D01*
X025625Y003742D01*
X025839Y003742D01*
X026163Y003742D02*
X026376Y003742D01*
X026270Y003742D02*
X026270Y004383D01*
X026163Y004383D01*
X026593Y004062D02*
X026699Y004169D01*
X027020Y004169D01*
X027020Y004383D02*
X027020Y003742D01*
X026699Y003742D01*
X026593Y003849D01*
X026593Y004062D01*
X021326Y003849D02*
X021219Y003956D01*
X021006Y003956D01*
X020899Y004062D01*
X020899Y003742D02*
X021219Y003742D01*
X021326Y003849D01*
X017030Y004062D02*
X016817Y004062D01*
X015528Y003742D02*
X015528Y004383D01*
D14*
X015721Y028586D02*
X016567Y028586D01*
X016990Y028798D02*
X017202Y028586D01*
X017625Y028586D01*
X017836Y028798D01*
X018259Y028586D02*
X018259Y029855D01*
X017836Y029644D02*
X017625Y029855D01*
X017202Y029855D01*
X016990Y029644D01*
X016990Y028798D01*
X016144Y029221D02*
X015721Y029221D01*
X015721Y029855D02*
X015721Y028586D01*
X014876Y028586D02*
X014876Y029855D01*
X014453Y029855D02*
X015299Y029855D01*
X015721Y029855D02*
X016567Y029855D01*
X016377Y030476D02*
X016377Y031322D01*
X016800Y031745D01*
X017223Y031322D01*
X017223Y030476D01*
X017646Y030476D02*
X018280Y030476D01*
X018492Y030687D01*
X018492Y031533D01*
X018280Y031745D01*
X017646Y031745D01*
X017646Y030476D01*
X017223Y031110D02*
X016377Y031110D01*
X015954Y030476D02*
X015108Y030476D01*
X015108Y031745D01*
X014685Y031322D02*
X014685Y030476D01*
X014685Y031110D02*
X013839Y031110D01*
X013839Y031322D02*
X014262Y031745D01*
X014685Y031322D01*
X013839Y031322D02*
X013839Y030476D01*
X013205Y030899D02*
X012571Y030899D01*
X012571Y030476D02*
X012571Y031745D01*
X013205Y031745D01*
X013417Y031533D01*
X013417Y031110D01*
X013205Y030899D01*
X018259Y029221D02*
X019105Y029221D01*
X019105Y029855D02*
X019105Y028586D01*
X019528Y028586D02*
X019528Y029855D01*
X020374Y028586D01*
X020374Y029855D01*
X020797Y029644D02*
X020797Y028798D01*
X021008Y028586D01*
X021431Y028586D01*
X021643Y028798D01*
X021643Y029644D01*
X021431Y029855D01*
X021008Y029855D01*
X020797Y029644D01*
X022065Y029855D02*
X022065Y028586D01*
X022911Y028586D01*
X023334Y028798D02*
X023546Y028586D01*
X023969Y028586D01*
X024180Y028798D01*
X024180Y029644D01*
X023969Y029855D01*
X023546Y029855D01*
X023334Y029644D01*
X023334Y028798D01*
X024603Y028798D02*
X024603Y029644D01*
X024814Y029855D01*
X025237Y029855D01*
X025449Y029644D01*
X025449Y029221D02*
X025026Y029221D01*
X025449Y029221D02*
X025449Y028798D01*
X025237Y028586D01*
X024814Y028586D01*
X024603Y028798D01*
X025872Y028586D02*
X026295Y028586D01*
X026083Y028586D02*
X026083Y029855D01*
X025872Y029855D02*
X026295Y029855D01*
X026718Y029855D02*
X026718Y028586D01*
X027564Y028586D01*
X027986Y028798D02*
X028198Y028586D01*
X028621Y028586D01*
X028832Y028798D01*
X028832Y029009D01*
X028621Y029221D01*
X028198Y029221D01*
X027986Y029432D01*
X027986Y029644D01*
X028198Y029855D01*
X028621Y029855D01*
X028832Y029644D01*
X027564Y029855D02*
X026718Y029855D01*
X026739Y030476D02*
X026105Y030476D01*
X026105Y031745D01*
X026739Y031745D01*
X026951Y031533D01*
X026951Y031322D01*
X026739Y031110D01*
X026105Y031110D01*
X025682Y031110D02*
X024836Y031110D01*
X024836Y031322D02*
X025259Y031745D01*
X025682Y031322D01*
X025682Y030476D01*
X024836Y030476D02*
X024836Y031322D01*
X024413Y031745D02*
X024413Y030476D01*
X023567Y031745D01*
X023567Y030476D01*
X023144Y030476D02*
X022298Y030476D01*
X022298Y031745D01*
X023144Y031745D01*
X022721Y031110D02*
X022298Y031110D01*
X020607Y030476D02*
X020607Y031745D01*
X019761Y031745D02*
X020607Y030476D01*
X019761Y030476D02*
X019761Y031745D01*
X019338Y031745D02*
X018915Y031745D01*
X019126Y031745D02*
X019126Y030476D01*
X018915Y030476D02*
X019338Y030476D01*
X026739Y030476D02*
X026951Y030687D01*
X026951Y030899D01*
X026739Y031110D01*
X027373Y030476D02*
X028219Y030476D01*
X028642Y030476D02*
X029065Y030476D01*
X028854Y030476D02*
X028854Y031745D01*
X029065Y031745D02*
X028642Y031745D01*
X029488Y031745D02*
X030334Y030476D01*
X030334Y031745D01*
X030757Y031533D02*
X030757Y030687D01*
X030968Y030476D01*
X031391Y030476D01*
X031603Y030687D01*
X031603Y031110D01*
X031180Y031110D01*
X031603Y031533D02*
X031391Y031745D01*
X030968Y031745D01*
X030757Y031533D01*
X029488Y031745D02*
X029488Y030476D01*
X027373Y030476D02*
X027373Y031745D01*
X027141Y029221D02*
X026718Y029221D01*
D15*
X042055Y029151D02*
X042055Y028730D01*
X042055Y028941D02*
X042686Y028941D01*
X042686Y028506D02*
X042055Y028506D01*
X042055Y028086D02*
X042686Y028506D01*
X042686Y028086D02*
X042055Y028086D01*
X042055Y027862D02*
X042055Y027441D01*
X042686Y027441D01*
X042686Y027862D01*
X042370Y027652D02*
X042370Y027441D01*
X042062Y023450D02*
X042692Y023450D01*
X042062Y023029D01*
X042692Y023029D01*
X042692Y022805D02*
X042062Y022805D01*
X042062Y022385D02*
X042692Y022385D01*
X042482Y022595D01*
X042692Y022805D01*
X042587Y022160D02*
X042167Y022160D01*
X042062Y022055D01*
X042062Y021740D01*
X042692Y021740D01*
X042692Y022055D01*
X042587Y022160D01*
X042385Y017716D02*
X042490Y017611D01*
X042490Y017295D01*
X042701Y017295D02*
X042070Y017295D01*
X042070Y017611D01*
X042175Y017716D01*
X042385Y017716D01*
X042595Y017071D02*
X042070Y017071D01*
X042595Y017071D02*
X042701Y016966D01*
X042701Y016756D01*
X042595Y016651D01*
X042070Y016651D01*
X042184Y012504D02*
X042079Y012398D01*
X042079Y012188D01*
X042184Y012083D01*
X042605Y012083D01*
X042710Y012188D01*
X042710Y012398D01*
X042605Y012504D01*
X042605Y011859D02*
X042710Y011754D01*
X042710Y011544D01*
X042605Y011439D01*
X042395Y011544D02*
X042395Y011754D01*
X042500Y011859D01*
X042605Y011859D01*
X042395Y011544D02*
X042290Y011439D01*
X042184Y011439D01*
X042079Y011544D01*
X042079Y011754D01*
X042184Y011859D01*
X042079Y011214D02*
X042079Y010794D01*
X042710Y010794D01*
X042710Y011214D01*
X042395Y011004D02*
X042395Y010794D01*
X042076Y007694D02*
X042076Y007274D01*
X042076Y007484D02*
X042706Y007484D01*
X042706Y007050D02*
X042706Y006629D01*
X042076Y006629D01*
X042076Y007050D01*
X042391Y006839D02*
X042391Y006629D01*
X042496Y006405D02*
X042391Y006300D01*
X042391Y006090D01*
X042286Y005985D01*
X042181Y005985D01*
X042076Y006090D01*
X042076Y006300D01*
X042181Y006405D01*
X042496Y006405D02*
X042601Y006405D01*
X042706Y006300D01*
X042706Y006090D01*
X042601Y005985D01*
X042706Y005761D02*
X042706Y005340D01*
X042076Y005340D01*
X042076Y005761D01*
X042391Y005550D02*
X042391Y005340D01*
X042391Y005116D02*
X042496Y005011D01*
X042496Y004696D01*
X042496Y004906D02*
X042706Y005116D01*
X042391Y005116D02*
X042181Y005116D01*
X042076Y005011D01*
X042076Y004696D01*
X042706Y004696D01*
X031267Y005212D02*
X031267Y005630D01*
X031128Y005770D01*
X030989Y005630D01*
X030989Y005212D01*
X030710Y005212D02*
X030710Y005770D01*
X030849Y005770D01*
X030989Y005630D01*
X030434Y005630D02*
X030294Y005770D01*
X030015Y005770D01*
X029876Y005630D01*
X029876Y005352D01*
X030015Y005212D01*
X030294Y005212D01*
X030434Y005352D01*
X030434Y005630D01*
X029600Y005770D02*
X029182Y005770D01*
X029042Y005630D01*
X029042Y005352D01*
X029182Y005212D01*
X029600Y005212D01*
X028765Y005212D02*
X028625Y005212D01*
X028625Y005352D01*
X028765Y005352D01*
X028765Y005212D01*
X028349Y005352D02*
X028210Y005491D01*
X027931Y005491D01*
X027792Y005630D01*
X027931Y005770D01*
X028349Y005770D01*
X028349Y005352D02*
X028210Y005212D01*
X027792Y005212D01*
X027515Y005352D02*
X027376Y005491D01*
X027097Y005491D01*
X026958Y005630D01*
X027097Y005770D01*
X027515Y005770D01*
X027515Y005352D02*
X027376Y005212D01*
X026958Y005212D01*
X026681Y005491D02*
X026124Y005491D01*
X026124Y005630D02*
X026263Y005770D01*
X026542Y005770D01*
X026681Y005630D01*
X026681Y005491D01*
X026542Y005212D02*
X026263Y005212D01*
X026124Y005352D01*
X026124Y005630D01*
X025847Y005770D02*
X025708Y005770D01*
X025429Y005491D01*
X025429Y005212D02*
X025429Y005770D01*
X025153Y005630D02*
X025153Y005352D01*
X025014Y005212D01*
X024595Y005212D01*
X024319Y005212D02*
X023901Y005212D01*
X023762Y005352D01*
X023762Y005630D01*
X023901Y005770D01*
X024319Y005770D01*
X024595Y005770D02*
X025014Y005770D01*
X025153Y005630D01*
X024595Y005770D02*
X024595Y004933D01*
X024319Y005212D02*
X024319Y006048D01*
X023485Y005770D02*
X023346Y005770D01*
X023067Y005491D01*
X023067Y005212D02*
X023067Y005770D01*
X022790Y005630D02*
X022651Y005770D01*
X022372Y005770D01*
X022233Y005630D01*
X022233Y005352D01*
X022372Y005212D01*
X022651Y005212D01*
X022790Y005352D01*
X022790Y005630D01*
X021957Y005770D02*
X021957Y005352D01*
X021817Y005212D01*
X021678Y005352D01*
X021539Y005212D01*
X021399Y005352D01*
X021399Y005770D01*
X021122Y005352D02*
X021122Y005212D01*
X020982Y005212D01*
X020982Y005352D01*
X021122Y005352D01*
X020706Y005212D02*
X020706Y005630D01*
X020567Y005770D01*
X020288Y005770D01*
X020149Y005630D01*
X019872Y005770D02*
X019454Y005770D01*
X019315Y005630D01*
X019315Y005352D01*
X019454Y005212D01*
X019872Y005212D01*
X020149Y005212D02*
X020149Y006048D01*
X019038Y005630D02*
X019038Y005491D01*
X018481Y005491D01*
X018481Y005630D02*
X018620Y005770D01*
X018899Y005770D01*
X019038Y005630D01*
X018899Y005212D02*
X018620Y005212D01*
X018481Y005352D01*
X018481Y005630D01*
X018204Y005770D02*
X017925Y005770D01*
X018064Y005909D02*
X018064Y005352D01*
X018204Y005212D01*
X017649Y005212D02*
X017649Y005630D01*
X017509Y005770D01*
X017091Y005770D01*
X017091Y005212D01*
X016814Y005212D02*
X016535Y005212D01*
X016675Y005212D02*
X016675Y005770D01*
X016535Y005770D01*
X016259Y005770D02*
X015841Y005770D01*
X015702Y005630D01*
X015702Y005352D01*
X015841Y005212D01*
X016259Y005212D01*
X016259Y006048D01*
X016675Y006048D02*
X016675Y006188D01*
X015425Y005630D02*
X015425Y005212D01*
X015007Y005212D01*
X014868Y005352D01*
X015007Y005491D01*
X015425Y005491D01*
X015425Y005630D02*
X015286Y005770D01*
X015007Y005770D01*
X014451Y006048D02*
X014451Y005212D01*
X014312Y005212D02*
X014591Y005212D01*
X014036Y005212D02*
X014036Y005630D01*
X013896Y005770D01*
X013618Y005770D01*
X013618Y005491D02*
X014036Y005491D01*
X014036Y005212D02*
X013618Y005212D01*
X013478Y005352D01*
X013618Y005491D01*
X013202Y005630D02*
X013063Y005770D01*
X012645Y005770D01*
X012645Y004933D01*
X012645Y005212D02*
X013063Y005212D01*
X013202Y005352D01*
X013202Y005630D01*
X012367Y005352D02*
X012367Y005212D01*
X012228Y005212D01*
X012228Y005352D01*
X012367Y005352D01*
X011951Y005352D02*
X011951Y005770D01*
X011951Y005352D02*
X011812Y005212D01*
X011673Y005352D01*
X011533Y005212D01*
X011394Y005352D01*
X011394Y005770D01*
X011118Y005770D02*
X011118Y005352D01*
X010978Y005212D01*
X010839Y005352D01*
X010699Y005212D01*
X010560Y005352D01*
X010560Y005770D01*
X010284Y005770D02*
X010284Y005352D01*
X010144Y005212D01*
X010005Y005352D01*
X009866Y005212D01*
X009726Y005352D01*
X009726Y005770D01*
X014312Y006048D02*
X014451Y006048D01*
D16*
X006774Y012730D02*
X006650Y012607D01*
X006404Y012607D01*
X006404Y012854D02*
X006650Y012854D01*
X006774Y012730D01*
X006774Y012975D02*
X006774Y013099D01*
X006774Y013037D02*
X006527Y013037D01*
X006527Y012975D01*
X006404Y013037D02*
X006342Y013037D01*
X006527Y013221D02*
X006527Y013406D01*
X006589Y013468D01*
X006774Y013468D01*
X006774Y013221D02*
X006527Y013221D01*
X006484Y014599D02*
X006731Y014599D01*
X006792Y014661D01*
X006792Y014784D01*
X006731Y014846D01*
X006607Y014846D01*
X006607Y014723D01*
X006484Y014846D02*
X006422Y014784D01*
X006422Y014661D01*
X006484Y014599D01*
X006422Y014967D02*
X006792Y015214D01*
X006422Y015214D01*
X006422Y015336D02*
X006422Y015521D01*
X006484Y015583D01*
X006731Y015583D01*
X006792Y015521D01*
X006792Y015336D01*
X006422Y015336D01*
X006422Y014967D02*
X006792Y014967D01*
X006821Y024003D02*
X006451Y024003D01*
X006821Y024003D02*
X006821Y024250D01*
X006821Y024371D02*
X006575Y024371D01*
X006451Y024494D01*
X006575Y024618D01*
X006821Y024618D01*
X006821Y024739D02*
X006451Y024739D01*
X006575Y024863D01*
X006451Y024986D01*
X006821Y024986D01*
X006821Y025108D02*
X006451Y025108D01*
X006451Y025293D01*
X006513Y025355D01*
X006636Y025355D01*
X006698Y025293D01*
X006698Y025108D01*
X006636Y024618D02*
X006636Y024371D01*
X006636Y026365D02*
X006636Y026488D01*
X006451Y026365D02*
X006451Y026612D01*
X006575Y026733D02*
X006451Y026857D01*
X006575Y026980D01*
X006821Y026980D01*
X006821Y027102D02*
X006451Y027102D01*
X006821Y027348D01*
X006451Y027348D01*
X006636Y026980D02*
X006636Y026733D01*
X006575Y026733D02*
X006821Y026733D01*
X006821Y026365D02*
X006451Y026365D01*
X006845Y029054D02*
X006784Y029116D01*
X006845Y029054D02*
X006969Y029054D01*
X007030Y029116D01*
X007030Y029239D01*
X006969Y029301D01*
X006907Y029301D01*
X006784Y029239D01*
X006784Y029424D01*
X007030Y029424D01*
X007152Y029424D02*
X007152Y029177D01*
X007275Y029054D01*
X007399Y029177D01*
X007399Y029424D01*
X006662Y029239D02*
X006415Y029239D01*
X006539Y029362D02*
X006539Y029116D01*
X005916Y030909D02*
X005669Y030909D01*
X005607Y030971D01*
X005607Y031094D01*
X005669Y031156D01*
X005793Y031156D02*
X005793Y031033D01*
X005793Y031156D02*
X005916Y031156D01*
X005978Y031094D01*
X005978Y030971D01*
X005916Y030909D01*
X005978Y031278D02*
X005607Y031278D01*
X005978Y031524D01*
X005607Y031524D01*
X005607Y031646D02*
X005607Y031831D01*
X005669Y031893D01*
X005916Y031893D01*
X005978Y031831D01*
X005978Y031646D01*
X005607Y031646D01*
X033504Y027060D02*
X033601Y027157D01*
X033601Y026866D01*
X033504Y026866D02*
X033698Y026866D01*
D17*
X014252Y019529D03*
X010672Y019529D03*
X011552Y015149D03*
X013372Y015149D03*
X010712Y013589D03*
X010352Y012809D03*
X010472Y012169D03*
X012672Y012449D03*
X012692Y012509D03*
X012692Y012529D03*
X012712Y012569D03*
X012712Y012589D03*
X012732Y012629D03*
X012732Y012649D03*
X012752Y012689D03*
X012752Y012709D03*
X012892Y012709D03*
X012912Y012689D03*
X012912Y012669D03*
X012912Y012649D03*
X012932Y012609D03*
X012932Y012589D03*
X012952Y012549D03*
X012952Y012529D03*
X012972Y012489D03*
X012972Y012469D03*
X013152Y012449D03*
X012832Y012929D03*
X012832Y012949D03*
X015092Y012169D03*
X015272Y012329D03*
X016132Y013589D03*
D18*
X015272Y012349D03*
X014612Y012809D03*
X011812Y012169D03*
X011412Y012809D03*
X011572Y015129D03*
X013352Y015129D03*
D19*
X013682Y014209D03*
X013682Y014189D03*
X013682Y014169D03*
X013682Y014149D03*
X013682Y014129D03*
X013682Y014109D03*
X013682Y014089D03*
X013682Y014069D03*
X013682Y014049D03*
X013682Y014029D03*
X013682Y014009D03*
X013682Y013989D03*
X013682Y013969D03*
X013682Y013949D03*
X013682Y013929D03*
X013682Y013909D03*
X013682Y013889D03*
X013682Y013869D03*
X013682Y013849D03*
X013682Y013829D03*
X013682Y013809D03*
X013682Y013789D03*
X013682Y013769D03*
X013682Y013749D03*
X013682Y013729D03*
X013382Y013729D03*
X013382Y013709D03*
X013382Y013749D03*
X013382Y013769D03*
X013382Y013789D03*
X013382Y013849D03*
X013382Y013869D03*
X013382Y013889D03*
X013382Y013909D03*
X013382Y013929D03*
X012902Y013929D03*
X012902Y013949D03*
X012902Y013709D03*
X012902Y013689D03*
X012642Y013669D03*
X012642Y013649D03*
X012182Y013949D03*
X012182Y013969D03*
X012182Y014009D03*
X011342Y014209D03*
X011062Y014209D03*
X010762Y013909D03*
X010282Y013949D03*
X010282Y013969D03*
X010282Y013689D03*
X010282Y013669D03*
X010002Y013809D03*
X010002Y013829D03*
X009522Y013829D03*
X009522Y013809D03*
X009522Y013789D03*
X009522Y013769D03*
X009522Y013749D03*
X009522Y013849D03*
X009522Y013869D03*
X009522Y013889D03*
X009522Y014149D03*
X009522Y014169D03*
X009522Y014189D03*
X009522Y014209D03*
X009222Y013929D03*
X009222Y013909D03*
X009222Y013889D03*
X009222Y013869D03*
X009222Y013849D03*
X009222Y013829D03*
X009222Y013809D03*
X009222Y013789D03*
X009222Y013769D03*
X009222Y013749D03*
X009222Y013729D03*
X009222Y013709D03*
X009522Y013489D03*
X009522Y013469D03*
X009522Y013449D03*
X009522Y013429D03*
X009522Y013409D03*
X009522Y013389D03*
X009522Y013369D03*
X009522Y013349D03*
X009522Y013329D03*
X009522Y013309D03*
X009522Y013289D03*
X009522Y013269D03*
X009522Y013249D03*
X009522Y013229D03*
X009522Y013209D03*
X009522Y013189D03*
X009522Y013169D03*
X009522Y013149D03*
X009522Y013129D03*
X009522Y013109D03*
X009522Y013089D03*
X009522Y013069D03*
X009522Y013049D03*
X009522Y013029D03*
X009522Y013009D03*
X009522Y012989D03*
X009522Y012969D03*
X009522Y012949D03*
X009522Y012929D03*
X009522Y012909D03*
X009522Y012889D03*
X009522Y012649D03*
X009522Y012629D03*
X009522Y012609D03*
X009522Y012589D03*
X009522Y012569D03*
X009522Y012549D03*
X009522Y012529D03*
X009522Y012509D03*
X009522Y012489D03*
X009522Y012469D03*
X009522Y012449D03*
X009522Y012429D03*
X009522Y012409D03*
X009522Y012389D03*
X009522Y012369D03*
X009522Y012349D03*
X009522Y012329D03*
X009522Y012309D03*
X009522Y012289D03*
X009522Y012269D03*
X009522Y012249D03*
X009522Y012229D03*
X009522Y012209D03*
X009522Y012189D03*
X010002Y012189D03*
X010002Y012209D03*
X010002Y012229D03*
X010002Y012249D03*
X010002Y012269D03*
X010002Y012289D03*
X010002Y012309D03*
X010002Y012329D03*
X010002Y012349D03*
X010002Y012369D03*
X010002Y012389D03*
X010002Y012409D03*
X010002Y012429D03*
X010002Y012449D03*
X010002Y012469D03*
X010002Y012489D03*
X010002Y012509D03*
X010002Y012529D03*
X010002Y012549D03*
X010002Y012569D03*
X010002Y012589D03*
X010002Y012609D03*
X010002Y012629D03*
X010282Y012469D03*
X010282Y012449D03*
X010262Y012429D03*
X010262Y012409D03*
X010262Y012389D03*
X010282Y012349D03*
X010742Y012749D03*
X010742Y012769D03*
X011082Y012649D03*
X011082Y012629D03*
X011082Y012609D03*
X011082Y012589D03*
X011082Y012569D03*
X011082Y012549D03*
X011082Y012529D03*
X011082Y012509D03*
X011082Y012489D03*
X011082Y012469D03*
X011082Y012449D03*
X011082Y012429D03*
X011082Y012409D03*
X011082Y012389D03*
X011082Y012369D03*
X011082Y012349D03*
X011082Y012329D03*
X011082Y012309D03*
X011082Y012289D03*
X011082Y012269D03*
X011082Y012249D03*
X011082Y012229D03*
X011082Y012209D03*
X011082Y012189D03*
X011622Y012489D03*
X011622Y012509D03*
X011622Y012529D03*
X011622Y012549D03*
X011622Y012569D03*
X011622Y012589D03*
X011622Y012609D03*
X011622Y012629D03*
X011622Y012649D03*
X012102Y012589D03*
X012102Y012569D03*
X012102Y012549D03*
X012102Y012229D03*
X012102Y012209D03*
X012102Y012189D03*
X012502Y012429D03*
X012502Y012449D03*
X012502Y012469D03*
X012482Y012489D03*
X012482Y012509D03*
X012482Y012529D03*
X012462Y012549D03*
X012462Y012569D03*
X012462Y012589D03*
X012442Y012629D03*
X012442Y012649D03*
X012442Y012669D03*
X012422Y012709D03*
X012422Y012729D03*
X012402Y012769D03*
X012402Y012789D03*
X012382Y012849D03*
X012102Y012889D03*
X012102Y012909D03*
X012102Y012929D03*
X012102Y012949D03*
X012102Y012969D03*
X012102Y012989D03*
X012102Y013009D03*
X012102Y013029D03*
X012102Y013049D03*
X012102Y013069D03*
X012102Y013089D03*
X012102Y013109D03*
X012102Y013129D03*
X012102Y013149D03*
X012102Y013169D03*
X012102Y013189D03*
X012102Y013209D03*
X012102Y013229D03*
X012102Y013249D03*
X012102Y013269D03*
X012822Y012909D03*
X012742Y012669D03*
X012722Y012609D03*
X012702Y012549D03*
X012682Y012489D03*
X012682Y012469D03*
X012662Y012429D03*
X012582Y012189D03*
X012982Y012429D03*
X012982Y012449D03*
X012962Y012509D03*
X012942Y012569D03*
X012922Y012629D03*
X013182Y012569D03*
X013182Y012549D03*
X013182Y012529D03*
X013162Y012509D03*
X013162Y012489D03*
X013162Y012469D03*
X013142Y012429D03*
X013202Y012589D03*
X013202Y012609D03*
X013202Y012629D03*
X013222Y012669D03*
X013222Y012689D03*
X013242Y012749D03*
X013262Y012809D03*
X013262Y012829D03*
X013282Y012889D03*
X013482Y012449D03*
X013482Y012429D03*
X013482Y012409D03*
X013482Y012389D03*
X013482Y012369D03*
X013682Y012169D03*
X013962Y012189D03*
X013962Y012209D03*
X013962Y012229D03*
X013962Y012429D03*
X013962Y012449D03*
X013962Y012469D03*
X013962Y012489D03*
X013962Y012649D03*
X013962Y012669D03*
X013962Y012689D03*
X013962Y012709D03*
X013962Y012729D03*
X013882Y013429D03*
X014162Y013429D03*
X014162Y013449D03*
X014162Y013469D03*
X014162Y013489D03*
X014162Y013749D03*
X014162Y013769D03*
X014162Y013789D03*
X014162Y013809D03*
X014162Y013829D03*
X014162Y013849D03*
X014162Y013869D03*
X014162Y013889D03*
X014162Y013909D03*
X014162Y013929D03*
X014162Y013949D03*
X014162Y013969D03*
X014162Y013989D03*
X014162Y014009D03*
X014162Y014029D03*
X014162Y014049D03*
X014162Y014069D03*
X014162Y014089D03*
X014162Y014109D03*
X014162Y014129D03*
X014162Y014149D03*
X014162Y014169D03*
X014162Y014189D03*
X014162Y014209D03*
X014782Y014209D03*
X015022Y013929D03*
X015022Y013909D03*
X015022Y013729D03*
X015022Y013709D03*
X015462Y013589D03*
X015702Y013709D03*
X015702Y013729D03*
X015702Y013749D03*
X015702Y013889D03*
X015702Y013909D03*
X015702Y013929D03*
X015722Y013989D03*
X015462Y014049D03*
X016182Y013949D03*
X015322Y012689D03*
X015322Y012669D03*
X014862Y012729D03*
X014842Y012689D03*
X014842Y012669D03*
X014842Y012649D03*
X014842Y012509D03*
X014842Y012489D03*
X014842Y012469D03*
X014842Y012449D03*
X013062Y012189D03*
X011082Y012889D03*
X011082Y012909D03*
X011082Y012929D03*
X011082Y012949D03*
X011062Y013429D03*
X008742Y013689D03*
X008742Y013709D03*
X008742Y013929D03*
X008742Y013949D03*
D20*
X009912Y014069D03*
X010512Y014189D03*
X009912Y013569D03*
X010512Y012949D03*
X010472Y012189D03*
X011812Y012209D03*
X012592Y012409D03*
X013072Y012409D03*
X014352Y012809D03*
X013772Y013569D03*
X015112Y012189D03*
X015952Y014189D03*
X013412Y015209D03*
X011512Y015209D03*
D21*
X010672Y014889D03*
X010512Y014209D03*
X010312Y014029D03*
X010292Y014009D03*
X010292Y013989D03*
X010272Y013929D03*
X010272Y013909D03*
X010272Y013889D03*
X010272Y013749D03*
X010272Y013729D03*
X010272Y013709D03*
X010292Y013649D03*
X010312Y013609D03*
X009992Y013669D03*
X009992Y013689D03*
X009992Y013709D03*
X009992Y013729D03*
X009992Y013749D03*
X009992Y013769D03*
X009992Y013789D03*
X009992Y013849D03*
X009992Y013869D03*
X009992Y013889D03*
X009992Y013909D03*
X009992Y013929D03*
X009992Y013949D03*
X009992Y013969D03*
X009812Y014209D03*
X009532Y013969D03*
X009532Y013949D03*
X009532Y013929D03*
X009532Y013909D03*
X009532Y013729D03*
X009532Y013709D03*
X009532Y013689D03*
X009532Y013669D03*
X009212Y013669D03*
X009212Y013689D03*
X009192Y013629D03*
X009212Y013949D03*
X009212Y013969D03*
X009192Y014009D03*
X008752Y013989D03*
X008752Y013969D03*
X008732Y013909D03*
X008732Y013889D03*
X008732Y013869D03*
X008732Y013849D03*
X008732Y013829D03*
X008732Y013809D03*
X008732Y013789D03*
X008732Y013769D03*
X008732Y013749D03*
X008732Y013729D03*
X008752Y013669D03*
X008752Y013649D03*
X009812Y013429D03*
X009992Y012709D03*
X009992Y012689D03*
X009992Y012669D03*
X009992Y012649D03*
X010272Y012369D03*
X010752Y012389D03*
X010752Y012409D03*
X010752Y012429D03*
X010752Y012449D03*
X010752Y012469D03*
X010752Y012489D03*
X010752Y012509D03*
X010752Y012649D03*
X010752Y012669D03*
X010752Y012689D03*
X010752Y012709D03*
X010752Y012729D03*
X010732Y012789D03*
X011092Y012729D03*
X011092Y012709D03*
X011092Y012689D03*
X011092Y012669D03*
X011632Y012669D03*
X011632Y012689D03*
X011632Y012709D03*
X011632Y012729D03*
X011632Y012469D03*
X011632Y012449D03*
X011632Y012429D03*
X011632Y012409D03*
X012092Y012409D03*
X012092Y012429D03*
X012092Y012449D03*
X012092Y012469D03*
X012092Y012489D03*
X012092Y012509D03*
X012092Y012529D03*
X012092Y012609D03*
X012092Y012629D03*
X012092Y012649D03*
X012092Y012669D03*
X012092Y012689D03*
X012092Y012709D03*
X012392Y012809D03*
X012392Y012829D03*
X012372Y012869D03*
X012372Y012889D03*
X012372Y012909D03*
X012352Y012929D03*
X012352Y012949D03*
X012412Y012749D03*
X012432Y012689D03*
X012452Y012609D03*
X012592Y012229D03*
X012592Y012209D03*
X013072Y012209D03*
X013492Y012349D03*
X013492Y012469D03*
X013512Y012489D03*
X013212Y012649D03*
X013232Y012709D03*
X013232Y012729D03*
X013252Y012769D03*
X013252Y012789D03*
X013272Y012849D03*
X013272Y012869D03*
X013292Y012909D03*
X013292Y012929D03*
X013292Y012949D03*
X012832Y012889D03*
X012832Y012869D03*
X012632Y013609D03*
X012632Y013629D03*
X012632Y013689D03*
X012632Y013709D03*
X012892Y013729D03*
X012892Y013749D03*
X012892Y013769D03*
X012892Y013789D03*
X012892Y013809D03*
X012892Y013829D03*
X012892Y013849D03*
X012892Y013869D03*
X012892Y013889D03*
X012892Y013909D03*
X012912Y013969D03*
X012912Y013989D03*
X012912Y013669D03*
X012912Y013649D03*
X013372Y013649D03*
X013372Y013669D03*
X013372Y013689D03*
X013392Y013809D03*
X013392Y013829D03*
X013372Y013949D03*
X013372Y013969D03*
X013372Y013989D03*
X013692Y013709D03*
X013692Y013689D03*
X013692Y013669D03*
X014152Y013669D03*
X014152Y013689D03*
X014152Y013709D03*
X014152Y013729D03*
X014492Y013729D03*
X014492Y013709D03*
X014492Y013689D03*
X014492Y013669D03*
X014492Y013649D03*
X014492Y013629D03*
X014492Y013609D03*
X014492Y013589D03*
X014492Y013569D03*
X014492Y013549D03*
X014492Y013529D03*
X014492Y013509D03*
X014492Y013489D03*
X014492Y013469D03*
X014492Y013449D03*
X014492Y013429D03*
X014492Y013749D03*
X014492Y013769D03*
X014492Y013789D03*
X014492Y013809D03*
X014492Y013829D03*
X014492Y013849D03*
X014492Y013869D03*
X014492Y013889D03*
X014492Y013909D03*
X014492Y013929D03*
X014492Y013949D03*
X014492Y013969D03*
X014492Y014149D03*
X014492Y014169D03*
X014492Y014189D03*
X014492Y014209D03*
X015012Y013889D03*
X015012Y013869D03*
X015012Y013849D03*
X015012Y013829D03*
X015012Y013809D03*
X015012Y013789D03*
X015012Y013769D03*
X015012Y013749D03*
X015032Y013689D03*
X015032Y013669D03*
X015032Y013949D03*
X015032Y013969D03*
X015052Y013989D03*
X015712Y013969D03*
X015712Y013949D03*
X015732Y014009D03*
X015952Y014209D03*
X016152Y014029D03*
X016172Y013989D03*
X016172Y013969D03*
X016192Y013929D03*
X016192Y013909D03*
X016192Y013889D03*
X015732Y013649D03*
X015732Y013629D03*
X015712Y013669D03*
X015712Y013689D03*
X015292Y012769D03*
X015312Y012729D03*
X015312Y012709D03*
X015332Y012649D03*
X014892Y012789D03*
X014872Y012769D03*
X014872Y012749D03*
X014852Y012709D03*
X014852Y012429D03*
X014852Y012409D03*
X014872Y012389D03*
X014872Y012369D03*
X014292Y012369D03*
X014292Y012349D03*
X014292Y012329D03*
X014292Y012309D03*
X014292Y012289D03*
X014292Y012269D03*
X014292Y012249D03*
X014292Y012229D03*
X014292Y012209D03*
X014292Y012189D03*
X014292Y012389D03*
X014292Y012409D03*
X014292Y012429D03*
X014292Y012449D03*
X014292Y012469D03*
X014292Y012489D03*
X014292Y012509D03*
X014292Y012529D03*
X014292Y012549D03*
X014292Y012569D03*
X014292Y012589D03*
X014292Y012609D03*
X014292Y012629D03*
X014292Y012649D03*
X014292Y012669D03*
X014292Y012689D03*
X014292Y012709D03*
X014292Y012889D03*
X014292Y012909D03*
X014292Y012929D03*
X014292Y012949D03*
X013952Y012769D03*
X013952Y012749D03*
X013952Y012509D03*
X013952Y012409D03*
X013952Y012389D03*
X013952Y012369D03*
X012172Y013589D03*
X012192Y013929D03*
X012172Y013989D03*
X012192Y014029D03*
X011532Y013969D03*
X011532Y013949D03*
X011532Y013929D03*
X011532Y013909D03*
X011532Y013889D03*
X011532Y013869D03*
X011532Y013849D03*
X011532Y013829D03*
X011532Y013809D03*
X011532Y013789D03*
X011532Y013769D03*
X011532Y013749D03*
X011532Y013729D03*
X011532Y013709D03*
X011532Y013689D03*
X011532Y013669D03*
X011532Y013649D03*
X011532Y013629D03*
X011532Y013609D03*
X011532Y013589D03*
X011532Y013569D03*
X011532Y013549D03*
X011532Y013529D03*
X011532Y013509D03*
X011532Y013489D03*
X011532Y013469D03*
X011532Y013449D03*
X011532Y013429D03*
X011052Y013449D03*
X011052Y013469D03*
X011052Y013489D03*
X011052Y013509D03*
X011052Y013529D03*
X011052Y013549D03*
X011052Y013569D03*
X011052Y013589D03*
X011052Y013609D03*
X011052Y013629D03*
X011052Y013649D03*
X011052Y013669D03*
X011052Y013689D03*
X011052Y013709D03*
X011052Y013729D03*
X011052Y013749D03*
X011052Y013769D03*
X011052Y013789D03*
X011052Y013809D03*
X011052Y013829D03*
X011052Y013849D03*
X011052Y013869D03*
X011052Y013889D03*
X011052Y013909D03*
X011052Y013929D03*
X011052Y013949D03*
X011052Y014149D03*
X011052Y014169D03*
X011052Y014189D03*
X010732Y014009D03*
X010732Y013989D03*
X010752Y013969D03*
X010752Y013949D03*
X010752Y013929D03*
X010752Y013889D03*
X009532Y012729D03*
X009532Y012709D03*
X009532Y012689D03*
X009532Y012669D03*
X010752Y012229D03*
X010752Y012209D03*
X010752Y012189D03*
X014252Y014889D03*
X014252Y019509D03*
X010672Y019509D03*
D22*
X011332Y014189D03*
X011092Y014049D03*
X012192Y013569D03*
X011692Y012809D03*
X012052Y012329D03*
X011812Y012189D03*
X012592Y012349D03*
X012832Y012749D03*
X012832Y012769D03*
X013072Y012349D03*
X013552Y012309D03*
X013552Y012509D03*
X013912Y012309D03*
X014332Y012789D03*
X013872Y013449D03*
X014112Y013589D03*
X014532Y014049D03*
X014772Y014189D03*
X015432Y014069D03*
X015432Y013569D03*
X010352Y012509D03*
X010332Y012309D03*
X009812Y013449D03*
X009812Y014189D03*
D23*
X009122Y014069D03*
X008842Y014069D03*
X008842Y013569D03*
X009122Y013569D03*
X009582Y012809D03*
X009802Y012929D03*
X009922Y012809D03*
X010702Y012309D03*
X011142Y012809D03*
X011362Y012929D03*
X011802Y012929D03*
X012042Y012809D03*
X012582Y012389D03*
X012582Y012369D03*
X012822Y012729D03*
X013062Y012389D03*
X013062Y012369D03*
X013682Y012189D03*
X013722Y012949D03*
X013282Y013569D03*
X013002Y013569D03*
X012582Y013749D03*
X013002Y014069D03*
X013282Y014069D03*
X014242Y014929D03*
X014582Y012929D03*
X014942Y012309D03*
X010682Y014929D03*
X010682Y019469D03*
X014242Y019469D03*
D24*
X014762Y014149D03*
X014562Y012889D03*
X013682Y012209D03*
X010462Y012209D03*
X009802Y012909D03*
D25*
X009802Y012889D03*
X010462Y012229D03*
X012302Y013889D03*
X013722Y012929D03*
X015082Y012909D03*
X015282Y013469D03*
X015962Y013469D03*
X015282Y014169D03*
X015102Y012209D03*
D26*
X013872Y013489D03*
X013132Y013469D03*
X013132Y014169D03*
X012392Y013449D03*
X011812Y012889D03*
X011812Y012229D03*
X010512Y012929D03*
X009812Y013489D03*
X008972Y013469D03*
X008972Y014169D03*
X009812Y014149D03*
X010512Y014169D03*
X011352Y014149D03*
X010692Y014969D03*
X014232Y014969D03*
X015952Y014169D03*
X014232Y019429D03*
X010692Y019429D03*
D27*
X011542Y015169D03*
X011502Y014009D03*
X011522Y013989D03*
X011062Y013989D03*
X011062Y013969D03*
X010722Y014029D03*
X010702Y014049D03*
X010322Y014049D03*
X009982Y014009D03*
X009982Y013989D03*
X009962Y014029D03*
X009542Y014009D03*
X009542Y013989D03*
X009542Y013649D03*
X009542Y013629D03*
X009202Y013649D03*
X009182Y013609D03*
X008982Y013429D03*
X008782Y013609D03*
X008762Y013629D03*
X009202Y013989D03*
X009182Y014029D03*
X008982Y014209D03*
X008782Y014029D03*
X008762Y014009D03*
X009962Y013609D03*
X009982Y013629D03*
X009982Y013649D03*
X010302Y013629D03*
X009982Y012749D03*
X009982Y012729D03*
X010302Y012489D03*
X010302Y012329D03*
X010742Y012349D03*
X010742Y012369D03*
X011102Y012749D03*
X011642Y012749D03*
X011802Y012949D03*
X012082Y012749D03*
X012082Y012729D03*
X012082Y012389D03*
X012082Y012369D03*
X011662Y012349D03*
X011642Y012369D03*
X011642Y012389D03*
X012582Y012249D03*
X013062Y012249D03*
X013062Y012229D03*
X013502Y012329D03*
X013942Y012349D03*
X013942Y012789D03*
X013922Y012809D03*
X014302Y012729D03*
X014582Y012949D03*
X014882Y012349D03*
X015302Y012749D03*
X015282Y012789D03*
X015282Y013429D03*
X015062Y013629D03*
X015042Y013649D03*
X015742Y013609D03*
X015762Y013589D03*
X015742Y014029D03*
X015762Y014049D03*
X016162Y014009D03*
X015282Y014209D03*
X015062Y014009D03*
X014502Y013989D03*
X014142Y013649D03*
X014142Y013629D03*
X013702Y013629D03*
X013702Y013649D03*
X013362Y013629D03*
X013342Y013609D03*
X013142Y013429D03*
X012942Y013609D03*
X012922Y013629D03*
X012622Y013589D03*
X012622Y013729D03*
X012562Y014069D03*
X012402Y014209D03*
X012202Y014049D03*
X012922Y014009D03*
X012942Y014029D03*
X013142Y014209D03*
X013342Y014029D03*
X013362Y014009D03*
X013382Y015169D03*
X012822Y012849D03*
X009542Y012749D03*
D28*
X010532Y013469D03*
X010512Y014149D03*
X010692Y014989D03*
X012412Y014169D03*
X012492Y013769D03*
X014232Y014989D03*
X015952Y014149D03*
X013832Y012629D03*
X013672Y012229D03*
X014232Y019409D03*
X010692Y019409D03*
D29*
X010512Y014129D03*
X012392Y013469D03*
X010512Y012909D03*
X015112Y012229D03*
X015292Y013489D03*
X015972Y013489D03*
X015952Y014129D03*
X015292Y014149D03*
D30*
X013942Y013549D03*
X013942Y013529D03*
X013742Y012549D03*
X013742Y012529D03*
X013742Y012269D03*
X012382Y013529D03*
X011882Y012849D03*
X011882Y012289D03*
X011882Y012269D03*
X010542Y012249D03*
X010542Y012549D03*
X009742Y012829D03*
X009742Y012849D03*
X009742Y013529D03*
X009742Y013549D03*
X009742Y014089D03*
X009742Y014109D03*
X011262Y014109D03*
X011262Y014129D03*
D31*
X010532Y013549D03*
X009732Y013509D03*
X009732Y014129D03*
X009732Y012869D03*
X010552Y012569D03*
X011892Y012869D03*
X011892Y012249D03*
X013752Y012249D03*
X013752Y012569D03*
X013952Y013509D03*
X015292Y013549D03*
X015292Y014089D03*
X015112Y012289D03*
X012412Y014109D03*
X010712Y019349D03*
X014212Y019349D03*
D32*
X014652Y014109D03*
X015292Y014129D03*
X015952Y014109D03*
X015972Y013509D03*
X015292Y013509D03*
X014452Y012849D03*
X015112Y012249D03*
X012432Y013809D03*
X012392Y013849D03*
X012412Y014149D03*
X010512Y014109D03*
X010512Y012889D03*
X011252Y012869D03*
X011252Y012849D03*
D33*
X011872Y012829D03*
X011872Y012309D03*
X010532Y012289D03*
X010532Y012269D03*
X010532Y012529D03*
X011272Y014069D03*
X011272Y014089D03*
X010712Y015069D03*
X014212Y015069D03*
X013732Y012289D03*
X014212Y019329D03*
X010712Y019329D03*
D34*
X010672Y019489D03*
X014252Y019489D03*
X014252Y014909D03*
X014512Y014029D03*
X014512Y014009D03*
X015072Y014029D03*
X015092Y014049D03*
X015072Y013609D03*
X015092Y013589D03*
X015972Y013429D03*
X016112Y013569D03*
X016132Y014049D03*
X015252Y012809D03*
X014912Y012809D03*
X014312Y012769D03*
X014312Y012749D03*
X013932Y012329D03*
X013072Y012289D03*
X013072Y012269D03*
X012592Y012269D03*
X012592Y012289D03*
X012072Y012349D03*
X012072Y012769D03*
X011672Y012789D03*
X011652Y012769D03*
X011372Y012949D03*
X011112Y012769D03*
X010712Y012809D03*
X009972Y012769D03*
X009952Y012789D03*
X009812Y012949D03*
X009552Y012769D03*
X009552Y013609D03*
X009172Y013589D03*
X008792Y013589D03*
X008792Y014049D03*
X009172Y014049D03*
X009552Y014029D03*
X009952Y014049D03*
X010352Y014069D03*
X010332Y013589D03*
X010532Y013429D03*
X010692Y013569D03*
X009952Y013589D03*
X011072Y014009D03*
X011492Y014029D03*
X012212Y014069D03*
X012212Y013909D03*
X012392Y013429D03*
X012952Y013589D03*
X013332Y013589D03*
X013712Y013609D03*
X014132Y013609D03*
X013332Y014049D03*
X012952Y014049D03*
X012832Y012829D03*
X012832Y012809D03*
X014912Y012329D03*
X010732Y012329D03*
X010672Y014909D03*
D35*
X010512Y014089D03*
X008972Y014089D03*
X008972Y013549D03*
X010512Y012869D03*
X010532Y012829D03*
X012412Y014129D03*
X013752Y012829D03*
X015092Y012829D03*
X015112Y012269D03*
X015292Y013529D03*
X015972Y013529D03*
X015952Y014089D03*
X015292Y014109D03*
D36*
X015782Y014069D03*
X016102Y014069D03*
X015782Y013569D03*
X015082Y012949D03*
X015242Y012309D03*
X013742Y013589D03*
X012582Y013569D03*
X012822Y012789D03*
X012062Y012789D03*
X011682Y012329D03*
X011122Y012789D03*
X010362Y013569D03*
X009562Y013589D03*
X009562Y014049D03*
X010682Y014069D03*
X011082Y014029D03*
X011482Y014049D03*
X011522Y015189D03*
X013402Y015189D03*
X009562Y012789D03*
X012582Y012329D03*
X012582Y012309D03*
X013062Y012309D03*
X013062Y012329D03*
D37*
X014632Y012789D03*
X015272Y012369D03*
X014832Y014049D03*
X010352Y012789D03*
D38*
X010512Y013769D03*
X010512Y013789D03*
X010512Y013809D03*
X010512Y013829D03*
X010512Y013849D03*
X010512Y013869D03*
X012372Y013549D03*
X010712Y015089D03*
X014212Y015089D03*
X015952Y013869D03*
X015952Y013849D03*
X015952Y013829D03*
X015952Y013809D03*
X015952Y013789D03*
X015952Y013769D03*
X015092Y012629D03*
X015092Y012609D03*
X015092Y012529D03*
D39*
X015082Y012549D03*
X015082Y012569D03*
X015082Y012589D03*
X014202Y019309D03*
X010722Y019309D03*
D40*
X010702Y015049D03*
X012402Y014089D03*
X012382Y013509D03*
X013142Y013549D03*
X013142Y014089D03*
X014222Y015049D03*
X015962Y013549D03*
X013722Y012869D03*
X013722Y012849D03*
X013762Y012589D03*
X010562Y012589D03*
X010522Y012849D03*
X010542Y013529D03*
D41*
X010542Y013509D03*
X010582Y012609D03*
X008982Y013529D03*
X008982Y014109D03*
X010702Y015029D03*
X012402Y013829D03*
X012382Y013489D03*
X013142Y013529D03*
X013142Y014109D03*
X014222Y015029D03*
X014662Y014129D03*
X014462Y012869D03*
X013782Y012609D03*
X013722Y012889D03*
X015082Y012849D03*
X014222Y019369D03*
X010702Y019369D03*
D42*
X008982Y014149D03*
X008982Y013489D03*
X010622Y012629D03*
X013142Y013489D03*
X013142Y014149D03*
X015082Y012889D03*
D43*
X016142Y013629D03*
X013342Y015109D03*
X011582Y015109D03*
X012162Y013649D03*
X011422Y012789D03*
X010702Y013629D03*
D44*
X010702Y013609D03*
X012162Y013629D03*
X012602Y014029D03*
X014262Y014849D03*
X015462Y014009D03*
X015462Y013629D03*
X016142Y013609D03*
X013562Y012789D03*
X010662Y014849D03*
X010662Y019549D03*
X014262Y019549D03*
D45*
X014262Y014869D03*
X015462Y014029D03*
X015462Y013609D03*
X013562Y012809D03*
X012162Y013609D03*
X012582Y014049D03*
X010662Y014869D03*
D46*
X010702Y015009D03*
X008982Y014129D03*
X008982Y013509D03*
X010542Y013489D03*
X011242Y012829D03*
X012362Y013869D03*
X012442Y013789D03*
X013142Y013509D03*
X013142Y014129D03*
X014222Y015009D03*
X014642Y014089D03*
X014642Y014069D03*
X014442Y012829D03*
X013722Y012909D03*
X015082Y012869D03*
X014222Y019389D03*
X010702Y019389D03*
D47*
X011492Y015229D03*
X012412Y014189D03*
X013432Y015229D03*
X013872Y013469D03*
X014572Y012909D03*
X015972Y013449D03*
X011812Y012909D03*
X011372Y012909D03*
X011352Y012889D03*
X010532Y013449D03*
X009812Y014169D03*
D48*
X009602Y014069D03*
X008982Y014189D03*
X008982Y013449D03*
X009602Y013569D03*
X009822Y013469D03*
X011342Y014169D03*
X010682Y014949D03*
X013142Y014189D03*
X013142Y013449D03*
X014082Y013569D03*
X014782Y014169D03*
X015142Y014069D03*
X015282Y014189D03*
X015142Y013569D03*
X015282Y013449D03*
X015082Y012929D03*
X014242Y014949D03*
X014242Y019449D03*
X010682Y019449D03*
D49*
X010722Y019289D03*
X014202Y019289D03*
X014202Y015109D03*
X010722Y015109D03*
D50*
X010722Y015129D03*
X014202Y015129D03*
X014202Y019269D03*
D51*
X014192Y019249D03*
X010732Y019249D03*
X010732Y015149D03*
X014192Y015149D03*
D52*
X014192Y015169D03*
X010732Y015169D03*
X010732Y019229D03*
X014192Y019229D03*
D53*
X014182Y019209D03*
X012462Y019849D03*
X012462Y019869D03*
X012462Y019889D03*
X012462Y019909D03*
X012462Y019929D03*
X012462Y019949D03*
X010742Y019209D03*
X010742Y015189D03*
X014182Y015189D03*
D54*
X014182Y015209D03*
X010742Y015209D03*
X010742Y019189D03*
X012462Y019749D03*
X012462Y019769D03*
X012462Y019789D03*
X012462Y019809D03*
X012462Y019829D03*
X014182Y019189D03*
D55*
X014172Y019169D03*
X010752Y019169D03*
X010752Y015229D03*
X014172Y015229D03*
D56*
X013982Y015249D03*
X010942Y015249D03*
D57*
X010942Y015269D03*
X011242Y016009D03*
X013682Y016009D03*
X013982Y015269D03*
X012462Y019269D03*
D58*
X011252Y016069D03*
X011252Y016049D03*
X011252Y016029D03*
X011232Y015989D03*
X011212Y015969D03*
X011212Y015949D03*
X010932Y015289D03*
X013672Y016029D03*
X013672Y016049D03*
X013672Y016069D03*
X013692Y015989D03*
X013712Y015969D03*
X013712Y015949D03*
X013992Y015289D03*
D59*
X013992Y015309D03*
X013792Y015809D03*
X013772Y015849D03*
X013672Y016089D03*
X013672Y016109D03*
X011252Y016109D03*
X011252Y016089D03*
X011152Y015849D03*
X011132Y015809D03*
X010932Y015309D03*
D60*
X010922Y015329D03*
X011082Y015729D03*
X011102Y015749D03*
X011102Y015769D03*
X011122Y015789D03*
X011262Y016129D03*
X013662Y016129D03*
X013802Y015789D03*
X013822Y015769D03*
X013822Y015749D03*
X013842Y015729D03*
X014002Y015329D03*
D61*
X014002Y015349D03*
X013922Y015569D03*
X013922Y015589D03*
X013902Y015609D03*
X013882Y015649D03*
X013662Y016169D03*
X013842Y016609D03*
X013862Y016629D03*
X013862Y017749D03*
X012462Y019249D03*
X011062Y017749D03*
X011062Y016629D03*
X011082Y016609D03*
X011262Y016169D03*
X011042Y015649D03*
X011022Y015609D03*
X011002Y015589D03*
X011002Y015569D03*
X010922Y015349D03*
D62*
X010912Y015369D03*
X010952Y015489D03*
X010972Y015509D03*
X010972Y015529D03*
X010992Y015549D03*
X011252Y016189D03*
X011252Y016209D03*
X011112Y016569D03*
X011092Y016589D03*
X011112Y017809D03*
X011132Y017829D03*
X013792Y017829D03*
X013812Y017809D03*
X013832Y016589D03*
X013812Y016569D03*
X013672Y016209D03*
X013672Y016189D03*
X013932Y015549D03*
X013952Y015529D03*
X013952Y015509D03*
X013972Y015489D03*
X014012Y015369D03*
D63*
X014022Y015389D03*
X014002Y015429D03*
X013982Y015469D03*
X013662Y016229D03*
X013802Y016549D03*
X013922Y016669D03*
X013782Y017849D03*
X013762Y017869D03*
X011162Y017869D03*
X011142Y017849D03*
X011002Y016669D03*
X011122Y016549D03*
X011262Y016229D03*
X010942Y015469D03*
X010922Y015429D03*
X010902Y015389D03*
D64*
X010912Y015409D03*
X010932Y015449D03*
X011252Y016249D03*
X011152Y016529D03*
X011012Y017729D03*
X013912Y017729D03*
X013772Y016529D03*
X013672Y016249D03*
X013992Y015449D03*
X014012Y015409D03*
D65*
X013892Y015629D03*
X013872Y015669D03*
X013852Y015689D03*
X013852Y015709D03*
X013672Y016149D03*
X013872Y016649D03*
X013852Y017769D03*
X013832Y017789D03*
X011092Y017789D03*
X011072Y017769D03*
X011052Y016649D03*
X011252Y016149D03*
X011072Y015709D03*
X011072Y015689D03*
X011052Y015669D03*
X011032Y015629D03*
D66*
X011142Y015829D03*
X011162Y015869D03*
X011182Y015889D03*
X011182Y015909D03*
X011202Y015929D03*
X013722Y015929D03*
X013742Y015909D03*
X013742Y015889D03*
X013762Y015869D03*
X013782Y015829D03*
D67*
X013662Y016269D03*
X013762Y016509D03*
X013742Y017889D03*
X012462Y019229D03*
X011182Y017889D03*
X011162Y016509D03*
X011262Y016269D03*
D68*
X011252Y016289D03*
X011252Y016309D03*
X011192Y017909D03*
X013732Y017909D03*
X013672Y016309D03*
X013672Y016289D03*
D69*
X013662Y016329D03*
X013722Y016469D03*
X013742Y016489D03*
X013702Y017929D03*
X011222Y017929D03*
X011182Y016489D03*
X011202Y016469D03*
X011262Y016329D03*
D70*
X011252Y016349D03*
X011212Y016449D03*
X010952Y016689D03*
X013672Y016349D03*
X013712Y016449D03*
X013972Y016689D03*
D71*
X013682Y016429D03*
X013662Y016369D03*
X013982Y017709D03*
X013682Y017949D03*
X011242Y017949D03*
X010942Y017709D03*
X011242Y016429D03*
X011262Y016369D03*
D72*
X011252Y016389D03*
X011252Y016409D03*
X011272Y017969D03*
X013652Y017969D03*
X013672Y016409D03*
X013672Y016389D03*
D73*
X014042Y016709D03*
X014042Y017689D03*
X010882Y017689D03*
X010882Y016709D03*
D74*
X010822Y016729D03*
X014102Y016729D03*
D75*
X014152Y016749D03*
X010772Y016749D03*
D76*
X010702Y016769D03*
X010702Y017629D03*
X014222Y017629D03*
X014222Y016769D03*
D77*
X014282Y016789D03*
X014322Y016869D03*
X014322Y016889D03*
X014322Y017489D03*
X014322Y017509D03*
X014322Y017529D03*
X010602Y017529D03*
X010602Y017509D03*
X010602Y017489D03*
X010602Y016889D03*
X010602Y016869D03*
X010642Y016789D03*
D78*
X010622Y016809D03*
X010622Y017569D03*
X010622Y017589D03*
X010642Y017609D03*
X014282Y017609D03*
X014302Y017589D03*
X014302Y017569D03*
X014302Y016809D03*
D79*
X014312Y016829D03*
X014312Y016849D03*
X014312Y017549D03*
X010612Y017549D03*
X010612Y016849D03*
X010612Y016829D03*
D80*
X010592Y016909D03*
X010592Y016929D03*
X010592Y016949D03*
X010592Y017429D03*
X010592Y017449D03*
X010592Y017469D03*
X014332Y017469D03*
X014332Y017449D03*
X014332Y017429D03*
X014332Y016949D03*
X014332Y016929D03*
X014332Y016909D03*
D81*
X014342Y016969D03*
X014342Y016989D03*
X014342Y017009D03*
X014342Y017029D03*
X014342Y017049D03*
X014342Y017329D03*
X014342Y017349D03*
X014342Y017369D03*
X014342Y017389D03*
X014342Y017409D03*
X012462Y019129D03*
X010582Y017409D03*
X010582Y017389D03*
X010582Y017369D03*
X010582Y017349D03*
X010582Y017329D03*
X010582Y017049D03*
X010582Y017029D03*
X010582Y017009D03*
X010582Y016989D03*
X010582Y016969D03*
D82*
X010572Y017069D03*
X010572Y017089D03*
X010572Y017109D03*
X010572Y017129D03*
X010572Y017149D03*
X010572Y017169D03*
X010572Y017189D03*
X010572Y017209D03*
X010572Y017229D03*
X010572Y017249D03*
X010572Y017269D03*
X010572Y017289D03*
X010572Y017309D03*
X014352Y017309D03*
X014352Y017289D03*
X014352Y017269D03*
X014352Y017249D03*
X014352Y017229D03*
X014352Y017209D03*
X014352Y017189D03*
X014352Y017169D03*
X014352Y017149D03*
X014352Y017129D03*
X014352Y017109D03*
X014352Y017089D03*
X014352Y017069D03*
D83*
X014162Y017649D03*
X010762Y017649D03*
D84*
X010812Y017669D03*
X014112Y017669D03*
D85*
X013612Y017989D03*
X011312Y017989D03*
D86*
X011352Y018009D03*
X013572Y018009D03*
D87*
X012462Y018029D03*
X012462Y018049D03*
X012462Y018529D03*
D88*
X012462Y018509D03*
X012462Y018489D03*
X012462Y018089D03*
X012462Y018069D03*
D89*
X012462Y018109D03*
X012462Y018129D03*
X012462Y018469D03*
D90*
X012462Y018449D03*
X012462Y018429D03*
X012462Y018189D03*
X012462Y018169D03*
X012462Y018149D03*
D91*
X012462Y018209D03*
X012462Y018229D03*
X012462Y018409D03*
D92*
X012462Y018389D03*
X012462Y018269D03*
X012462Y018249D03*
D93*
X012462Y018289D03*
X012462Y018309D03*
X012462Y018329D03*
X012462Y018349D03*
D94*
X012472Y018369D03*
D95*
X012462Y018549D03*
X012462Y018569D03*
D96*
X012462Y018589D03*
D97*
X012462Y018609D03*
X012462Y018629D03*
D98*
X012462Y018649D03*
D99*
X012462Y018669D03*
D100*
X012462Y018689D03*
X012462Y018709D03*
D101*
X012462Y018729D03*
D102*
X012462Y018749D03*
X012462Y018769D03*
D103*
X012462Y018789D03*
D104*
X012462Y018809D03*
X012462Y018829D03*
D105*
X012462Y018849D03*
X012462Y019109D03*
D106*
X012462Y019089D03*
X012462Y018889D03*
X012462Y018869D03*
D107*
X012462Y018909D03*
X012462Y019069D03*
D108*
X012462Y019049D03*
X012462Y018949D03*
X012462Y018929D03*
D109*
X012462Y018969D03*
X012462Y019029D03*
D110*
X012462Y019009D03*
X012462Y018989D03*
D111*
X012462Y019369D03*
X012462Y019389D03*
X012462Y019409D03*
X014162Y019129D03*
X010762Y019129D03*
D112*
X010752Y019149D03*
X014172Y019149D03*
D113*
X012462Y019149D03*
D114*
X012462Y019169D03*
D115*
X012462Y019189D03*
D116*
X012462Y019209D03*
D117*
X010732Y019269D03*
D118*
X012462Y019289D03*
D119*
X012462Y019309D03*
D120*
X012462Y019329D03*
D121*
X012462Y019349D03*
D122*
X012462Y019429D03*
X012462Y019449D03*
X012462Y019469D03*
X012462Y019489D03*
X012462Y019509D03*
D123*
X012462Y019529D03*
X012462Y019549D03*
X012462Y019569D03*
X012462Y019589D03*
X012462Y019609D03*
X012462Y019629D03*
D124*
X012462Y019649D03*
X012462Y019669D03*
X012462Y019689D03*
X012462Y019709D03*
X012462Y019729D03*
D125*
X012462Y019969D03*
X012462Y019989D03*
X012462Y020009D03*
X012462Y020029D03*
X012462Y020049D03*
D126*
X012462Y020069D03*
X012462Y020089D03*
X012462Y020109D03*
X012462Y020129D03*
D127*
X012462Y020149D03*
D128*
X030952Y015789D03*
X030712Y006279D03*
X032302Y006219D03*
X032302Y006189D03*
D129*
X032317Y006249D03*
X030697Y006309D03*
X030697Y006339D03*
X029767Y015699D03*
D130*
X030682Y006369D03*
X032332Y006309D03*
X032332Y006279D03*
D131*
X032347Y006339D03*
X032347Y006369D03*
X030667Y006399D03*
X030667Y006429D03*
X031027Y015759D03*
D132*
X030652Y006459D03*
X032362Y006399D03*
D133*
X032377Y006429D03*
X032377Y006459D03*
X030667Y006489D03*
X029737Y015669D03*
D134*
X031132Y015729D03*
X030652Y006519D03*
X032392Y006519D03*
X032392Y006489D03*
D135*
X032407Y006549D03*
X030637Y006549D03*
X030637Y006579D03*
D136*
X030622Y006609D03*
X032422Y006609D03*
X032422Y006579D03*
D137*
X032437Y006639D03*
X032437Y006669D03*
X030607Y006669D03*
X030607Y006639D03*
X029707Y015639D03*
X031207Y015699D03*
D138*
X030592Y006699D03*
X032452Y006699D03*
X032482Y006729D03*
X032482Y006759D03*
D139*
X032497Y006789D03*
X032497Y006819D03*
X030577Y006729D03*
D140*
X030592Y006759D03*
X032512Y006849D03*
X031282Y015669D03*
D141*
X029677Y015609D03*
X030577Y006819D03*
X030577Y006789D03*
X032527Y006879D03*
X032527Y006909D03*
D142*
X032542Y006939D03*
X032542Y006969D03*
X030562Y006849D03*
D143*
X030547Y006879D03*
X030547Y006909D03*
X032557Y006999D03*
X031357Y015639D03*
D144*
X029662Y015579D03*
X032572Y007059D03*
X032572Y007029D03*
X030532Y006939D03*
D145*
X030517Y006969D03*
X030517Y006999D03*
X032587Y007089D03*
X032587Y007119D03*
D146*
X032617Y007179D03*
X032617Y007209D03*
X030517Y007029D03*
D147*
X030502Y007059D03*
X030502Y007089D03*
X032632Y007239D03*
X032632Y007269D03*
D148*
X032647Y007299D03*
X032647Y007329D03*
X030487Y007149D03*
X030487Y007119D03*
X029647Y015549D03*
X031537Y015579D03*
D149*
X031462Y015609D03*
X032602Y007149D03*
D150*
X032662Y007359D03*
X030472Y007179D03*
D151*
X030457Y007209D03*
X030457Y007239D03*
X032677Y007389D03*
X032677Y007419D03*
X032707Y007449D03*
X032707Y007479D03*
D152*
X032722Y007509D03*
X030442Y007269D03*
X031612Y015549D03*
D153*
X032752Y007629D03*
X032752Y007599D03*
X030442Y007329D03*
X030442Y007299D03*
D154*
X030427Y007359D03*
X032767Y007659D03*
X031687Y015519D03*
D155*
X032782Y007719D03*
X032782Y007689D03*
X030412Y007419D03*
X030412Y007389D03*
D156*
X030397Y007449D03*
X030397Y007479D03*
X032797Y007749D03*
X032797Y007779D03*
X031777Y015489D03*
X029587Y015489D03*
D157*
X032812Y007809D03*
X030382Y007509D03*
D158*
X030367Y007539D03*
X032827Y007839D03*
X032827Y007869D03*
D159*
X032737Y007569D03*
X032737Y007539D03*
X029617Y015519D03*
D160*
X032842Y007929D03*
X032842Y007899D03*
X030382Y007569D03*
D161*
X030367Y007599D03*
X032857Y007959D03*
X031867Y015459D03*
X029557Y015459D03*
D162*
X032872Y008019D03*
X032872Y007989D03*
X030352Y007659D03*
X030352Y007629D03*
D163*
X030337Y007689D03*
X032887Y008049D03*
X032887Y008079D03*
D164*
X032902Y008109D03*
X032932Y008139D03*
X032932Y008169D03*
X030322Y007749D03*
X030322Y007719D03*
X031942Y015429D03*
D165*
X029527Y015429D03*
X032947Y008229D03*
X032947Y008199D03*
X030307Y007809D03*
X030307Y007779D03*
D166*
X030307Y007839D03*
X032977Y008289D03*
X032977Y008319D03*
X032017Y015399D03*
D167*
X032992Y008379D03*
X032992Y008349D03*
X030292Y007899D03*
X030292Y007869D03*
D168*
X030277Y007929D03*
X033007Y008409D03*
X032107Y015369D03*
X029497Y015399D03*
D169*
X033022Y008469D03*
X033022Y008439D03*
X030262Y007989D03*
X030262Y007959D03*
D170*
X030247Y008019D03*
X030247Y008049D03*
X033037Y008499D03*
X033037Y008529D03*
D171*
X033052Y008559D03*
X030232Y008079D03*
D172*
X030232Y008109D03*
X030232Y008139D03*
X033082Y008649D03*
X033082Y008679D03*
D173*
X033097Y008709D03*
X030217Y008169D03*
D174*
X030202Y008199D03*
X030202Y008229D03*
X033112Y008739D03*
X033112Y008769D03*
X032272Y015309D03*
D175*
X033157Y008859D03*
X033127Y008829D03*
X033127Y008799D03*
X030187Y008259D03*
D176*
X032962Y008259D03*
D177*
X033172Y008889D03*
X033172Y008919D03*
X030172Y008319D03*
X030172Y008289D03*
X032362Y015279D03*
X029452Y015339D03*
D178*
X033187Y008979D03*
X033187Y008949D03*
X030157Y008349D03*
D179*
X030172Y008379D03*
X033202Y009009D03*
D180*
X033217Y009039D03*
X033217Y009069D03*
X030157Y008409D03*
X032437Y015249D03*
D181*
X029422Y015309D03*
X033232Y009129D03*
X033232Y009099D03*
X030142Y008469D03*
X030142Y008439D03*
D182*
X030127Y008499D03*
X033247Y009159D03*
D183*
X033262Y009189D03*
X033262Y009219D03*
X030112Y008559D03*
X030112Y008529D03*
D184*
X030097Y008589D03*
X033277Y009249D03*
X033277Y009279D03*
X032527Y015219D03*
D185*
X032197Y015339D03*
X029467Y015369D03*
X033067Y008619D03*
X033067Y008589D03*
D186*
X033292Y009309D03*
X030082Y008619D03*
X029392Y015279D03*
D187*
X033307Y009369D03*
X033307Y009339D03*
X030097Y008649D03*
D188*
X030082Y008679D03*
X030082Y008709D03*
X033322Y009399D03*
X033322Y009429D03*
X032602Y015189D03*
D189*
X033337Y009459D03*
X030067Y008739D03*
D190*
X030052Y008769D03*
X030052Y008799D03*
X033352Y009489D03*
X033352Y009519D03*
X033382Y009579D03*
X032692Y015159D03*
X029362Y015249D03*
D191*
X033397Y009609D03*
X033367Y009549D03*
X030037Y008829D03*
D192*
X030022Y008859D03*
X030022Y008889D03*
X033412Y009639D03*
X033412Y009669D03*
D193*
X033442Y009759D03*
X030022Y008919D03*
X029332Y015219D03*
D194*
X033457Y009819D03*
X033457Y009789D03*
X030007Y008979D03*
X030007Y008949D03*
D195*
X029992Y009009D03*
X029992Y009039D03*
X033472Y009849D03*
X033472Y009879D03*
D196*
X033487Y009909D03*
X029977Y009069D03*
X032857Y015099D03*
D197*
X035362Y013089D03*
X033502Y009969D03*
X033502Y009939D03*
X029962Y009129D03*
X029962Y009099D03*
X029302Y015189D03*
D198*
X035257Y012939D03*
X035287Y012999D03*
X035317Y013029D03*
X035347Y013059D03*
X035377Y013119D03*
X033517Y010029D03*
X033517Y009999D03*
X029947Y009159D03*
D199*
X029947Y009189D03*
X029947Y009219D03*
X033547Y010119D03*
X035137Y012789D03*
X035167Y012819D03*
X035197Y012849D03*
D200*
X035122Y012759D03*
X035092Y012729D03*
X035362Y013179D03*
X033022Y015039D03*
X029272Y015159D03*
X033562Y010179D03*
X033562Y010149D03*
X029932Y009279D03*
X029932Y009249D03*
D201*
X029917Y009309D03*
X033577Y010209D03*
X033577Y010239D03*
X035017Y012639D03*
X035047Y012669D03*
X035077Y012699D03*
D202*
X035002Y012609D03*
X034972Y012579D03*
X034912Y012489D03*
X035362Y013209D03*
X033622Y010329D03*
X033622Y010299D03*
X033592Y010269D03*
X029902Y009369D03*
X029902Y009339D03*
D203*
X029887Y009399D03*
X033637Y010359D03*
X033637Y010389D03*
X034867Y012429D03*
X034897Y012459D03*
X034927Y012519D03*
X034957Y012549D03*
X033097Y015009D03*
D204*
X035332Y013239D03*
X034852Y012399D03*
X034822Y012369D03*
X034792Y012339D03*
X033652Y010419D03*
X029872Y009429D03*
X029242Y015129D03*
D205*
X034747Y012279D03*
X034777Y012309D03*
X033667Y010479D03*
X033667Y010449D03*
X029887Y009459D03*
D206*
X029872Y009489D03*
X033682Y010509D03*
X033682Y010539D03*
X034672Y012189D03*
X034702Y012219D03*
X034732Y012249D03*
X035332Y013269D03*
D207*
X035317Y013299D03*
X034657Y012159D03*
X034627Y012129D03*
X034597Y012069D03*
X034567Y012039D03*
X033697Y010569D03*
X029857Y009549D03*
X029857Y009519D03*
X033187Y014979D03*
D208*
X034612Y012099D03*
X034552Y012009D03*
X034522Y011979D03*
X033712Y010629D03*
X033712Y010599D03*
X029842Y009609D03*
X029842Y009579D03*
D209*
X029827Y009639D03*
X033727Y010659D03*
X033727Y010689D03*
X034447Y011889D03*
X034477Y011919D03*
X034507Y011949D03*
X035317Y013329D03*
X029227Y015099D03*
D210*
X033262Y014949D03*
X034432Y011859D03*
X034402Y011829D03*
X033742Y010719D03*
X029812Y009669D03*
D211*
X029827Y009699D03*
X033757Y010749D03*
X033757Y010779D03*
X034327Y011739D03*
X034357Y011769D03*
X034387Y011799D03*
D212*
X033427Y009729D03*
X033427Y009699D03*
X032767Y015129D03*
D213*
X033352Y014919D03*
X035302Y013359D03*
X034312Y011709D03*
X034282Y011679D03*
X034282Y011649D03*
X034252Y011619D03*
X034222Y011589D03*
X033772Y010839D03*
X033772Y010809D03*
X029812Y009729D03*
D214*
X029797Y009759D03*
X029797Y009789D03*
X033787Y010869D03*
X034177Y011529D03*
X034207Y011559D03*
X035287Y013389D03*
X029197Y015069D03*
D215*
X034102Y011439D03*
X034132Y011469D03*
X034162Y011499D03*
X033832Y010989D03*
X033802Y010929D03*
X033802Y010899D03*
X029782Y009819D03*
D216*
X029767Y009849D03*
X029767Y009879D03*
X033817Y010959D03*
X033847Y011019D03*
X034057Y011379D03*
X034087Y011409D03*
X035287Y013419D03*
X033427Y014889D03*
D217*
X035272Y013449D03*
X034042Y011349D03*
X034012Y011319D03*
X033982Y011289D03*
X033952Y011229D03*
X033862Y011079D03*
X033862Y011049D03*
X029752Y009939D03*
X029752Y009909D03*
D218*
X029752Y009969D03*
D219*
X029737Y009999D03*
X029737Y010029D03*
X035257Y013479D03*
X033517Y014859D03*
D220*
X029722Y010059D03*
D221*
X033532Y010059D03*
X033532Y010089D03*
X035212Y012879D03*
X035242Y012909D03*
X035272Y012969D03*
X035362Y013149D03*
X032932Y015069D03*
D222*
X035257Y013509D03*
X029707Y010119D03*
X029707Y010089D03*
X029137Y015009D03*
D223*
X033592Y014829D03*
X035242Y013539D03*
X029692Y010149D03*
D224*
X029677Y010179D03*
X029677Y010209D03*
D225*
X029677Y010239D03*
X029677Y010269D03*
X035227Y013569D03*
X029107Y014979D03*
D226*
X035212Y013599D03*
X029662Y010299D03*
D227*
X029647Y010329D03*
X029647Y010359D03*
X033757Y014769D03*
D228*
X035212Y013629D03*
X029632Y010389D03*
D229*
X029617Y010419D03*
X029617Y010449D03*
X029077Y014949D03*
D230*
X035212Y013659D03*
X029602Y010479D03*
D231*
X029602Y010509D03*
X029602Y010539D03*
X035182Y013689D03*
D232*
X033937Y014709D03*
X029047Y014919D03*
X029587Y010599D03*
X029587Y010569D03*
D233*
X029572Y010629D03*
X035182Y013719D03*
D234*
X035167Y013749D03*
X029557Y010689D03*
X029557Y010659D03*
D235*
X029542Y010719D03*
X034012Y014679D03*
D236*
X035167Y013779D03*
X029527Y010749D03*
D237*
X029542Y010779D03*
X029032Y014889D03*
D238*
X034087Y014649D03*
X029527Y010839D03*
X029527Y010809D03*
D239*
X029512Y010869D03*
X035152Y013809D03*
D240*
X035137Y013839D03*
X029497Y010929D03*
X029497Y010899D03*
D241*
X029482Y010959D03*
X029002Y014859D03*
D242*
X034177Y014619D03*
X035137Y013869D03*
X029467Y011019D03*
X029467Y010989D03*
D243*
X029467Y011049D03*
X034267Y014589D03*
D244*
X029452Y011079D03*
X028972Y014829D03*
D245*
X029467Y011109D03*
X035107Y013929D03*
D246*
X033967Y011259D03*
X033937Y011199D03*
X033907Y011169D03*
X033877Y011139D03*
X033877Y011109D03*
X029167Y015039D03*
D247*
X035107Y013959D03*
X029467Y011139D03*
D248*
X029482Y011169D03*
X028942Y014799D03*
X035092Y013989D03*
D249*
X035092Y014019D03*
X029482Y011199D03*
D250*
X029482Y011229D03*
X028912Y014769D03*
X035062Y014049D03*
D251*
X035062Y014079D03*
X029512Y011259D03*
D252*
X029512Y011289D03*
X028882Y014739D03*
X035062Y014109D03*
D253*
X034672Y014439D03*
X029512Y011319D03*
D254*
X029527Y011349D03*
D255*
X029527Y011379D03*
X034747Y014409D03*
X035017Y014199D03*
D256*
X035017Y014229D03*
X029527Y011409D03*
D257*
X029542Y011439D03*
X034822Y014379D03*
D258*
X035002Y014259D03*
X029542Y011469D03*
D259*
X029557Y011499D03*
X034927Y014349D03*
X034987Y014289D03*
D260*
X034987Y014319D03*
X029557Y011529D03*
X028807Y014649D03*
D261*
X029557Y011559D03*
D262*
X029572Y011589D03*
D263*
X029587Y011619D03*
D264*
X029587Y011649D03*
D265*
X029602Y011679D03*
D266*
X029602Y011709D03*
X028732Y014559D03*
D267*
X029602Y011739D03*
D268*
X029617Y011769D03*
D269*
X029617Y011799D03*
D270*
X029632Y011829D03*
D271*
X029632Y011859D03*
X028672Y014499D03*
D272*
X029632Y011889D03*
D273*
X029647Y011919D03*
D274*
X029647Y011949D03*
D275*
X029662Y011979D03*
D276*
X029677Y012009D03*
X028627Y014439D03*
D277*
X029677Y012039D03*
D278*
X029692Y012069D03*
D279*
X029692Y012099D03*
D280*
X029692Y012129D03*
D281*
X029707Y012159D03*
X028567Y014379D03*
D282*
X029707Y012189D03*
D283*
X029707Y012219D03*
X028537Y014349D03*
D284*
X029722Y012249D03*
D285*
X029722Y012279D03*
D286*
X029722Y012309D03*
D287*
X029752Y012339D03*
X028522Y014259D03*
X028492Y014289D03*
D288*
X028582Y014199D03*
X028612Y014169D03*
X028642Y014139D03*
X029752Y012369D03*
D289*
X029767Y012399D03*
X028717Y014049D03*
X028687Y014079D03*
X028657Y014109D03*
D290*
X028747Y014019D03*
X028777Y013989D03*
X028807Y013959D03*
X029767Y012429D03*
D291*
X029767Y012459D03*
X028897Y013839D03*
X028867Y013869D03*
D292*
X028942Y013809D03*
X029782Y012489D03*
D293*
X029782Y012519D03*
X029092Y013629D03*
X029062Y013659D03*
X029032Y013689D03*
D294*
X029152Y013569D03*
X029782Y012549D03*
D295*
X029797Y012579D03*
X029227Y013479D03*
X029197Y013509D03*
X029167Y013539D03*
D296*
X029797Y012609D03*
D297*
X029797Y012639D03*
X029437Y013239D03*
X029407Y013269D03*
X029377Y013299D03*
D298*
X029452Y013209D03*
X029482Y013179D03*
X029812Y012669D03*
D299*
X029827Y012699D03*
X029647Y012999D03*
X029617Y013029D03*
D300*
X029662Y012969D03*
X029692Y012939D03*
X029842Y012729D03*
D301*
X029842Y012759D03*
X029812Y012819D03*
X029782Y012849D03*
X029752Y012879D03*
D302*
X029827Y012789D03*
D303*
X029737Y012909D03*
D304*
X029602Y013059D03*
X029572Y013089D03*
X029542Y013119D03*
D305*
X029527Y013149D03*
D306*
X029362Y013329D03*
X029332Y013359D03*
D307*
X029302Y013389D03*
X029272Y013419D03*
X029242Y013449D03*
D308*
X029107Y013599D03*
D309*
X029017Y013719D03*
X028987Y013749D03*
X028957Y013779D03*
D310*
X028852Y013899D03*
X028822Y013929D03*
D311*
X035122Y013899D03*
D312*
X035047Y014139D03*
D313*
X035032Y014169D03*
X028852Y014709D03*
D314*
X028567Y014229D03*
D315*
X028507Y014319D03*
D316*
X028597Y014409D03*
D317*
X028642Y014469D03*
D318*
X034597Y014469D03*
D319*
X034507Y014499D03*
D320*
X028702Y014529D03*
D321*
X034417Y014529D03*
D322*
X034342Y014559D03*
D323*
X028762Y014589D03*
D324*
X028777Y014619D03*
D325*
X028837Y014679D03*
D326*
X033847Y014739D03*
D327*
X033682Y014799D03*
D328*
X023114Y008514D02*
X023114Y008213D01*
X023039Y008138D01*
X022814Y008138D01*
X022814Y008589D01*
X023039Y008589D01*
X023114Y008514D01*
X022653Y008439D02*
X022653Y008138D01*
X022653Y008363D02*
X022353Y008363D01*
X022353Y008439D02*
X022503Y008589D01*
X022653Y008439D01*
X022353Y008439D02*
X022353Y008138D01*
X015495Y008138D02*
X015345Y008288D01*
X015420Y008288D02*
X015195Y008288D01*
X015195Y008138D02*
X015195Y008589D01*
X015420Y008589D01*
X015495Y008514D01*
X015495Y008363D01*
X015420Y008288D01*
X015035Y008138D02*
X014734Y008138D01*
X014734Y008589D01*
X015035Y008589D01*
X014884Y008363D02*
X014734Y008363D01*
X014574Y008138D02*
X014574Y008589D01*
X014274Y008589D02*
X014274Y008138D01*
X014424Y008288D01*
X014574Y008138D01*
X014114Y008213D02*
X014114Y008514D01*
X014039Y008589D01*
X013889Y008589D01*
X013814Y008514D01*
X013814Y008213D01*
X013889Y008138D01*
X014039Y008138D01*
X014114Y008213D01*
X013653Y008363D02*
X013578Y008288D01*
X013353Y008288D01*
X013353Y008138D02*
X013353Y008589D01*
X013578Y008589D01*
X013653Y008514D01*
X013653Y008363D01*
X008332Y006468D02*
X008031Y006468D01*
X008182Y006468D02*
X008182Y006918D01*
X008031Y006768D01*
X007871Y006693D02*
X007796Y006618D01*
X007571Y006618D01*
X007571Y006468D02*
X007571Y006918D01*
X007796Y006918D01*
X007871Y006843D01*
X007871Y006693D01*
X007411Y006918D02*
X007261Y006918D01*
X007336Y006918D02*
X007336Y006543D01*
X007261Y006468D01*
X007186Y006468D01*
X007111Y006543D01*
X018585Y025198D02*
X018736Y025198D01*
X018661Y025198D02*
X018661Y025649D01*
X018736Y025649D02*
X018585Y025649D01*
X018892Y025574D02*
X018892Y025273D01*
X018967Y025198D01*
X019118Y025198D01*
X019193Y025273D01*
X019193Y025574D01*
X019118Y025649D01*
X018967Y025649D01*
X018892Y025574D01*
X019353Y025649D02*
X019353Y025198D01*
X019353Y025423D02*
X019653Y025423D01*
X019653Y025198D02*
X019653Y025649D01*
X027185Y025649D02*
X027336Y025649D01*
X027261Y025649D02*
X027261Y025198D01*
X027336Y025198D02*
X027185Y025198D01*
X027492Y025273D02*
X027492Y025574D01*
X027567Y025649D01*
X027718Y025649D01*
X027793Y025574D01*
X027793Y025273D01*
X027718Y025198D01*
X027567Y025198D01*
X027492Y025273D01*
X027953Y025198D02*
X028253Y025198D01*
X027953Y025198D02*
X027953Y025649D01*
D329*
X031841Y025752D02*
X031995Y025752D01*
X031918Y025752D02*
X031918Y025292D01*
X031841Y025292D02*
X031995Y025292D01*
X032148Y025368D02*
X032225Y025292D01*
X032379Y025292D01*
X032455Y025368D01*
X032609Y025368D02*
X032685Y025292D01*
X032839Y025292D01*
X032916Y025368D01*
X032916Y025445D01*
X032839Y025522D01*
X032762Y025522D01*
X032839Y025522D02*
X032916Y025599D01*
X032916Y025675D01*
X032839Y025752D01*
X032685Y025752D01*
X032609Y025675D01*
X032455Y025675D02*
X032379Y025752D01*
X032225Y025752D01*
X032148Y025675D01*
X032148Y025368D01*
X033374Y023730D02*
X033297Y023653D01*
X033297Y023346D01*
X033374Y023270D01*
X033527Y023270D01*
X033604Y023346D01*
X033758Y023270D02*
X034065Y023270D01*
X033911Y023270D02*
X033911Y023730D01*
X033758Y023576D01*
X033604Y023653D02*
X033527Y023730D01*
X033374Y023730D01*
X034218Y023500D02*
X034525Y023500D01*
X034448Y023730D02*
X034218Y023500D01*
X034448Y023270D02*
X034448Y023730D01*
X039116Y023608D02*
X039269Y023761D01*
X039116Y023914D01*
X039576Y023914D01*
X039576Y024068D02*
X039116Y024068D01*
X039116Y024298D01*
X039193Y024375D01*
X039346Y024375D01*
X039423Y024298D01*
X039423Y024068D01*
X039576Y023608D02*
X039116Y023608D01*
X039269Y023454D02*
X039576Y023454D01*
X039346Y023454D02*
X039346Y023147D01*
X039269Y023147D02*
X039116Y023301D01*
X039269Y023454D01*
X039269Y023147D02*
X039576Y023147D01*
X039576Y022994D02*
X039576Y022687D01*
X039116Y022687D01*
X039193Y018600D02*
X039346Y018600D01*
X039423Y018523D01*
X039423Y018293D01*
X039423Y018446D02*
X039576Y018600D01*
X039576Y018293D02*
X039116Y018293D01*
X039116Y018523D01*
X039193Y018600D01*
X039116Y018139D02*
X039576Y018139D01*
X039423Y017986D01*
X039576Y017832D01*
X039116Y017832D01*
X039193Y017679D02*
X039346Y017679D01*
X039423Y017602D01*
X039423Y017372D01*
X039576Y017372D02*
X039116Y017372D01*
X039116Y017602D01*
X039193Y017679D01*
X037677Y017676D02*
X037216Y017676D01*
X037677Y017983D01*
X037216Y017983D01*
X037370Y018136D02*
X037216Y018290D01*
X037677Y018290D01*
X037677Y018443D02*
X037677Y018136D01*
X037677Y017522D02*
X037523Y017369D01*
X037523Y017446D02*
X037523Y017215D01*
X037677Y017215D02*
X037216Y017215D01*
X037216Y017446D01*
X037293Y017522D01*
X037447Y017522D01*
X037523Y017446D01*
X039112Y013174D02*
X039572Y013174D01*
X039112Y012868D01*
X039572Y012868D01*
X039572Y012714D02*
X039265Y012714D01*
X039112Y012561D01*
X039265Y012407D01*
X039572Y012407D01*
X039342Y012407D02*
X039342Y012714D01*
X039112Y012254D02*
X039112Y011947D01*
X039572Y011947D01*
X039342Y011947D02*
X039342Y012100D01*
X027526Y015656D02*
X027219Y015656D01*
X027066Y015656D02*
X026912Y015809D01*
X026836Y015656D02*
X026759Y015732D01*
X026759Y016039D01*
X026836Y016116D01*
X026989Y016116D01*
X027066Y016039D01*
X027066Y015732D01*
X026989Y015656D01*
X026836Y015656D01*
X027219Y015963D02*
X027373Y016116D01*
X027373Y015656D01*
X023589Y015643D02*
X023282Y015643D01*
X023589Y015950D01*
X023589Y016026D01*
X023512Y016103D01*
X023359Y016103D01*
X023282Y016026D01*
X023129Y016026D02*
X023129Y015719D01*
X023052Y015643D01*
X022899Y015643D01*
X022822Y015719D01*
X022822Y016026D01*
X022899Y016103D01*
X023052Y016103D01*
X023129Y016026D01*
X022975Y015796D02*
X023129Y015643D01*
X023088Y019546D02*
X023012Y019623D01*
X023088Y019546D02*
X023242Y019546D01*
X023319Y019623D01*
X023319Y019777D01*
X023242Y019853D01*
X023165Y019853D01*
X023012Y019777D01*
X023012Y020007D01*
X023319Y020007D01*
X022858Y019930D02*
X022858Y019777D01*
X022782Y019700D01*
X022551Y019700D01*
X022551Y019546D02*
X022551Y020007D01*
X022782Y020007D01*
X022858Y019930D01*
X022705Y019700D02*
X022858Y019546D01*
X024353Y019576D02*
X024353Y020037D01*
X024583Y020037D01*
X024660Y019960D01*
X024660Y019807D01*
X024583Y019730D01*
X024353Y019730D01*
X024506Y019730D02*
X024660Y019576D01*
X024813Y019653D02*
X024890Y019576D01*
X025044Y019576D01*
X025120Y019653D01*
X025120Y019730D01*
X025044Y019807D01*
X024813Y019807D01*
X024813Y019653D01*
X024813Y019807D02*
X024967Y019960D01*
X025120Y020037D01*
X026518Y020067D02*
X026518Y019606D01*
X026518Y019760D02*
X026749Y019760D01*
X026825Y019837D01*
X026825Y019990D01*
X026749Y020067D01*
X026518Y020067D01*
X026672Y019760D02*
X026825Y019606D01*
X026979Y019683D02*
X027055Y019606D01*
X027209Y019606D01*
X027286Y019683D01*
X027286Y019760D01*
X027209Y019837D01*
X027132Y019837D01*
X027209Y019837D02*
X027286Y019913D01*
X027286Y019990D01*
X027209Y020067D01*
X027055Y020067D01*
X026979Y019990D01*
X028230Y020067D02*
X028230Y019606D01*
X028230Y019760D02*
X028460Y019760D01*
X028537Y019837D01*
X028537Y019990D01*
X028460Y020067D01*
X028230Y020067D01*
X028383Y019760D02*
X028537Y019606D01*
X028690Y019837D02*
X028997Y019837D01*
X028921Y020067D02*
X028690Y019837D01*
X028921Y020067D02*
X028921Y019606D01*
X035963Y029085D02*
X035963Y029546D01*
X036116Y029546D02*
X035809Y029546D01*
X036270Y029546D02*
X036270Y029085D01*
X036270Y029315D02*
X036577Y029315D01*
X036730Y029315D02*
X036884Y029315D01*
X036730Y029085D02*
X037037Y029085D01*
X037191Y029085D02*
X037191Y029546D01*
X037421Y029546D01*
X037497Y029469D01*
X037497Y029315D01*
X037421Y029239D01*
X037191Y029239D01*
X037344Y029239D02*
X037497Y029085D01*
X037651Y029085D02*
X037651Y029546D01*
X037804Y029392D01*
X037958Y029546D01*
X037958Y029085D01*
X038111Y029009D02*
X038418Y029009D01*
X038572Y029162D02*
X038648Y029085D01*
X038802Y029085D01*
X038879Y029162D01*
X039032Y029162D02*
X039109Y029085D01*
X039262Y029085D01*
X039339Y029162D01*
X039339Y029469D01*
X039262Y029546D01*
X039109Y029546D01*
X039032Y029469D01*
X039032Y029162D01*
X038879Y029469D02*
X038802Y029546D01*
X038648Y029546D01*
X038572Y029469D01*
X038572Y029162D01*
X039492Y029085D02*
X039492Y029546D01*
X039799Y029085D01*
X039799Y029546D01*
X037037Y029546D02*
X036730Y029546D01*
X036730Y029085D01*
X036577Y029085D02*
X036577Y029546D01*
X013668Y025222D02*
X013591Y025299D01*
X013438Y025299D01*
X013361Y025222D01*
X013208Y025299D02*
X013208Y024839D01*
X012901Y025299D01*
X012901Y024839D01*
X012747Y024839D02*
X012594Y024992D01*
X012670Y024992D02*
X012440Y024992D01*
X012440Y024839D02*
X012440Y025299D01*
X012670Y025299D01*
X012747Y025222D01*
X012747Y025069D01*
X012670Y024992D01*
X013361Y024839D02*
X013668Y025145D01*
X013668Y025222D01*
X013668Y024839D02*
X013361Y024839D01*
X009675Y023533D02*
X009368Y023533D01*
X009521Y023533D02*
X009521Y023994D01*
X009368Y023840D01*
X009214Y023763D02*
X009138Y023687D01*
X008908Y023687D01*
X009061Y023687D02*
X009214Y023533D01*
X009214Y023763D02*
X009214Y023917D01*
X009138Y023994D01*
X008908Y023994D01*
X008908Y023533D01*
X008962Y028221D02*
X009269Y028221D01*
X009423Y028374D02*
X009500Y028297D01*
X009653Y028297D01*
X009730Y028374D01*
X009730Y028681D01*
X009653Y028758D01*
X009500Y028758D01*
X009423Y028681D01*
X009423Y028374D01*
X009883Y028374D02*
X009960Y028297D01*
X010113Y028297D01*
X010190Y028374D01*
X010190Y028758D01*
X010344Y028758D02*
X010651Y028758D01*
X010497Y028758D02*
X010497Y028297D01*
X009883Y028374D02*
X009883Y028758D01*
X008809Y028681D02*
X008809Y028528D01*
X008732Y028451D01*
X008502Y028451D01*
X008655Y028451D02*
X008809Y028297D01*
X008502Y028297D02*
X008502Y028758D01*
X008732Y028758D01*
X008809Y028681D01*
X008349Y028758D02*
X008042Y028758D01*
X008042Y028297D01*
X008349Y028297D01*
X008195Y028528D02*
X008042Y028528D01*
X007888Y028758D02*
X007888Y028297D01*
X007735Y028451D01*
X007581Y028297D01*
X007581Y028758D01*
X007428Y028681D02*
X007351Y028758D01*
X007198Y028758D01*
X007121Y028681D01*
X007121Y028374D01*
X007198Y028297D01*
X007351Y028297D01*
X007428Y028374D01*
X007428Y028681D01*
X006967Y028681D02*
X006967Y028528D01*
X006891Y028451D01*
X006660Y028451D01*
X006660Y028297D02*
X006660Y028758D01*
X006891Y028758D01*
X006967Y028681D01*
X004974Y009756D02*
X004821Y009756D01*
X004744Y009679D01*
X004591Y009679D02*
X004591Y009525D01*
X004514Y009449D01*
X004284Y009449D01*
X004437Y009449D02*
X004591Y009295D01*
X004744Y009295D02*
X005051Y009602D01*
X005051Y009679D01*
X004974Y009756D01*
X004591Y009679D02*
X004514Y009756D01*
X004284Y009756D01*
X004284Y009295D01*
X004744Y009295D02*
X005051Y009295D01*
D330*
X004917Y017599D02*
X004610Y017599D01*
X004764Y017599D02*
X004764Y018519D01*
X004917Y018519D02*
X004610Y018519D01*
X004303Y018519D02*
X004303Y017905D01*
X003996Y017599D01*
X003689Y017905D01*
X003689Y018519D01*
X005224Y018519D02*
X005224Y017599D01*
X005838Y017599D02*
X005838Y018519D01*
X005224Y018519D02*
X005838Y017599D01*
M02*
