G75*
G70*
%OFA0B0*%
%FSLAX24Y24*%
%IPPOS*%
%LPD*%
%AMOC8*
5,1,8,0,0,1.08239X$1,22.5*
%
%ADD10C,0.1340*%
%ADD11C,0.0640*%
%ADD12R,0.0316X0.0946*%
%ADD13R,0.0474X0.0513*%
%ADD14C,0.0867*%
%ADD15R,0.0966X0.0966*%
%ADD16C,0.1064*%
%ADD17C,0.0680*%
%ADD18R,0.0375X0.0356*%
%ADD19R,0.0356X0.0474*%
%ADD20R,0.0789X0.0631*%
%ADD21R,0.0395X0.0395*%
%ADD22R,0.0395X0.0316*%
%ADD23R,0.0395X0.0277*%
%ADD24R,0.0316X0.0395*%
%ADD25R,0.0277X0.0395*%
%ADD26R,0.0474X0.0631*%
%ADD27OC8,0.0400*%
%ADD28C,0.1580*%
%ADD29C,0.2836*%
D10*
X004535Y004830D03*
X007685Y004437D03*
X033279Y004437D03*
X039575Y004830D03*
X042331Y031208D03*
X033279Y031200D03*
X010835Y031208D03*
X007689Y031200D03*
D11*
X010258Y026673D02*
X010258Y026113D01*
X011258Y026113D02*
X011258Y026673D01*
X012258Y026673D02*
X012258Y026113D01*
X013258Y026113D02*
X013258Y026673D01*
X014258Y026673D02*
X014258Y026113D01*
X015258Y026113D02*
X015258Y026673D01*
X016258Y026673D02*
X016258Y026113D01*
X017258Y026113D02*
X017258Y026673D01*
X018258Y026673D02*
X018258Y026113D01*
X019258Y026113D02*
X019258Y026673D01*
X020858Y026673D02*
X020858Y026113D01*
X021858Y026113D02*
X021858Y026673D01*
X022858Y026673D02*
X022858Y026113D01*
X023858Y026113D02*
X023858Y026673D01*
X024858Y026673D02*
X024858Y026113D01*
X025858Y026113D02*
X025858Y026673D01*
X026858Y026673D02*
X026858Y026113D01*
X027858Y026113D02*
X027858Y026673D01*
X027858Y007673D02*
X027858Y007113D01*
X026858Y007113D02*
X026858Y007673D01*
X025858Y007673D02*
X025858Y007113D01*
X024858Y007113D02*
X024858Y007673D01*
X023858Y007673D02*
X023858Y007113D01*
X022858Y007113D02*
X022858Y007673D01*
X020858Y007673D02*
X020858Y007113D01*
X019858Y007113D02*
X019858Y007673D01*
X018858Y007673D02*
X018858Y007113D01*
X017858Y007113D02*
X017858Y007673D01*
X016858Y007673D02*
X016858Y007113D01*
X015858Y007113D02*
X015858Y007673D01*
X014858Y007673D02*
X014858Y007113D01*
X013858Y007113D02*
X013858Y007673D01*
D12*
X031573Y024492D03*
X032073Y024492D03*
X032573Y024492D03*
X033073Y024492D03*
X033073Y026539D03*
X032573Y026539D03*
X032073Y026539D03*
X031573Y026539D03*
D13*
X033804Y024953D03*
X033804Y024284D03*
X029021Y018870D03*
X028352Y018870D03*
X027447Y018870D03*
X026777Y018870D03*
X025084Y018870D03*
X024415Y018870D03*
X023510Y018870D03*
X022840Y018870D03*
X009594Y024515D03*
X008925Y024515D03*
D14*
X004574Y024598D03*
X004574Y026598D03*
X004566Y029280D03*
X004566Y031280D03*
X004591Y015180D03*
X004591Y013180D03*
X036818Y027655D03*
X038818Y027655D03*
D15*
X039303Y026484D03*
X036303Y026484D03*
D16*
X037803Y030484D03*
D17*
X007985Y026590D02*
X007385Y026590D01*
X007385Y025590D02*
X007985Y025590D01*
X007985Y024590D02*
X007385Y024590D01*
X007385Y023590D02*
X007985Y023590D01*
X007985Y022590D02*
X007385Y022590D01*
X007385Y021590D02*
X007985Y021590D01*
X007985Y020590D02*
X007385Y020590D01*
X007385Y019590D02*
X007985Y019590D01*
X007985Y018590D02*
X007385Y018590D01*
X007385Y017590D02*
X007985Y017590D01*
X007985Y016590D02*
X007385Y016590D01*
X007385Y015590D02*
X007985Y015590D01*
X007985Y014590D02*
X007385Y014590D01*
X007385Y013590D02*
X007985Y013590D01*
X007985Y012590D02*
X007385Y012590D01*
X007385Y011590D02*
X007985Y011590D01*
X007985Y010590D02*
X007385Y010590D01*
X007385Y009590D02*
X007985Y009590D01*
X007985Y008590D02*
X007385Y008590D01*
X007385Y007590D02*
X007985Y007590D01*
D18*
X004368Y010382D03*
X004368Y011090D03*
D19*
X005500Y010736D03*
D20*
X043798Y010807D03*
X043798Y012406D03*
X047120Y012404D03*
X047120Y010809D03*
X047318Y006907D03*
X047318Y005311D03*
X043996Y005310D03*
X043996Y006909D03*
X043820Y016327D03*
X043820Y017926D03*
X047141Y017924D03*
X047142Y016329D03*
X047044Y021849D03*
X047043Y023444D03*
X043722Y023446D03*
X043722Y021847D03*
X043714Y027367D03*
X043714Y028966D03*
X047035Y028964D03*
X047035Y027369D03*
D21*
X039968Y023779D03*
X039968Y023189D03*
X039968Y018267D03*
X039968Y017677D03*
X039968Y012850D03*
X039968Y012259D03*
D22*
X038689Y017470D03*
X038098Y017470D03*
X038098Y018474D03*
X038689Y018474D03*
D23*
X038689Y018130D03*
X038689Y017815D03*
X038098Y017815D03*
X038098Y018130D03*
D24*
X015274Y024811D03*
X015274Y025401D03*
X014270Y025401D03*
X014270Y024811D03*
D25*
X014614Y024811D03*
X014929Y024811D03*
X014929Y025401D03*
X014614Y025401D03*
D26*
X022801Y017728D03*
X023549Y017728D03*
X023175Y016862D03*
X026738Y017728D03*
X027486Y017728D03*
X027112Y016862D03*
D27*
X028687Y017689D03*
X030913Y016641D03*
X032821Y017689D03*
X037939Y015720D03*
X038726Y015720D03*
X038333Y015326D03*
X038726Y014933D03*
X038333Y014539D03*
X038726Y014145D03*
X037939Y014145D03*
X037939Y014933D03*
X037939Y020444D03*
X038333Y020838D03*
X038726Y020444D03*
X038726Y021232D03*
X038333Y021626D03*
X037939Y021232D03*
X037939Y022019D03*
X038726Y022019D03*
X043512Y025696D03*
X041150Y029240D03*
X031701Y023334D03*
X027858Y023732D03*
X026858Y024511D03*
X024858Y021366D03*
X025858Y020972D03*
X024356Y017689D03*
X025008Y016641D03*
X020283Y016248D03*
X019890Y018216D03*
X017652Y018736D03*
X016679Y017885D03*
X013590Y021759D03*
X013984Y022547D03*
X014378Y023334D03*
X014772Y024122D03*
X010441Y023728D03*
X009199Y029240D03*
X011167Y009421D03*
X011561Y009421D03*
X011955Y009421D03*
X011955Y009027D03*
X011561Y009027D03*
X011167Y009027D03*
X011167Y008633D03*
X011561Y008633D03*
X011955Y008633D03*
X005323Y008767D03*
X020677Y009161D03*
X041150Y006011D03*
D28*
X036818Y027655D03*
X004573Y026597D03*
X004574Y024597D03*
X004566Y029280D03*
X004592Y013179D03*
D29*
X004536Y004830D03*
X007685Y004437D03*
X033279Y004436D03*
X039575Y004831D03*
X042331Y031208D03*
X033279Y031201D03*
X010834Y031209D03*
X007689Y031201D03*
M02*
